<svg width="575" height="425" viewBox="0 0 575 425" fill="none" xmlns="http://www.w3.org/2000/svg">
<g filter="url(#filter0_d_10_589)">
<rect x="175" y="50" width="225" height="200" rx="11" fill="url(#paint0_linear_10_589)"/>
</g>
<rect x="175" y="304" width="225" height="71" rx="11" fill="url(#paint1_linear_10_589)"/>
<path d="M207.428 328.364V340H205.32V328.364H207.428ZM211.676 334.886V340H209.619V331.273H211.585V332.756H211.688C211.888 332.267 212.208 331.879 212.648 331.591C213.091 331.303 213.638 331.159 214.29 331.159C214.892 331.159 215.417 331.288 215.864 331.545C216.314 331.803 216.663 332.176 216.909 332.665C217.159 333.153 217.282 333.746 217.278 334.443V340H215.222V334.761C215.222 334.178 215.07 333.722 214.767 333.392C214.468 333.062 214.053 332.898 213.523 332.898C213.163 332.898 212.843 332.977 212.562 333.136C212.286 333.292 212.068 333.517 211.909 333.812C211.754 334.108 211.676 334.466 211.676 334.886ZM223.727 331.273V332.864H218.71V331.273H223.727ZM219.949 329.182H222.006V337.375C222.006 337.652 222.047 337.864 222.131 338.011C222.218 338.155 222.331 338.254 222.472 338.307C222.612 338.36 222.767 338.386 222.938 338.386C223.066 338.386 223.184 338.377 223.29 338.358C223.4 338.339 223.483 338.322 223.54 338.307L223.886 339.915C223.777 339.953 223.619 339.994 223.415 340.04C223.214 340.085 222.968 340.112 222.676 340.119C222.161 340.134 221.697 340.057 221.284 339.886C220.871 339.712 220.544 339.443 220.301 339.08C220.063 338.716 219.945 338.261 219.949 337.716V329.182ZM231.01 336.33V331.273H233.067V340H231.072V338.449H230.982C230.785 338.937 230.461 339.337 230.01 339.648C229.563 339.958 229.012 340.114 228.357 340.114C227.785 340.114 227.279 339.987 226.839 339.733C226.404 339.475 226.063 339.102 225.817 338.614C225.571 338.121 225.447 337.527 225.447 336.83V331.273H227.504V336.511C227.504 337.064 227.656 337.504 227.959 337.83C228.262 338.155 228.66 338.318 229.152 338.318C229.455 338.318 229.749 338.244 230.033 338.097C230.317 337.949 230.55 337.729 230.732 337.438C230.917 337.142 231.01 336.773 231.01 336.33ZM235.182 340V331.273H237.239V340H235.182ZM236.216 330.034C235.89 330.034 235.61 329.926 235.375 329.71C235.14 329.491 235.023 329.227 235.023 328.92C235.023 328.61 235.14 328.347 235.375 328.131C235.61 327.911 235.89 327.801 236.216 327.801C236.545 327.801 236.826 327.911 237.057 328.131C237.292 328.347 237.409 328.61 237.409 328.92C237.409 329.227 237.292 329.491 237.057 329.71C236.826 329.926 236.545 330.034 236.216 330.034ZM243.712 331.273V332.864H238.695V331.273H243.712ZM239.933 329.182H241.99V337.375C241.99 337.652 242.032 337.864 242.115 338.011C242.202 338.155 242.316 338.254 242.456 338.307C242.596 338.36 242.751 338.386 242.922 338.386C243.051 338.386 243.168 338.377 243.274 338.358C243.384 338.339 243.467 338.322 243.524 338.307L243.871 339.915C243.761 339.953 243.604 339.994 243.399 340.04C243.198 340.085 242.952 340.112 242.661 340.119C242.145 340.134 241.681 340.057 241.268 339.886C240.856 339.712 240.528 339.443 240.286 339.08C240.047 338.716 239.929 338.261 239.933 337.716V329.182ZM245.432 340V331.273H247.489V340H245.432ZM246.466 330.034C246.14 330.034 245.86 329.926 245.625 329.71C245.39 329.491 245.273 329.227 245.273 328.92C245.273 328.61 245.39 328.347 245.625 328.131C245.86 327.911 246.14 327.801 246.466 327.801C246.795 327.801 247.076 327.911 247.307 328.131C247.542 328.347 247.659 328.61 247.659 328.92C247.659 329.227 247.542 329.491 247.307 329.71C247.076 329.926 246.795 330.034 246.466 330.034ZM257.399 331.273L254.291 340H252.018L248.911 331.273H251.104L253.109 337.756H253.2L255.212 331.273H257.399ZM262.389 340.17C261.514 340.17 260.759 339.989 260.122 339.625C259.49 339.258 259.003 338.739 258.662 338.068C258.321 337.394 258.151 336.6 258.151 335.688C258.151 334.79 258.321 334.002 258.662 333.324C259.007 332.642 259.488 332.112 260.105 331.733C260.723 331.35 261.448 331.159 262.281 331.159C262.819 331.159 263.327 331.246 263.804 331.42C264.285 331.591 264.709 331.856 265.077 332.216C265.448 332.576 265.74 333.034 265.952 333.591C266.164 334.144 266.27 334.803 266.27 335.568V336.199H259.116V334.812H264.298C264.295 334.419 264.209 334.068 264.043 333.761C263.876 333.451 263.643 333.206 263.344 333.028C263.048 332.85 262.704 332.761 262.31 332.761C261.889 332.761 261.52 332.864 261.202 333.068C260.884 333.269 260.635 333.534 260.457 333.864C260.283 334.189 260.194 334.547 260.19 334.938V336.148C260.19 336.655 260.283 337.091 260.469 337.455C260.654 337.814 260.914 338.091 261.247 338.284C261.58 338.473 261.971 338.568 262.418 338.568C262.717 338.568 262.988 338.527 263.23 338.443C263.473 338.356 263.683 338.229 263.861 338.062C264.039 337.896 264.173 337.689 264.264 337.443L266.185 337.659C266.063 338.167 265.832 338.61 265.491 338.989C265.154 339.364 264.723 339.655 264.196 339.864C263.67 340.068 263.067 340.17 262.389 340.17ZM278.393 331.562C278.34 331.066 278.117 330.68 277.723 330.403C277.333 330.127 276.825 329.989 276.2 329.989C275.761 329.989 275.384 330.055 275.07 330.188C274.755 330.32 274.515 330.5 274.348 330.727C274.181 330.955 274.096 331.214 274.092 331.506C274.092 331.748 274.147 331.958 274.257 332.136C274.371 332.314 274.524 332.466 274.717 332.591C274.911 332.712 275.125 332.814 275.359 332.898C275.594 332.981 275.831 333.051 276.07 333.108L277.161 333.381C277.6 333.483 278.022 333.621 278.428 333.795C278.837 333.97 279.202 334.189 279.524 334.455C279.85 334.72 280.107 335.04 280.297 335.415C280.486 335.79 280.581 336.229 280.581 336.733C280.581 337.415 280.407 338.015 280.058 338.534C279.71 339.049 279.206 339.453 278.547 339.744C277.892 340.032 277.098 340.176 276.166 340.176C275.261 340.176 274.475 340.036 273.808 339.756C273.145 339.475 272.626 339.066 272.251 338.528C271.88 337.991 271.679 337.335 271.649 336.562H273.723C273.753 336.968 273.878 337.305 274.098 337.574C274.318 337.843 274.604 338.044 274.956 338.176C275.312 338.309 275.71 338.375 276.149 338.375C276.607 338.375 277.009 338.307 277.354 338.17C277.702 338.03 277.975 337.837 278.172 337.591C278.369 337.341 278.469 337.049 278.473 336.716C278.469 336.413 278.38 336.163 278.206 335.966C278.032 335.765 277.787 335.598 277.473 335.466C277.162 335.33 276.799 335.208 276.382 335.102L275.058 334.761C274.1 334.515 273.342 334.142 272.786 333.642C272.232 333.138 271.956 332.47 271.956 331.636C271.956 330.951 272.142 330.35 272.513 329.835C272.888 329.32 273.397 328.92 274.041 328.636C274.685 328.348 275.414 328.205 276.229 328.205C277.054 328.205 277.778 328.348 278.399 328.636C279.024 328.92 279.515 329.316 279.871 329.824C280.227 330.328 280.411 330.907 280.422 331.562H278.393ZM287.932 336.33V331.273H289.989V340H287.994V338.449H287.903C287.706 338.937 287.383 339.337 286.932 339.648C286.485 339.958 285.934 340.114 285.278 340.114C284.706 340.114 284.201 339.987 283.761 339.733C283.326 339.475 282.985 339.102 282.739 338.614C282.492 338.121 282.369 337.527 282.369 336.83V331.273H284.426V336.511C284.426 337.064 284.578 337.504 284.881 337.83C285.184 338.155 285.581 338.318 286.074 338.318C286.377 338.318 286.67 338.244 286.955 338.097C287.239 337.949 287.472 337.729 287.653 337.438C287.839 337.142 287.932 336.773 287.932 336.33ZM295.899 343.455C295.161 343.455 294.526 343.354 293.996 343.153C293.465 342.956 293.039 342.691 292.717 342.358C292.395 342.025 292.172 341.655 292.047 341.25L293.899 340.801C293.982 340.972 294.104 341.14 294.263 341.307C294.422 341.477 294.636 341.617 294.905 341.727C295.178 341.841 295.52 341.898 295.933 341.898C296.517 341.898 297 341.756 297.382 341.472C297.765 341.191 297.956 340.729 297.956 340.085V338.432H297.854C297.748 338.644 297.592 338.862 297.388 339.085C297.187 339.309 296.92 339.496 296.587 339.648C296.257 339.799 295.842 339.875 295.342 339.875C294.672 339.875 294.064 339.718 293.518 339.403C292.977 339.085 292.545 338.612 292.223 337.983C291.905 337.35 291.746 336.559 291.746 335.608C291.746 334.65 291.905 333.841 292.223 333.182C292.545 332.519 292.979 332.017 293.524 331.676C294.07 331.331 294.678 331.159 295.348 331.159C295.859 331.159 296.28 331.246 296.609 331.42C296.943 331.591 297.208 331.797 297.405 332.04C297.602 332.278 297.751 332.504 297.854 332.716H297.967V331.273H299.996V340.142C299.996 340.888 299.818 341.506 299.462 341.994C299.106 342.483 298.619 342.848 298.001 343.091C297.384 343.333 296.683 343.455 295.899 343.455ZM295.916 338.261C296.352 338.261 296.723 338.155 297.03 337.943C297.337 337.731 297.57 337.426 297.729 337.028C297.888 336.631 297.967 336.153 297.967 335.597C297.967 335.047 297.888 334.566 297.729 334.153C297.573 333.741 297.342 333.42 297.036 333.193C296.732 332.962 296.359 332.847 295.916 332.847C295.458 332.847 295.075 332.966 294.768 333.205C294.462 333.443 294.231 333.771 294.075 334.188C293.92 334.6 293.842 335.07 293.842 335.597C293.842 336.131 293.92 336.598 294.075 337C294.234 337.398 294.467 337.708 294.774 337.932C295.085 338.152 295.465 338.261 295.916 338.261ZM305.899 343.455C305.161 343.455 304.526 343.354 303.996 343.153C303.465 342.956 303.039 342.691 302.717 342.358C302.395 342.025 302.172 341.655 302.047 341.25L303.899 340.801C303.982 340.972 304.104 341.14 304.263 341.307C304.422 341.477 304.636 341.617 304.905 341.727C305.178 341.841 305.52 341.898 305.933 341.898C306.517 341.898 307 341.756 307.382 341.472C307.765 341.191 307.956 340.729 307.956 340.085V338.432H307.854C307.748 338.644 307.592 338.862 307.388 339.085C307.187 339.309 306.92 339.496 306.587 339.648C306.257 339.799 305.842 339.875 305.342 339.875C304.672 339.875 304.064 339.718 303.518 339.403C302.977 339.085 302.545 338.612 302.223 337.983C301.905 337.35 301.746 336.559 301.746 335.608C301.746 334.65 301.905 333.841 302.223 333.182C302.545 332.519 302.979 332.017 303.524 331.676C304.07 331.331 304.678 331.159 305.348 331.159C305.859 331.159 306.28 331.246 306.609 331.42C306.943 331.591 307.208 331.797 307.405 332.04C307.602 332.278 307.751 332.504 307.854 332.716H307.967V331.273H309.996V340.142C309.996 340.888 309.818 341.506 309.462 341.994C309.106 342.483 308.619 342.848 308.001 343.091C307.384 343.333 306.683 343.455 305.899 343.455ZM305.916 338.261C306.352 338.261 306.723 338.155 307.03 337.943C307.337 337.731 307.57 337.426 307.729 337.028C307.888 336.631 307.967 336.153 307.967 335.597C307.967 335.047 307.888 334.566 307.729 334.153C307.573 333.741 307.342 333.42 307.036 333.193C306.732 332.962 306.359 332.847 305.916 332.847C305.458 332.847 305.075 332.966 304.768 333.205C304.462 333.443 304.231 333.771 304.075 334.188C303.92 334.6 303.842 335.07 303.842 335.597C303.842 336.131 303.92 336.598 304.075 337C304.234 337.398 304.467 337.708 304.774 337.932C305.085 338.152 305.465 338.261 305.916 338.261ZM315.967 340.17C315.092 340.17 314.337 339.989 313.7 339.625C313.068 339.258 312.581 338.739 312.24 338.068C311.899 337.394 311.729 336.6 311.729 335.688C311.729 334.79 311.899 334.002 312.24 333.324C312.585 332.642 313.066 332.112 313.683 331.733C314.301 331.35 315.026 331.159 315.859 331.159C316.397 331.159 316.905 331.246 317.382 331.42C317.863 331.591 318.287 331.856 318.655 332.216C319.026 332.576 319.318 333.034 319.53 333.591C319.742 334.144 319.848 334.803 319.848 335.568V336.199H312.695V334.812H317.876C317.873 334.419 317.787 334.068 317.621 333.761C317.454 333.451 317.221 333.206 316.922 333.028C316.626 332.85 316.282 332.761 315.888 332.761C315.467 332.761 315.098 332.864 314.78 333.068C314.462 333.269 314.214 333.534 314.036 333.864C313.861 334.189 313.772 334.547 313.768 334.938V336.148C313.768 336.655 313.861 337.091 314.047 337.455C314.232 337.814 314.492 338.091 314.825 338.284C315.159 338.473 315.549 338.568 315.996 338.568C316.295 338.568 316.566 338.527 316.808 338.443C317.051 338.356 317.261 338.229 317.439 338.062C317.617 337.896 317.751 337.689 317.842 337.443L319.763 337.659C319.642 338.167 319.411 338.61 319.07 338.989C318.732 339.364 318.301 339.655 317.774 339.864C317.248 340.068 316.645 340.17 315.967 340.17ZM328.486 333.58L326.611 333.784C326.558 333.595 326.465 333.417 326.332 333.25C326.204 333.083 326.029 332.949 325.81 332.847C325.59 332.744 325.321 332.693 325.003 332.693C324.575 332.693 324.215 332.786 323.923 332.972C323.635 333.157 323.493 333.398 323.497 333.693C323.493 333.947 323.586 334.153 323.776 334.312C323.969 334.472 324.287 334.602 324.73 334.705L326.219 335.023C327.045 335.201 327.658 335.483 328.06 335.869C328.465 336.256 328.67 336.761 328.673 337.386C328.67 337.936 328.509 338.42 328.19 338.841C327.876 339.258 327.438 339.583 326.878 339.818C326.317 340.053 325.673 340.17 324.946 340.17C323.878 340.17 323.018 339.947 322.366 339.5C321.715 339.049 321.327 338.422 321.202 337.619L323.207 337.426C323.298 337.82 323.491 338.117 323.787 338.318C324.082 338.519 324.467 338.619 324.94 338.619C325.429 338.619 325.821 338.519 326.116 338.318C326.416 338.117 326.565 337.869 326.565 337.574C326.565 337.324 326.469 337.117 326.276 336.955C326.086 336.792 325.791 336.667 325.389 336.58L323.901 336.267C323.063 336.093 322.444 335.799 322.043 335.386C321.641 334.97 321.442 334.443 321.446 333.807C321.442 333.269 321.588 332.803 321.884 332.409C322.183 332.011 322.598 331.705 323.128 331.489C323.662 331.269 324.277 331.159 324.974 331.159C325.997 331.159 326.802 331.377 327.389 331.812C327.98 332.248 328.346 332.837 328.486 333.58ZM334.727 331.273V332.864H329.71V331.273H334.727ZM330.949 329.182H333.006V337.375C333.006 337.652 333.047 337.864 333.131 338.011C333.218 338.155 333.331 338.254 333.472 338.307C333.612 338.36 333.767 338.386 333.938 338.386C334.066 338.386 334.184 338.377 334.29 338.358C334.4 338.339 334.483 338.322 334.54 338.307L334.886 339.915C334.777 339.953 334.619 339.994 334.415 340.04C334.214 340.085 333.968 340.112 333.676 340.119C333.161 340.134 332.697 340.057 332.284 339.886C331.871 339.712 331.544 339.443 331.301 339.08C331.063 338.716 330.945 338.261 330.949 337.716V329.182ZM336.447 340V331.273H338.504V340H336.447ZM337.482 330.034C337.156 330.034 336.875 329.926 336.641 329.71C336.406 329.491 336.288 329.227 336.288 328.92C336.288 328.61 336.406 328.347 336.641 328.131C336.875 327.911 337.156 327.801 337.482 327.801C337.811 327.801 338.091 327.911 338.322 328.131C338.557 328.347 338.675 328.61 338.675 328.92C338.675 329.227 338.557 329.491 338.322 329.71C338.091 329.926 337.811 330.034 337.482 330.034ZM344.426 340.17C343.574 340.17 342.835 339.983 342.21 339.608C341.585 339.233 341.1 338.708 340.756 338.034C340.415 337.36 340.244 336.572 340.244 335.67C340.244 334.769 340.415 333.979 340.756 333.301C341.1 332.623 341.585 332.097 342.21 331.722C342.835 331.347 343.574 331.159 344.426 331.159C345.278 331.159 346.017 331.347 346.642 331.722C347.267 332.097 347.75 332.623 348.091 333.301C348.436 333.979 348.608 334.769 348.608 335.67C348.608 336.572 348.436 337.36 348.091 338.034C347.75 338.708 347.267 339.233 346.642 339.608C346.017 339.983 345.278 340.17 344.426 340.17ZM344.438 338.523C344.9 338.523 345.286 338.396 345.597 338.142C345.907 337.884 346.138 337.54 346.29 337.108C346.445 336.676 346.523 336.195 346.523 335.665C346.523 335.131 346.445 334.648 346.29 334.216C346.138 333.78 345.907 333.434 345.597 333.176C345.286 332.919 344.9 332.79 344.438 332.79C343.964 332.79 343.57 332.919 343.256 333.176C342.945 333.434 342.712 333.78 342.557 334.216C342.405 334.648 342.33 335.131 342.33 335.665C342.33 336.195 342.405 336.676 342.557 337.108C342.712 337.54 342.945 337.884 343.256 338.142C343.57 338.396 343.964 338.523 344.438 338.523ZM352.411 334.886V340H350.354V331.273H352.32V332.756H352.422C352.623 332.267 352.943 331.879 353.382 331.591C353.825 331.303 354.373 331.159 355.024 331.159C355.626 331.159 356.151 331.288 356.598 331.545C357.049 331.803 357.397 332.176 357.643 332.665C357.893 333.153 358.017 333.746 358.013 334.443V340H355.956V334.761C355.956 334.178 355.804 333.722 355.501 333.392C355.202 333.062 354.787 332.898 354.257 332.898C353.897 332.898 353.577 332.977 353.297 333.136C353.02 333.292 352.803 333.517 352.643 333.812C352.488 334.108 352.411 334.466 352.411 334.886ZM367.001 333.58L365.126 333.784C365.073 333.595 364.981 333.417 364.848 333.25C364.719 333.083 364.545 332.949 364.325 332.847C364.106 332.744 363.837 332.693 363.518 332.693C363.09 332.693 362.731 332.786 362.439 332.972C362.151 333.157 362.009 333.398 362.013 333.693C362.009 333.947 362.102 334.153 362.291 334.312C362.484 334.472 362.803 334.602 363.246 334.705L364.734 335.023C365.56 335.201 366.174 335.483 366.575 335.869C366.981 336.256 367.185 336.761 367.189 337.386C367.185 337.936 367.024 338.42 366.706 338.841C366.392 339.258 365.954 339.583 365.393 339.818C364.833 340.053 364.189 340.17 363.462 340.17C362.393 340.17 361.534 339.947 360.882 339.5C360.231 339.049 359.842 338.422 359.717 337.619L361.723 337.426C361.814 337.82 362.007 338.117 362.303 338.318C362.598 338.519 362.982 338.619 363.456 338.619C363.945 338.619 364.337 338.519 364.632 338.318C364.931 338.117 365.081 337.869 365.081 337.574C365.081 337.324 364.984 337.117 364.791 336.955C364.602 336.792 364.306 336.667 363.905 336.58L362.416 336.267C361.579 336.093 360.96 335.799 360.558 335.386C360.157 334.97 359.958 334.443 359.962 333.807C359.958 333.269 360.104 332.803 360.399 332.409C360.698 332.011 361.113 331.705 361.643 331.489C362.178 331.269 362.793 331.159 363.49 331.159C364.513 331.159 365.318 331.377 365.905 331.812C366.496 332.248 366.861 332.837 367.001 333.58ZM255.959 353.182C255.959 351.761 256.146 350.456 256.521 349.267C256.9 348.074 257.463 346.972 258.209 345.96H260.146C259.858 346.335 259.589 346.795 259.339 347.341C259.089 347.883 258.872 348.477 258.686 349.125C258.504 349.769 258.36 350.437 258.254 351.131C258.152 351.824 258.101 352.508 258.101 353.182C258.101 354.08 258.19 354.989 258.368 355.909C258.55 356.83 258.794 357.684 259.101 358.472C259.411 359.256 259.76 359.898 260.146 360.398H258.209C257.463 359.386 256.9 358.286 256.521 357.097C256.146 355.903 255.959 354.598 255.959 353.182ZM271.398 347.364V359H269.523L264.04 351.074H263.943V359H261.835V347.364H263.722L269.199 355.295H269.301V347.364H271.398ZM277.467 359.17C276.592 359.17 275.837 358.989 275.2 358.625C274.568 358.258 274.081 357.739 273.74 357.068C273.399 356.394 273.229 355.6 273.229 354.688C273.229 353.79 273.399 353.002 273.74 352.324C274.085 351.642 274.566 351.112 275.183 350.733C275.801 350.35 276.526 350.159 277.359 350.159C277.897 350.159 278.405 350.246 278.882 350.42C279.363 350.591 279.787 350.856 280.155 351.216C280.526 351.576 280.818 352.034 281.03 352.591C281.242 353.144 281.348 353.803 281.348 354.568V355.199H274.195V353.812H279.376C279.373 353.419 279.287 353.068 279.121 352.761C278.954 352.451 278.721 352.206 278.422 352.028C278.126 351.85 277.782 351.761 277.388 351.761C276.967 351.761 276.598 351.864 276.28 352.068C275.962 352.269 275.714 352.534 275.536 352.864C275.361 353.189 275.272 353.547 275.268 353.938V355.148C275.268 355.655 275.361 356.091 275.547 356.455C275.732 356.814 275.992 357.091 276.325 357.284C276.659 357.473 277.049 357.568 277.496 357.568C277.795 357.568 278.066 357.527 278.308 357.443C278.551 357.356 278.761 357.229 278.939 357.062C279.117 356.896 279.251 356.689 279.342 356.443L281.263 356.659C281.142 357.167 280.911 357.61 280.57 357.989C280.232 358.364 279.801 358.655 279.274 358.864C278.748 359.068 278.145 359.17 277.467 359.17ZM288.651 355.33V350.273H290.707V359H288.713V357.449H288.622C288.425 357.937 288.101 358.337 287.651 358.648C287.204 358.958 286.652 359.114 285.997 359.114C285.425 359.114 284.92 358.987 284.48 358.733C284.045 358.475 283.704 358.102 283.457 357.614C283.211 357.121 283.088 356.527 283.088 355.83V350.273H285.145V355.511C285.145 356.064 285.296 356.504 285.599 356.83C285.902 357.155 286.3 357.318 286.793 357.318C287.096 357.318 287.389 357.244 287.673 357.097C287.957 356.949 288.19 356.729 288.372 356.438C288.558 356.142 288.651 355.773 288.651 355.33ZM292.822 359V350.273H294.817V351.727H294.908C295.067 351.223 295.339 350.835 295.726 350.562C296.116 350.286 296.561 350.148 297.061 350.148C297.175 350.148 297.302 350.153 297.442 350.165C297.586 350.172 297.705 350.186 297.8 350.205V352.097C297.713 352.066 297.574 352.04 297.385 352.017C297.199 351.991 297.019 351.977 296.845 351.977C296.47 351.977 296.133 352.059 295.834 352.222C295.538 352.381 295.305 352.602 295.135 352.886C294.964 353.17 294.879 353.498 294.879 353.869V359H292.822ZM301.521 359.176C300.968 359.176 300.47 359.078 300.027 358.881C299.588 358.68 299.239 358.384 298.982 357.994C298.728 357.604 298.601 357.123 298.601 356.551C298.601 356.059 298.692 355.652 298.874 355.33C299.055 355.008 299.304 354.75 299.618 354.557C299.932 354.364 300.286 354.218 300.68 354.119C301.078 354.017 301.489 353.943 301.913 353.898C302.425 353.845 302.839 353.797 303.158 353.756C303.476 353.71 303.707 353.642 303.851 353.551C303.999 353.456 304.072 353.311 304.072 353.114V353.08C304.072 352.652 303.946 352.32 303.692 352.085C303.438 351.85 303.072 351.733 302.595 351.733C302.091 351.733 301.692 351.843 301.396 352.062C301.105 352.282 300.908 352.542 300.805 352.841L298.885 352.568C299.036 352.038 299.286 351.595 299.635 351.239C299.983 350.879 300.41 350.61 300.913 350.432C301.417 350.25 301.974 350.159 302.584 350.159C303.004 350.159 303.423 350.208 303.839 350.307C304.256 350.405 304.637 350.568 304.982 350.795C305.326 351.019 305.603 351.324 305.811 351.71C306.023 352.097 306.129 352.58 306.129 353.159V359H304.152V357.801H304.084C303.959 358.044 303.783 358.271 303.555 358.483C303.332 358.691 303.05 358.86 302.709 358.989C302.372 359.114 301.976 359.176 301.521 359.176ZM302.055 357.665C302.468 357.665 302.826 357.583 303.129 357.42C303.432 357.254 303.665 357.034 303.828 356.761C303.995 356.489 304.078 356.191 304.078 355.869V354.841C304.014 354.894 303.904 354.943 303.749 354.989C303.597 355.034 303.427 355.074 303.237 355.108C303.048 355.142 302.86 355.172 302.675 355.199C302.489 355.225 302.328 355.248 302.192 355.267C301.885 355.309 301.61 355.377 301.368 355.472C301.125 355.566 300.934 355.699 300.794 355.869C300.654 356.036 300.584 356.252 300.584 356.517C300.584 356.896 300.722 357.182 300.999 357.375C301.275 357.568 301.627 357.665 302.055 357.665ZM310.254 347.364V359H308.197V347.364H310.254ZM316.04 354.256C316.04 355.672 315.85 356.977 315.472 358.17C315.097 359.36 314.536 360.46 313.79 361.472H311.852C312.144 361.097 312.413 360.638 312.659 360.097C312.909 359.555 313.125 358.96 313.307 358.312C313.492 357.665 313.636 356.994 313.739 356.301C313.845 355.608 313.898 354.926 313.898 354.256C313.898 353.358 313.807 352.449 313.625 351.528C313.447 350.608 313.203 349.754 312.892 348.966C312.585 348.178 312.239 347.534 311.852 347.034H313.79C314.536 348.045 315.097 349.148 315.472 350.341C315.85 351.53 316.04 352.835 316.04 354.256Z" fill="black"/>
<path d="M246.577 151V139.364H250.941C251.835 139.364 252.585 139.519 253.191 139.83C253.801 140.14 254.261 140.576 254.572 141.136C254.886 141.693 255.043 142.343 255.043 143.085C255.043 143.831 254.884 144.479 254.566 145.028C254.252 145.574 253.788 145.996 253.174 146.295C252.56 146.591 251.807 146.739 250.913 146.739H247.805V144.989H250.629C251.151 144.989 251.579 144.917 251.913 144.773C252.246 144.625 252.492 144.411 252.651 144.131C252.814 143.847 252.896 143.498 252.896 143.085C252.896 142.672 252.814 142.32 252.651 142.028C252.488 141.733 252.24 141.509 251.907 141.358C251.574 141.203 251.144 141.125 250.617 141.125H248.685V151H246.577ZM252.589 145.727L255.469 151H253.117L250.288 145.727H252.589ZM260.631 151.17C259.756 151.17 259.001 150.989 258.364 150.625C257.732 150.258 257.245 149.739 256.904 149.068C256.563 148.394 256.393 147.6 256.393 146.688C256.393 145.79 256.563 145.002 256.904 144.324C257.249 143.642 257.73 143.112 258.347 142.733C258.965 142.35 259.69 142.159 260.523 142.159C261.061 142.159 261.569 142.246 262.046 142.42C262.527 142.591 262.951 142.856 263.319 143.216C263.69 143.576 263.982 144.034 264.194 144.591C264.406 145.144 264.512 145.803 264.512 146.568V147.199H257.359V145.812H262.54C262.537 145.419 262.451 145.068 262.285 144.761C262.118 144.451 261.885 144.206 261.586 144.028C261.29 143.85 260.946 143.761 260.552 143.761C260.131 143.761 259.762 143.864 259.444 144.068C259.126 144.269 258.878 144.534 258.7 144.864C258.525 145.189 258.436 145.547 258.433 145.938V147.148C258.433 147.655 258.525 148.091 258.711 148.455C258.897 148.814 259.156 149.091 259.489 149.284C259.823 149.473 260.213 149.568 260.66 149.568C260.959 149.568 261.23 149.527 261.472 149.443C261.715 149.356 261.925 149.229 262.103 149.062C262.281 148.896 262.415 148.689 262.506 148.443L264.427 148.659C264.306 149.167 264.075 149.61 263.734 149.989C263.397 150.364 262.965 150.655 262.438 150.864C261.912 151.068 261.309 151.17 260.631 151.17ZM268.763 151.176C268.21 151.176 267.712 151.078 267.269 150.881C266.83 150.68 266.481 150.384 266.224 149.994C265.97 149.604 265.843 149.123 265.843 148.551C265.843 148.059 265.934 147.652 266.116 147.33C266.298 147.008 266.546 146.75 266.86 146.557C267.174 146.364 267.529 146.218 267.923 146.119C268.32 146.017 268.731 145.943 269.156 145.898C269.667 145.845 270.082 145.797 270.4 145.756C270.718 145.71 270.949 145.642 271.093 145.551C271.241 145.456 271.315 145.311 271.315 145.114V145.08C271.315 144.652 271.188 144.32 270.934 144.085C270.68 143.85 270.315 143.733 269.837 143.733C269.334 143.733 268.934 143.843 268.638 144.062C268.347 144.282 268.15 144.542 268.048 144.841L266.127 144.568C266.279 144.038 266.529 143.595 266.877 143.239C267.226 142.879 267.652 142.61 268.156 142.432C268.659 142.25 269.216 142.159 269.826 142.159C270.246 142.159 270.665 142.208 271.082 142.307C271.498 142.405 271.879 142.568 272.224 142.795C272.568 143.019 272.845 143.324 273.053 143.71C273.265 144.097 273.371 144.58 273.371 145.159V151H271.394V149.801H271.326C271.201 150.044 271.025 150.271 270.798 150.483C270.574 150.691 270.292 150.86 269.951 150.989C269.614 151.114 269.218 151.176 268.763 151.176ZM269.298 149.665C269.71 149.665 270.068 149.583 270.371 149.42C270.674 149.254 270.907 149.034 271.07 148.761C271.237 148.489 271.32 148.191 271.32 147.869V146.841C271.256 146.894 271.146 146.943 270.991 146.989C270.839 147.034 270.669 147.074 270.479 147.108C270.29 147.142 270.103 147.172 269.917 147.199C269.731 147.225 269.57 147.248 269.434 147.267C269.127 147.309 268.853 147.377 268.61 147.472C268.368 147.566 268.176 147.699 268.036 147.869C267.896 148.036 267.826 148.252 267.826 148.517C267.826 148.896 267.964 149.182 268.241 149.375C268.517 149.568 268.87 149.665 269.298 149.665ZM282.337 144.58L280.462 144.784C280.409 144.595 280.317 144.417 280.184 144.25C280.055 144.083 279.881 143.949 279.661 143.847C279.442 143.744 279.173 143.693 278.854 143.693C278.426 143.693 278.067 143.786 277.775 143.972C277.487 144.157 277.345 144.398 277.349 144.693C277.345 144.947 277.438 145.153 277.627 145.312C277.82 145.472 278.138 145.602 278.582 145.705L280.07 146.023C280.896 146.201 281.51 146.483 281.911 146.869C282.317 147.256 282.521 147.761 282.525 148.386C282.521 148.936 282.36 149.42 282.042 149.841C281.728 150.258 281.29 150.583 280.729 150.818C280.169 151.053 279.525 151.17 278.798 151.17C277.729 151.17 276.87 150.947 276.218 150.5C275.567 150.049 275.178 149.422 275.053 148.619L277.059 148.426C277.15 148.82 277.343 149.117 277.638 149.318C277.934 149.519 278.318 149.619 278.792 149.619C279.281 149.619 279.673 149.519 279.968 149.318C280.267 149.117 280.417 148.869 280.417 148.574C280.417 148.324 280.32 148.117 280.127 147.955C279.938 147.792 279.642 147.667 279.241 147.58L277.752 147.267C276.915 147.093 276.296 146.799 275.894 146.386C275.493 145.97 275.294 145.443 275.298 144.807C275.294 144.269 275.44 143.803 275.735 143.409C276.034 143.011 276.449 142.705 276.979 142.489C277.513 142.269 278.129 142.159 278.826 142.159C279.849 142.159 280.654 142.377 281.241 142.812C281.832 143.248 282.197 143.837 282.337 144.58ZM288.028 151.17C287.175 151.17 286.437 150.983 285.812 150.608C285.187 150.233 284.702 149.708 284.357 149.034C284.016 148.36 283.846 147.572 283.846 146.67C283.846 145.769 284.016 144.979 284.357 144.301C284.702 143.623 285.187 143.097 285.812 142.722C286.437 142.347 287.175 142.159 288.028 142.159C288.88 142.159 289.619 142.347 290.244 142.722C290.869 143.097 291.352 143.623 291.692 144.301C292.037 144.979 292.21 145.769 292.21 146.67C292.21 147.572 292.037 148.36 291.692 149.034C291.352 149.708 290.869 150.233 290.244 150.608C289.619 150.983 288.88 151.17 288.028 151.17ZM288.039 149.523C288.501 149.523 288.888 149.396 289.198 149.142C289.509 148.884 289.74 148.54 289.891 148.108C290.047 147.676 290.124 147.195 290.124 146.665C290.124 146.131 290.047 145.648 289.891 145.216C289.74 144.78 289.509 144.434 289.198 144.176C288.888 143.919 288.501 143.79 288.039 143.79C287.566 143.79 287.172 143.919 286.857 144.176C286.547 144.434 286.314 144.78 286.158 145.216C286.007 145.648 285.931 146.131 285.931 146.665C285.931 147.195 286.007 147.676 286.158 148.108C286.314 148.54 286.547 148.884 286.857 149.142C287.172 149.396 287.566 149.523 288.039 149.523ZM296.012 145.886V151H293.955V142.273H295.921V143.756H296.023C296.224 143.267 296.544 142.879 296.984 142.591C297.427 142.303 297.974 142.159 298.626 142.159C299.228 142.159 299.753 142.288 300.2 142.545C300.65 142.803 300.999 143.176 301.245 143.665C301.495 144.153 301.618 144.746 301.614 145.443V151H299.558V145.761C299.558 145.178 299.406 144.722 299.103 144.392C298.804 144.062 298.389 143.898 297.859 143.898C297.499 143.898 297.179 143.977 296.898 144.136C296.622 144.292 296.404 144.517 296.245 144.812C296.09 145.108 296.012 145.466 296.012 145.886ZM303.705 151V142.273H305.762V151H303.705ZM304.739 141.034C304.414 141.034 304.133 140.926 303.898 140.71C303.664 140.491 303.546 140.227 303.546 139.92C303.546 139.61 303.664 139.347 303.898 139.131C304.133 138.911 304.414 138.801 304.739 138.801C305.069 138.801 305.349 138.911 305.58 139.131C305.815 139.347 305.933 139.61 305.933 139.92C305.933 140.227 305.815 140.491 305.58 140.71C305.349 140.926 305.069 141.034 304.739 141.034ZM309.934 145.886V151H307.877V142.273H309.843V143.756H309.945C310.146 143.267 310.466 142.879 310.906 142.591C311.349 142.303 311.896 142.159 312.548 142.159C313.15 142.159 313.674 142.288 314.121 142.545C314.572 142.803 314.921 143.176 315.167 143.665C315.417 144.153 315.54 144.746 315.536 145.443V151H313.479V145.761C313.479 145.178 313.328 144.722 313.025 144.392C312.726 144.062 312.311 143.898 311.781 143.898C311.421 143.898 311.101 143.977 310.82 144.136C310.544 144.292 310.326 144.517 310.167 144.812C310.012 145.108 309.934 145.466 309.934 145.886ZM321.423 154.455C320.684 154.455 320.049 154.354 319.519 154.153C318.989 153.956 318.563 153.691 318.241 153.358C317.919 153.025 317.695 152.655 317.57 152.25L319.423 151.801C319.506 151.972 319.627 152.14 319.786 152.307C319.945 152.477 320.159 152.617 320.428 152.727C320.701 152.841 321.044 152.898 321.457 152.898C322.04 152.898 322.523 152.756 322.906 152.472C323.288 152.191 323.479 151.729 323.479 151.085V149.432H323.377C323.271 149.644 323.116 149.862 322.911 150.085C322.71 150.309 322.443 150.496 322.11 150.648C321.781 150.799 321.366 150.875 320.866 150.875C320.195 150.875 319.587 150.718 319.042 150.403C318.5 150.085 318.068 149.612 317.746 148.983C317.428 148.35 317.269 147.559 317.269 146.608C317.269 145.65 317.428 144.841 317.746 144.182C318.068 143.519 318.502 143.017 319.048 142.676C319.593 142.331 320.201 142.159 320.871 142.159C321.383 142.159 321.803 142.246 322.133 142.42C322.466 142.591 322.731 142.797 322.928 143.04C323.125 143.278 323.275 143.504 323.377 143.716H323.491V142.273H325.519V151.142C325.519 151.888 325.341 152.506 324.985 152.994C324.629 153.483 324.142 153.848 323.525 154.091C322.907 154.333 322.207 154.455 321.423 154.455ZM321.44 149.261C321.875 149.261 322.246 149.155 322.553 148.943C322.86 148.731 323.093 148.426 323.252 148.028C323.411 147.631 323.491 147.153 323.491 146.597C323.491 146.047 323.411 145.566 323.252 145.153C323.097 144.741 322.866 144.42 322.559 144.193C322.256 143.962 321.883 143.847 321.44 143.847C320.981 143.847 320.599 143.966 320.292 144.205C319.985 144.443 319.754 144.771 319.599 145.188C319.443 145.6 319.366 146.07 319.366 146.597C319.366 147.131 319.443 147.598 319.599 148C319.758 148.398 319.991 148.708 320.298 148.932C320.608 149.152 320.989 149.261 321.44 149.261ZM219.865 164.182C219.865 162.761 220.053 161.456 220.428 160.267C220.806 159.074 221.369 157.972 222.115 156.96H224.053C223.765 157.335 223.496 157.795 223.246 158.341C222.996 158.883 222.778 159.477 222.592 160.125C222.411 160.769 222.267 161.437 222.161 162.131C222.058 162.824 222.007 163.508 222.007 164.182C222.007 165.08 222.096 165.989 222.274 166.909C222.456 167.83 222.7 168.684 223.007 169.472C223.318 170.256 223.666 170.898 224.053 171.398H222.115C221.369 170.386 220.806 169.286 220.428 168.097C220.053 166.903 219.865 165.598 219.865 164.182ZM232.065 161.562C232.012 161.066 231.789 160.68 231.395 160.403C231.005 160.127 230.497 159.989 229.872 159.989C229.433 159.989 229.056 160.055 228.741 160.188C228.427 160.32 228.187 160.5 228.02 160.727C227.853 160.955 227.768 161.214 227.764 161.506C227.764 161.748 227.819 161.958 227.929 162.136C228.043 162.314 228.196 162.466 228.389 162.591C228.582 162.712 228.796 162.814 229.031 162.898C229.266 162.981 229.503 163.051 229.741 163.108L230.832 163.381C231.272 163.483 231.694 163.621 232.099 163.795C232.509 163.97 232.874 164.189 233.196 164.455C233.522 164.72 233.779 165.04 233.969 165.415C234.158 165.79 234.253 166.229 234.253 166.733C234.253 167.415 234.079 168.015 233.73 168.534C233.382 169.049 232.878 169.453 232.219 169.744C231.563 170.032 230.77 170.176 229.838 170.176C228.933 170.176 228.147 170.036 227.48 169.756C226.817 169.475 226.298 169.066 225.923 168.528C225.552 167.991 225.351 167.335 225.321 166.562H227.395C227.425 166.968 227.55 167.305 227.77 167.574C227.99 167.843 228.276 168.044 228.628 168.176C228.984 168.309 229.382 168.375 229.821 168.375C230.279 168.375 230.681 168.307 231.026 168.17C231.374 168.03 231.647 167.837 231.844 167.591C232.041 167.341 232.141 167.049 232.145 166.716C232.141 166.413 232.052 166.163 231.878 165.966C231.704 165.765 231.459 165.598 231.145 165.466C230.834 165.33 230.471 165.208 230.054 165.102L228.73 164.761C227.772 164.515 227.014 164.142 226.457 163.642C225.904 163.138 225.628 162.47 225.628 161.636C225.628 160.951 225.813 160.35 226.185 159.835C226.56 159.32 227.069 158.92 227.713 158.636C228.357 158.348 229.086 158.205 229.901 158.205C230.726 158.205 231.45 158.348 232.071 158.636C232.696 158.92 233.187 159.316 233.543 159.824C233.899 160.328 234.082 160.907 234.094 161.562H232.065ZM237.32 173.273C237.039 173.273 236.78 173.25 236.541 173.205C236.306 173.163 236.119 173.114 235.979 173.057L236.456 171.455C236.755 171.542 237.022 171.583 237.257 171.58C237.492 171.576 237.698 171.502 237.876 171.358C238.058 171.218 238.212 170.983 238.337 170.653L238.513 170.182L235.348 161.273H237.53L239.541 167.864H239.632L241.649 161.273H243.837L240.342 171.057C240.179 171.519 239.964 171.915 239.695 172.244C239.426 172.578 239.096 172.831 238.706 173.006C238.32 173.184 237.857 173.273 237.32 173.273ZM245.26 170V161.273H247.226V162.756H247.328C247.51 162.256 247.811 161.866 248.232 161.585C248.652 161.301 249.154 161.159 249.737 161.159C250.328 161.159 250.826 161.303 251.232 161.591C251.641 161.875 251.929 162.263 252.095 162.756H252.186C252.379 162.271 252.705 161.884 253.163 161.597C253.625 161.305 254.173 161.159 254.805 161.159C255.608 161.159 256.264 161.413 256.771 161.92C257.279 162.428 257.533 163.169 257.533 164.142V170H255.47V164.46C255.47 163.919 255.326 163.523 255.038 163.273C254.75 163.019 254.398 162.892 253.982 162.892C253.485 162.892 253.097 163.047 252.817 163.358C252.54 163.665 252.402 164.064 252.402 164.557V170H250.385V164.375C250.385 163.924 250.249 163.564 249.976 163.295C249.707 163.027 249.355 162.892 248.919 162.892C248.624 162.892 248.355 162.968 248.112 163.119C247.87 163.267 247.677 163.477 247.533 163.75C247.389 164.019 247.317 164.333 247.317 164.693V170H245.26ZM259.71 170V158.364H261.767V162.716H261.852C261.958 162.504 262.108 162.278 262.301 162.04C262.494 161.797 262.756 161.591 263.085 161.42C263.415 161.246 263.835 161.159 264.347 161.159C265.021 161.159 265.629 161.331 266.17 161.676C266.716 162.017 267.148 162.523 267.466 163.193C267.788 163.86 267.949 164.678 267.949 165.648C267.949 166.606 267.792 167.42 267.477 168.091C267.163 168.761 266.735 169.273 266.193 169.625C265.652 169.977 265.038 170.153 264.352 170.153C263.852 170.153 263.438 170.07 263.108 169.903C262.778 169.737 262.513 169.536 262.312 169.301C262.116 169.062 261.962 168.837 261.852 168.625H261.733V170H259.71ZM261.727 165.636C261.727 166.201 261.807 166.695 261.966 167.119C262.129 167.544 262.362 167.875 262.665 168.114C262.972 168.348 263.343 168.466 263.778 168.466C264.233 168.466 264.614 168.345 264.92 168.102C265.227 167.856 265.458 167.521 265.614 167.097C265.773 166.669 265.852 166.182 265.852 165.636C265.852 165.095 265.775 164.614 265.619 164.193C265.464 163.773 265.233 163.443 264.926 163.205C264.619 162.966 264.237 162.847 263.778 162.847C263.339 162.847 262.966 162.962 262.659 163.193C262.352 163.424 262.119 163.748 261.96 164.165C261.805 164.581 261.727 165.072 261.727 165.636ZM273.504 170.17C272.652 170.17 271.913 169.983 271.288 169.608C270.663 169.233 270.179 168.708 269.834 168.034C269.493 167.36 269.322 166.572 269.322 165.67C269.322 164.769 269.493 163.979 269.834 163.301C270.179 162.623 270.663 162.097 271.288 161.722C271.913 161.347 272.652 161.159 273.504 161.159C274.357 161.159 275.095 161.347 275.72 161.722C276.345 162.097 276.828 162.623 277.169 163.301C277.514 163.979 277.686 164.769 277.686 165.67C277.686 166.572 277.514 167.36 277.169 168.034C276.828 168.708 276.345 169.233 275.72 169.608C275.095 169.983 274.357 170.17 273.504 170.17ZM273.516 168.523C273.978 168.523 274.364 168.396 274.675 168.142C274.985 167.884 275.216 167.54 275.368 167.108C275.523 166.676 275.601 166.195 275.601 165.665C275.601 165.131 275.523 164.648 275.368 164.216C275.216 163.78 274.985 163.434 274.675 163.176C274.364 162.919 273.978 162.79 273.516 162.79C273.042 162.79 272.648 162.919 272.334 163.176C272.023 163.434 271.79 163.78 271.635 164.216C271.483 164.648 271.408 165.131 271.408 165.665C271.408 166.195 271.483 166.676 271.635 167.108C271.79 167.54 272.023 167.884 272.334 168.142C272.648 168.396 273.042 168.523 273.516 168.523ZM281.489 158.364V170H279.432V158.364H281.489ZM283.604 170V161.273H285.661V170H283.604ZM284.638 160.034C284.312 160.034 284.032 159.926 283.797 159.71C283.562 159.491 283.445 159.227 283.445 158.92C283.445 158.61 283.562 158.347 283.797 158.131C284.032 157.911 284.312 157.801 284.638 157.801C284.967 157.801 285.248 157.911 285.479 158.131C285.714 158.347 285.831 158.61 285.831 158.92C285.831 159.227 285.714 159.491 285.479 159.71C285.248 159.926 284.967 160.034 284.638 160.034ZM291.582 170.17C290.711 170.17 289.963 169.979 289.338 169.597C288.717 169.214 288.238 168.686 287.901 168.011C287.567 167.333 287.401 166.553 287.401 165.67C287.401 164.784 287.571 164.002 287.912 163.324C288.253 162.642 288.734 162.112 289.355 161.733C289.98 161.35 290.719 161.159 291.571 161.159C292.279 161.159 292.906 161.29 293.452 161.551C294.001 161.809 294.438 162.174 294.764 162.648C295.09 163.117 295.276 163.667 295.321 164.295H293.355C293.276 163.875 293.086 163.525 292.787 163.244C292.491 162.96 292.096 162.818 291.599 162.818C291.179 162.818 290.81 162.932 290.491 163.159C290.173 163.383 289.925 163.705 289.747 164.125C289.573 164.545 289.486 165.049 289.486 165.636C289.486 166.231 289.573 166.742 289.747 167.17C289.921 167.595 290.166 167.922 290.48 168.153C290.798 168.381 291.171 168.494 291.599 168.494C291.902 168.494 292.173 168.437 292.412 168.324C292.654 168.206 292.857 168.038 293.02 167.818C293.183 167.598 293.295 167.331 293.355 167.017H295.321C295.272 167.634 295.09 168.182 294.776 168.659C294.461 169.133 294.033 169.504 293.491 169.773C292.95 170.038 292.313 170.17 291.582 170.17ZM301.07 170V158.364H305.433C306.327 158.364 307.077 158.519 307.683 158.83C308.293 159.14 308.753 159.576 309.064 160.136C309.378 160.693 309.536 161.343 309.536 162.085C309.536 162.831 309.376 163.479 309.058 164.028C308.744 164.574 308.28 164.996 307.666 165.295C307.053 165.591 306.299 165.739 305.405 165.739H302.297V163.989H305.121C305.643 163.989 306.071 163.917 306.405 163.773C306.738 163.625 306.984 163.411 307.143 163.131C307.306 162.847 307.388 162.498 307.388 162.085C307.388 161.672 307.306 161.32 307.143 161.028C306.981 160.733 306.732 160.509 306.399 160.358C306.066 160.203 305.636 160.125 305.109 160.125H303.178V170H301.07ZM307.081 164.727L309.962 170H307.609L304.78 164.727H307.081ZM315.124 170.17C314.249 170.17 313.493 169.989 312.857 169.625C312.224 169.258 311.737 168.739 311.396 168.068C311.055 167.394 310.885 166.6 310.885 165.688C310.885 164.79 311.055 164.002 311.396 163.324C311.741 162.642 312.222 162.112 312.839 161.733C313.457 161.35 314.182 161.159 315.016 161.159C315.554 161.159 316.061 161.246 316.538 161.42C317.019 161.591 317.444 161.856 317.811 162.216C318.182 162.576 318.474 163.034 318.686 163.591C318.898 164.144 319.004 164.803 319.004 165.568V166.199H311.851V164.812H317.033C317.029 164.419 316.944 164.068 316.777 163.761C316.61 163.451 316.377 163.206 316.078 163.028C315.783 162.85 315.438 162.761 315.044 162.761C314.624 162.761 314.254 162.864 313.936 163.068C313.618 163.269 313.37 163.534 313.192 163.864C313.018 164.189 312.929 164.547 312.925 164.938V166.148C312.925 166.655 313.018 167.091 313.203 167.455C313.389 167.814 313.648 168.091 313.982 168.284C314.315 168.473 314.705 168.568 315.152 168.568C315.451 168.568 315.722 168.527 315.964 168.443C316.207 168.356 316.417 168.229 316.595 168.062C316.773 167.896 316.908 167.689 316.999 167.443L318.919 167.659C318.798 168.167 318.567 168.61 318.226 168.989C317.889 169.364 317.457 169.655 316.93 169.864C316.404 170.068 315.802 170.17 315.124 170.17ZM323.256 170.176C322.703 170.176 322.205 170.078 321.761 169.881C321.322 169.68 320.973 169.384 320.716 168.994C320.462 168.604 320.335 168.123 320.335 167.551C320.335 167.059 320.426 166.652 320.608 166.33C320.79 166.008 321.038 165.75 321.352 165.557C321.667 165.364 322.021 165.218 322.415 165.119C322.813 165.017 323.223 164.943 323.648 164.898C324.159 164.845 324.574 164.797 324.892 164.756C325.21 164.71 325.441 164.642 325.585 164.551C325.733 164.456 325.807 164.311 325.807 164.114V164.08C325.807 163.652 325.68 163.32 325.426 163.085C325.172 162.85 324.807 162.733 324.33 162.733C323.826 162.733 323.426 162.843 323.131 163.062C322.839 163.282 322.642 163.542 322.54 163.841L320.619 163.568C320.771 163.038 321.021 162.595 321.369 162.239C321.718 161.879 322.144 161.61 322.648 161.432C323.152 161.25 323.708 161.159 324.318 161.159C324.739 161.159 325.157 161.208 325.574 161.307C325.991 161.405 326.371 161.568 326.716 161.795C327.061 162.019 327.337 162.324 327.545 162.71C327.758 163.097 327.864 163.58 327.864 164.159V170H325.886V168.801H325.818C325.693 169.044 325.517 169.271 325.29 169.483C325.066 169.691 324.784 169.86 324.443 169.989C324.106 170.114 323.71 170.176 323.256 170.176ZM323.79 168.665C324.203 168.665 324.561 168.583 324.864 168.42C325.167 168.254 325.4 168.034 325.562 167.761C325.729 167.489 325.812 167.191 325.812 166.869V165.841C325.748 165.894 325.638 165.943 325.483 165.989C325.331 166.034 325.161 166.074 324.972 166.108C324.782 166.142 324.595 166.172 324.409 166.199C324.223 166.225 324.063 166.248 323.926 166.267C323.619 166.309 323.345 166.377 323.102 166.472C322.86 166.566 322.669 166.699 322.528 166.869C322.388 167.036 322.318 167.252 322.318 167.517C322.318 167.896 322.456 168.182 322.733 168.375C323.009 168.568 323.362 168.665 323.79 168.665ZM331.989 158.364V170H329.932V158.364H331.989ZM334.104 170V161.273H336.07V162.756H336.172C336.354 162.256 336.655 161.866 337.075 161.585C337.496 161.301 337.998 161.159 338.581 161.159C339.172 161.159 339.67 161.303 340.075 161.591C340.484 161.875 340.772 162.263 340.939 162.756H341.03C341.223 162.271 341.549 161.884 342.007 161.597C342.469 161.305 343.017 161.159 343.649 161.159C344.452 161.159 345.107 161.413 345.615 161.92C346.123 162.428 346.376 163.169 346.376 164.142V170H344.314V164.46C344.314 163.919 344.17 163.523 343.882 163.273C343.594 163.019 343.242 162.892 342.825 162.892C342.329 162.892 341.941 163.047 341.661 163.358C341.384 163.665 341.246 164.064 341.246 164.557V170H339.229V164.375C339.229 163.924 339.092 163.564 338.82 163.295C338.551 163.027 338.198 162.892 337.763 162.892C337.467 162.892 337.198 162.968 336.956 163.119C336.714 163.267 336.52 163.477 336.376 163.75C336.232 164.019 336.161 164.333 336.161 164.693V170H334.104ZM352.134 165.256C352.134 166.672 351.944 167.977 351.565 169.17C351.19 170.36 350.63 171.46 349.884 172.472H347.946C348.238 172.097 348.507 171.638 348.753 171.097C349.003 170.555 349.219 169.96 349.401 169.312C349.586 168.665 349.73 167.994 349.832 167.301C349.938 166.608 349.991 165.926 349.991 165.256C349.991 164.358 349.901 163.449 349.719 162.528C349.541 161.608 349.296 160.754 348.986 159.966C348.679 159.178 348.332 158.534 347.946 158.034H349.884C350.63 159.045 351.19 160.148 351.565 161.341C351.944 162.53 352.134 163.835 352.134 165.256Z" fill="black"/>
<rect x="50" y="50" width="75" height="325" rx="11" fill="url(#paint2_linear_10_589)"/>
<rect x="450" y="50" width="75" height="325" rx="11" fill="url(#paint3_linear_10_589)"/>
<path d="M475.562 259.357C475.066 259.41 474.68 259.633 474.403 260.027C474.127 260.417 473.989 260.925 473.989 261.55C473.989 261.989 474.055 262.366 474.188 262.68C474.32 262.995 474.5 263.235 474.727 263.402C474.955 263.569 475.214 263.654 475.506 263.658C475.748 263.658 475.958 263.603 476.136 263.493C476.314 263.379 476.466 263.226 476.591 263.033C476.712 262.839 476.814 262.625 476.898 262.391C476.981 262.156 477.051 261.919 477.108 261.68L477.381 260.589C477.483 260.15 477.621 259.728 477.795 259.322C477.97 258.913 478.189 258.548 478.455 258.226C478.72 257.9 479.04 257.643 479.415 257.453C479.79 257.264 480.229 257.169 480.733 257.169C481.415 257.169 482.015 257.343 482.534 257.692C483.049 258.04 483.453 258.544 483.744 259.203C484.032 259.858 484.176 260.652 484.176 261.584C484.176 262.489 484.036 263.275 483.756 263.942C483.475 264.605 483.066 265.124 482.528 265.499C481.991 265.87 481.335 266.071 480.562 266.101V264.027C480.968 263.997 481.305 263.872 481.574 263.652C481.843 263.432 482.044 263.146 482.176 262.794C482.309 262.438 482.375 262.04 482.375 261.601C482.375 261.143 482.307 260.741 482.17 260.396C482.03 260.048 481.837 259.775 481.591 259.578C481.341 259.381 481.049 259.281 480.716 259.277C480.413 259.281 480.163 259.37 479.966 259.544C479.765 259.718 479.598 259.963 479.466 260.277C479.33 260.588 479.208 260.951 479.102 261.368L478.761 262.692C478.515 263.65 478.142 264.408 477.642 264.964C477.138 265.518 476.47 265.794 475.636 265.794C474.951 265.794 474.35 265.608 473.835 265.237C473.32 264.862 472.92 264.353 472.636 263.709C472.348 263.065 472.205 262.336 472.205 261.521C472.205 260.696 472.348 259.972 472.636 259.351C472.92 258.726 473.316 258.235 473.824 257.879C474.328 257.523 474.907 257.339 475.562 257.328V259.357ZM487.273 254.102C487.273 254.383 487.25 254.642 487.205 254.881C487.163 255.116 487.114 255.303 487.057 255.443L485.455 254.966C485.542 254.667 485.583 254.4 485.58 254.165C485.576 253.93 485.502 253.723 485.358 253.545C485.218 253.364 484.983 253.21 484.653 253.085L484.182 252.909L475.273 256.074V253.892L481.864 251.881V251.79L475.273 249.773V247.585L485.057 251.08C485.519 251.242 485.915 251.458 486.244 251.727C486.578 251.996 486.831 252.326 487.006 252.716C487.184 253.102 487.273 253.564 487.273 254.102ZM484 246.162H475.273V244.196H476.756V244.094C476.256 243.912 475.866 243.611 475.585 243.19C475.301 242.77 475.159 242.268 475.159 241.685C475.159 241.094 475.303 240.596 475.591 240.19C475.875 239.781 476.263 239.493 476.756 239.327V239.236C476.271 239.043 475.884 238.717 475.597 238.259C475.305 237.796 475.159 237.249 475.159 236.616C475.159 235.813 475.413 235.158 475.92 234.651C476.428 234.143 477.169 233.889 478.142 233.889H484V235.952H478.46C477.919 235.952 477.523 236.096 477.273 236.384C477.019 236.671 476.892 237.024 476.892 237.44C476.892 237.937 477.047 238.325 477.358 238.605C477.665 238.882 478.064 239.02 478.557 239.02H484V241.037H478.375C477.924 241.037 477.564 241.173 477.295 241.446C477.027 241.715 476.892 242.067 476.892 242.503C476.892 242.798 476.968 243.067 477.119 243.31C477.267 243.552 477.477 243.745 477.75 243.889C478.019 244.033 478.333 244.105 478.693 244.105H484V246.162ZM484 231.712H472.364V229.655H476.716V229.57C476.504 229.464 476.278 229.314 476.04 229.121C475.797 228.928 475.591 228.666 475.42 228.337C475.246 228.007 475.159 227.587 475.159 227.075C475.159 226.401 475.331 225.793 475.676 225.251C476.017 224.706 476.523 224.274 477.193 223.956C477.86 223.634 478.678 223.473 479.648 223.473C480.606 223.473 481.42 223.63 482.091 223.945C482.761 224.259 483.273 224.687 483.625 225.229C483.977 225.77 484.153 226.384 484.153 227.07C484.153 227.57 484.07 227.984 483.903 228.314C483.737 228.643 483.536 228.909 483.301 229.109C483.062 229.306 482.837 229.46 482.625 229.57V229.689H484V231.712ZM479.636 229.695C480.201 229.695 480.695 229.615 481.119 229.456C481.544 229.293 481.875 229.06 482.114 228.757C482.348 228.45 482.466 228.079 482.466 227.643C482.466 227.189 482.345 226.808 482.102 226.501C481.856 226.195 481.521 225.964 481.097 225.808C480.669 225.649 480.182 225.57 479.636 225.57C479.095 225.57 478.614 225.647 478.193 225.803C477.773 225.958 477.443 226.189 477.205 226.496C476.966 226.803 476.847 227.185 476.847 227.643C476.847 228.083 476.962 228.456 477.193 228.763C477.424 229.07 477.748 229.303 478.165 229.462C478.581 229.617 479.072 229.695 479.636 229.695ZM484.17 217.918C484.17 218.77 483.983 219.509 483.608 220.134C483.233 220.759 482.708 221.243 482.034 221.588C481.36 221.929 480.572 222.099 479.67 222.099C478.769 222.099 477.979 221.929 477.301 221.588C476.623 221.243 476.097 220.759 475.722 220.134C475.347 219.509 475.159 218.77 475.159 217.918C475.159 217.065 475.347 216.327 475.722 215.702C476.097 215.077 476.623 214.594 477.301 214.253C477.979 213.908 478.769 213.736 479.67 213.736C480.572 213.736 481.36 213.908 482.034 214.253C482.708 214.594 483.233 215.077 483.608 215.702C483.983 216.327 484.17 217.065 484.17 217.918ZM482.523 217.906C482.523 217.444 482.396 217.058 482.142 216.747C481.884 216.437 481.54 216.205 481.108 216.054C480.676 215.899 480.195 215.821 479.665 215.821C479.131 215.821 478.648 215.899 478.216 216.054C477.78 216.205 477.434 216.437 477.176 216.747C476.919 217.058 476.79 217.444 476.79 217.906C476.79 218.38 476.919 218.774 477.176 219.088C477.434 219.399 477.78 219.632 478.216 219.787C478.648 219.938 479.131 220.014 479.665 220.014C480.195 220.014 480.676 219.938 481.108 219.787C481.54 219.632 481.884 219.399 482.142 219.088C482.396 218.774 482.523 218.38 482.523 217.906ZM472.364 209.933H484V211.99H472.364V209.933ZM484 207.818H475.273V205.761H484V207.818ZM474.034 206.784C474.034 207.11 473.926 207.39 473.71 207.625C473.491 207.86 473.227 207.977 472.92 207.977C472.61 207.977 472.347 207.86 472.131 207.625C471.911 207.39 471.801 207.11 471.801 206.784C471.801 206.455 471.911 206.174 472.131 205.943C472.347 205.708 472.61 205.591 472.92 205.591C473.227 205.591 473.491 205.708 473.71 205.943C473.926 206.174 474.034 206.455 474.034 206.784ZM484.17 199.839C484.17 200.711 483.979 201.459 483.597 202.084C483.214 202.705 482.686 203.184 482.011 203.521C481.333 203.855 480.553 204.021 479.67 204.021C478.784 204.021 478.002 203.851 477.324 203.51C476.642 203.169 476.112 202.688 475.733 202.067C475.35 201.442 475.159 200.703 475.159 199.851C475.159 199.143 475.29 198.516 475.551 197.97C475.809 197.421 476.174 196.983 476.648 196.658C477.117 196.332 477.667 196.146 478.295 196.101V198.067C477.875 198.146 477.525 198.336 477.244 198.635C476.96 198.93 476.818 199.326 476.818 199.822C476.818 200.243 476.932 200.612 477.159 200.93C477.383 201.249 477.705 201.497 478.125 201.675C478.545 201.849 479.049 201.936 479.636 201.936C480.231 201.936 480.742 201.849 481.17 201.675C481.595 201.5 481.922 201.256 482.153 200.942C482.381 200.624 482.494 200.25 482.494 199.822C482.494 199.519 482.437 199.249 482.324 199.01C482.206 198.768 482.038 198.565 481.818 198.402C481.598 198.239 481.331 198.127 481.017 198.067V196.101C481.634 196.15 482.182 196.332 482.659 196.646C483.133 196.961 483.504 197.389 483.773 197.93C484.038 198.472 484.17 199.108 484.17 199.839ZM475.273 186.085H476.864V191.102H475.273V186.085ZM473.182 189.864V187.807H481.375C481.652 187.807 481.864 187.765 482.011 187.682C482.155 187.595 482.254 187.481 482.307 187.341C482.36 187.201 482.386 187.045 482.386 186.875C482.386 186.746 482.377 186.629 482.358 186.523C482.339 186.413 482.322 186.33 482.307 186.273L483.915 185.926C483.953 186.036 483.994 186.193 484.04 186.398C484.085 186.598 484.112 186.845 484.119 187.136C484.134 187.652 484.057 188.116 483.886 188.528C483.712 188.941 483.443 189.269 483.08 189.511C482.716 189.75 482.261 189.867 481.716 189.864H473.182ZM484.17 180.652C484.17 181.504 483.983 182.243 483.608 182.868C483.233 183.493 482.708 183.978 482.034 184.322C481.36 184.663 480.572 184.834 479.67 184.834C478.769 184.834 477.979 184.663 477.301 184.322C476.623 183.978 476.097 183.493 475.722 182.868C475.347 182.243 475.159 181.504 475.159 180.652C475.159 179.8 475.347 179.061 475.722 178.436C476.097 177.811 476.623 177.328 477.301 176.987C477.979 176.643 478.769 176.47 479.67 176.47C480.572 176.47 481.36 176.643 482.034 176.987C482.708 177.328 483.233 177.811 483.608 178.436C483.983 179.061 484.17 179.8 484.17 180.652ZM482.523 180.641C482.523 180.179 482.396 179.792 482.142 179.482C481.884 179.171 481.54 178.94 481.108 178.788C480.676 178.633 480.195 178.555 479.665 178.555C479.131 178.555 478.648 178.633 478.216 178.788C477.78 178.94 477.434 179.171 477.176 179.482C476.919 179.792 476.79 180.179 476.79 180.641C476.79 181.114 476.919 181.508 477.176 181.822C477.434 182.133 477.78 182.366 478.216 182.521C478.648 182.673 479.131 182.749 479.665 182.749C480.195 182.749 480.676 182.673 481.108 182.521C481.54 182.366 481.884 182.133 482.142 181.822C482.396 181.508 482.523 181.114 482.523 180.641ZM474.131 171.176H472.364V161.892H474.131V165.489H484V167.58H474.131V171.176ZM484.17 157.595C484.17 158.47 483.989 159.226 483.625 159.862C483.258 160.495 482.739 160.982 482.068 161.322C481.394 161.663 480.6 161.834 479.688 161.834C478.79 161.834 478.002 161.663 477.324 161.322C476.642 160.978 476.112 160.497 475.733 159.879C475.35 159.262 475.159 158.536 475.159 157.703C475.159 157.165 475.246 156.658 475.42 156.18C475.591 155.699 475.856 155.275 476.216 154.908C476.576 154.536 477.034 154.245 477.591 154.033C478.144 153.821 478.803 153.714 479.568 153.714H480.199V160.868H478.812V155.686C478.419 155.69 478.068 155.775 477.761 155.942C477.451 156.108 477.206 156.341 477.028 156.641C476.85 156.936 476.761 157.281 476.761 157.675C476.761 158.095 476.864 158.464 477.068 158.783C477.269 159.101 477.534 159.349 477.864 159.527C478.189 159.701 478.547 159.79 478.938 159.794H480.148C480.655 159.794 481.091 159.701 481.455 159.516C481.814 159.33 482.091 159.071 482.284 158.737C482.473 158.404 482.568 158.014 482.568 157.567C482.568 157.268 482.527 156.997 482.443 156.754C482.356 156.512 482.229 156.302 482.062 156.124C481.896 155.946 481.689 155.811 481.443 155.72L481.659 153.8C482.167 153.921 482.61 154.152 482.989 154.493C483.364 154.83 483.655 155.262 483.864 155.788C484.068 156.315 484.17 156.917 484.17 157.595ZM475.273 150.48L478.494 148.719L475.273 146.929V144.753L479.636 147.384L484 144.707V146.872L480.858 148.719L484 150.548V152.73L479.636 150.071L475.273 152.662V150.48ZM475.273 138.804H476.864V143.821H475.273V138.804ZM473.182 142.582V140.526H481.375C481.652 140.526 481.864 140.484 482.011 140.401C482.155 140.313 482.254 140.2 482.307 140.06C482.36 139.92 482.386 139.764 482.386 139.594C482.386 139.465 482.377 139.348 482.358 139.241C482.339 139.132 482.322 139.048 482.307 138.991L483.915 138.645C483.953 138.755 483.994 138.912 484.04 139.116C484.085 139.317 484.112 139.563 484.119 139.855C484.134 140.37 484.057 140.834 483.886 141.247C483.712 141.66 483.443 141.988 483.08 142.23C482.716 142.469 482.261 142.586 481.716 142.582H473.182ZM491.364 218.251H503V220.126L495.074 225.609V225.705H503V227.813H491.364V225.927L499.295 220.45V220.347H491.364V218.251ZM503.17 212.181C503.17 213.056 502.989 213.812 502.625 214.448C502.258 215.081 501.739 215.567 501.068 215.908C500.394 216.249 499.6 216.42 498.688 216.42C497.79 216.42 497.002 216.249 496.324 215.908C495.642 215.564 495.112 215.083 494.733 214.465C494.35 213.848 494.159 213.122 494.159 212.289C494.159 211.751 494.246 211.244 494.42 210.766C494.591 210.285 494.856 209.861 495.216 209.494C495.576 209.122 496.034 208.831 496.591 208.619C497.144 208.406 497.803 208.3 498.568 208.3H499.199V215.454H497.812V210.272C497.419 210.276 497.068 210.361 496.761 210.528C496.451 210.694 496.206 210.927 496.028 211.227C495.85 211.522 495.761 211.867 495.761 212.261C495.761 212.681 495.864 213.05 496.068 213.369C496.269 213.687 496.534 213.935 496.864 214.113C497.189 214.287 497.547 214.376 497.938 214.38H499.148C499.655 214.38 500.091 214.287 500.455 214.102C500.814 213.916 501.091 213.656 501.284 213.323C501.473 212.99 501.568 212.6 501.568 212.153C501.568 211.853 501.527 211.583 501.443 211.34C501.356 211.098 501.229 210.888 501.062 210.71C500.896 210.531 500.689 210.397 500.443 210.306L500.659 208.386C501.167 208.507 501.61 208.738 501.989 209.079C502.364 209.416 502.655 209.848 502.864 210.374C503.068 210.901 503.17 211.503 503.17 212.181ZM499.33 200.998H494.273V198.941H503V200.935H501.449V201.026C501.937 201.223 502.337 201.547 502.648 201.998C502.958 202.445 503.114 202.996 503.114 203.651C503.114 204.223 502.987 204.729 502.733 205.168C502.475 205.604 502.102 205.945 501.614 206.191C501.121 206.437 500.527 206.56 499.83 206.56H494.273V204.504H499.511C500.064 204.504 500.504 204.352 500.83 204.049C501.155 203.746 501.318 203.348 501.318 202.856C501.318 202.553 501.244 202.259 501.097 201.975C500.949 201.691 500.729 201.458 500.438 201.276C500.142 201.091 499.773 200.998 499.33 200.998ZM503 196.826H494.273V194.832H495.727V194.741C495.223 194.582 494.835 194.309 494.562 193.923C494.286 193.532 494.148 193.087 494.148 192.587C494.148 192.474 494.153 192.347 494.165 192.207C494.172 192.063 494.186 191.943 494.205 191.849H496.097C496.066 191.936 496.04 192.074 496.017 192.263C495.991 192.449 495.977 192.629 495.977 192.803C495.977 193.178 496.059 193.515 496.222 193.815C496.381 194.11 496.602 194.343 496.886 194.513C497.17 194.684 497.498 194.769 497.869 194.769H503V196.826ZM503.176 188.127C503.176 188.68 503.078 189.178 502.881 189.621C502.68 190.061 502.384 190.409 501.994 190.667C501.604 190.921 501.123 191.048 500.551 191.048C500.059 191.048 499.652 190.957 499.33 190.775C499.008 190.593 498.75 190.345 498.557 190.031C498.364 189.716 498.218 189.362 498.119 188.968C498.017 188.57 497.943 188.159 497.898 187.735C497.845 187.224 497.797 186.809 497.756 186.491C497.71 186.173 497.642 185.942 497.551 185.798C497.456 185.65 497.311 185.576 497.114 185.576H497.08C496.652 185.576 496.32 185.703 496.085 185.957C495.85 186.21 495.733 186.576 495.733 187.053C495.733 187.557 495.843 187.957 496.062 188.252C496.282 188.544 496.542 188.741 496.841 188.843L496.568 190.763C496.038 190.612 495.595 190.362 495.239 190.013C494.879 189.665 494.61 189.239 494.432 188.735C494.25 188.231 494.159 187.674 494.159 187.065C494.159 186.644 494.208 186.226 494.307 185.809C494.405 185.392 494.568 185.012 494.795 184.667C495.019 184.322 495.324 184.046 495.71 183.837C496.097 183.625 496.58 183.519 497.159 183.519H503V185.496H501.801V185.565C502.044 185.69 502.271 185.866 502.483 186.093C502.691 186.317 502.86 186.599 502.989 186.94C503.114 187.277 503.176 187.673 503.176 188.127ZM501.665 187.593C501.665 187.18 501.583 186.822 501.42 186.519C501.254 186.216 501.034 185.983 500.761 185.82C500.489 185.654 500.191 185.57 499.869 185.57H498.841C498.894 185.635 498.943 185.745 498.989 185.9C499.034 186.051 499.074 186.222 499.108 186.411C499.142 186.601 499.172 186.788 499.199 186.974C499.225 187.159 499.248 187.32 499.267 187.457C499.309 187.763 499.377 188.038 499.472 188.281C499.566 188.523 499.699 188.714 499.869 188.854C500.036 188.995 500.252 189.065 500.517 189.065C500.896 189.065 501.182 188.926 501.375 188.65C501.568 188.373 501.665 188.021 501.665 187.593ZM491.364 179.394H503V181.451H491.364V179.394ZM498.256 173.609C499.672 173.609 500.977 173.798 502.17 174.177C503.36 174.552 504.46 175.112 505.472 175.859V177.796C505.097 177.504 504.638 177.236 504.097 176.989C503.555 176.739 502.96 176.523 502.312 176.342C501.665 176.156 500.994 176.012 500.301 175.91C499.608 175.804 498.926 175.751 498.256 175.751C497.358 175.751 496.449 175.842 495.528 176.023C494.608 176.201 493.754 176.446 492.966 176.756C492.178 177.063 491.534 177.41 491.034 177.796V175.859C492.045 175.112 493.148 174.552 494.341 174.177C495.53 173.798 496.835 173.609 498.256 173.609Z" fill="black"/>
<path d="M74.1307 276.207H72.3636V266.923H74.1307V270.52H84V272.611H74.1307V276.207ZM84.1705 262.626C84.1705 263.501 83.9886 264.257 83.625 264.893C83.2576 265.526 82.7386 266.013 82.0682 266.354C81.3939 266.695 80.6004 266.865 79.6875 266.865C78.7898 266.865 78.0019 266.695 77.3239 266.354C76.642 266.009 76.1117 265.528 75.733 264.911C75.3504 264.293 75.1591 263.568 75.1591 262.734C75.1591 262.196 75.2462 261.689 75.4205 261.212C75.5909 260.731 75.8561 260.306 76.2159 259.939C76.5758 259.568 77.0341 259.276 77.5909 259.064C78.1439 258.852 78.803 258.746 79.5682 258.746H80.1989V265.899H78.8125V260.717C78.4186 260.721 78.0682 260.806 77.7614 260.973C77.4508 261.14 77.2064 261.373 77.0284 261.672C76.8504 261.967 76.7614 262.312 76.7614 262.706C76.7614 263.126 76.8636 263.496 77.0682 263.814C77.2689 264.132 77.5341 264.38 77.8636 264.558C78.1894 264.732 78.5473 264.821 78.9375 264.825H80.1477C80.6553 264.825 81.0909 264.732 81.4545 264.547C81.8144 264.361 82.0909 264.102 82.2841 263.768C82.4735 263.435 82.5682 263.045 82.5682 262.598C82.5682 262.299 82.5265 262.028 82.4432 261.786C82.3561 261.543 82.2292 261.333 82.0625 261.155C81.8958 260.977 81.6894 260.842 81.4432 260.751L81.6591 258.831C82.1667 258.952 82.6098 259.183 82.9886 259.524C83.3636 259.861 83.6553 260.293 83.8636 260.82C84.0682 261.346 84.1705 261.948 84.1705 262.626ZM75.2727 255.511L78.4943 253.75L75.2727 251.96V249.784L79.6364 252.415L84 249.739V251.903L80.858 253.75L84 255.58V257.761L79.6364 255.102L75.2727 257.693V255.511ZM75.2727 243.835H76.8636V248.852H75.2727V243.835ZM73.1818 247.614V245.557H81.375C81.6515 245.557 81.8636 245.515 82.0114 245.432C82.1553 245.345 82.2538 245.231 82.3068 245.091C82.3598 244.951 82.3864 244.795 82.3864 244.625C82.3864 244.496 82.3769 244.379 82.358 244.273C82.339 244.163 82.322 244.08 82.3068 244.023L83.9148 243.676C83.9527 243.786 83.9943 243.943 84.0398 244.148C84.0852 244.348 84.1117 244.595 84.1193 244.886C84.1345 245.402 84.0568 245.866 83.8864 246.278C83.7121 246.691 83.4432 247.019 83.0795 247.261C82.7159 247.5 82.2614 247.617 81.7159 247.614H73.1818ZM75.2727 233.788H76.8636V238.805H75.2727V233.788ZM73.1818 237.567V235.51H81.375C81.6515 235.51 81.8636 235.468 82.0114 235.385C82.1553 235.298 82.2538 235.184 82.3068 235.044C82.3598 234.904 82.3864 234.749 82.3864 234.578C82.3864 234.449 82.3769 234.332 82.358 234.226C82.339 234.116 82.322 234.033 82.3068 233.976L83.9148 233.629C83.9527 233.739 83.9943 233.896 84.0398 234.101C84.0852 234.302 84.1117 234.548 84.1193 234.839C84.1345 235.355 84.0568 235.819 83.8864 236.232C83.7121 236.644 83.4432 236.972 83.0795 237.214C82.7159 237.453 82.2614 237.571 81.7159 237.567H73.1818ZM84.1705 228.355C84.1705 229.207 83.983 229.946 83.608 230.571C83.233 231.196 82.7083 231.681 82.0341 232.026C81.3598 232.366 80.572 232.537 79.6705 232.537C78.7689 232.537 77.9792 232.366 77.3011 232.026C76.6231 231.681 76.0966 231.196 75.7216 230.571C75.3466 229.946 75.1591 229.207 75.1591 228.355C75.1591 227.503 75.3466 226.764 75.7216 226.139C76.0966 225.514 76.6231 225.031 77.3011 224.69C77.9792 224.346 78.7689 224.173 79.6705 224.173C80.572 224.173 81.3598 224.346 82.0341 224.69C82.7083 225.031 83.233 225.514 83.608 226.139C83.983 226.764 84.1705 227.503 84.1705 228.355ZM82.5227 228.344C82.5227 227.882 82.3958 227.495 82.142 227.185C81.8845 226.874 81.5398 226.643 81.108 226.491C80.6761 226.336 80.1951 226.259 79.6648 226.259C79.1307 226.259 78.6477 226.336 78.2159 226.491C77.7803 226.643 77.4337 226.874 77.1761 227.185C76.9186 227.495 76.7898 227.882 76.7898 228.344C76.7898 228.817 76.9186 229.211 77.1761 229.526C77.4337 229.836 77.7803 230.069 78.2159 230.224C78.6477 230.376 79.1307 230.452 79.6648 230.452C80.1951 230.452 80.6761 230.376 81.108 230.224C81.5398 230.069 81.8845 229.836 82.142 229.526C82.3958 229.211 82.5227 228.817 82.5227 228.344ZM75.5625 212.044C75.0663 212.097 74.6799 212.321 74.4034 212.714C74.1269 213.105 73.9886 213.612 73.9886 214.237C73.9886 214.677 74.0549 215.054 74.1875 215.368C74.3201 215.682 74.5 215.923 74.7273 216.089C74.9545 216.256 75.214 216.341 75.5057 216.345C75.7481 216.345 75.9583 216.29 76.1364 216.18C76.3144 216.067 76.4659 215.913 76.5909 215.72C76.7121 215.527 76.8144 215.313 76.8977 215.078C76.9811 214.843 77.0511 214.607 77.108 214.368L77.3807 213.277C77.483 212.838 77.6212 212.415 77.7955 212.01C77.9697 211.601 78.1894 211.235 78.4545 210.913C78.7197 210.588 79.0398 210.33 79.4148 210.141C79.7898 209.951 80.2292 209.857 80.733 209.857C81.4148 209.857 82.0152 210.031 82.5341 210.379C83.0492 210.728 83.4527 211.232 83.7443 211.891C84.0322 212.546 84.1761 213.339 84.1761 214.271C84.1761 215.177 84.036 215.963 83.7557 216.629C83.4754 217.292 83.0663 217.811 82.5284 218.186C81.9905 218.557 81.3352 218.758 80.5625 218.788V216.714C80.9678 216.684 81.3049 216.559 81.5739 216.339C81.8428 216.12 82.0436 215.834 82.1761 215.482C82.3087 215.125 82.375 214.728 82.375 214.288C82.375 213.83 82.3068 213.429 82.1705 213.084C82.0303 212.735 81.8371 212.463 81.5909 212.266C81.3409 212.069 81.0492 211.968 80.7159 211.964C80.4129 211.968 80.1629 212.057 79.9659 212.232C79.7652 212.406 79.5985 212.65 79.4659 212.964C79.3295 213.275 79.2083 213.639 79.1023 214.055L78.7614 215.379C78.5152 216.338 78.142 217.095 77.642 217.652C77.1383 218.205 76.4697 218.482 75.6364 218.482C74.9508 218.482 74.3504 218.296 73.8352 217.925C73.3201 217.55 72.9205 217.04 72.6364 216.396C72.3485 215.752 72.2045 215.023 72.2045 214.209C72.2045 213.383 72.3485 212.66 72.6364 212.038C72.9205 211.413 73.3163 210.923 73.8239 210.567C74.3277 210.211 74.9072 210.027 75.5625 210.016V212.044ZM87.2727 206.79C87.2727 207.07 87.25 207.33 87.2045 207.568C87.1629 207.803 87.1136 207.991 87.0568 208.131L85.4545 207.653C85.5417 207.354 85.5833 207.087 85.5795 206.852C85.5758 206.617 85.5019 206.411 85.358 206.233C85.2178 206.051 84.983 205.898 84.6534 205.773L84.1818 205.597L75.2727 208.761V206.58L81.8636 204.568V204.477L75.2727 202.46V200.273L85.0568 203.767C85.5189 203.93 85.9148 204.146 86.2443 204.415C86.5777 204.684 86.8314 205.013 87.0057 205.403C87.1837 205.79 87.2727 206.252 87.2727 206.79ZM84 198.849H75.2727V196.884H76.7557V196.781C76.2557 196.599 75.8655 196.298 75.5852 195.878C75.3011 195.457 75.1591 194.955 75.1591 194.372C75.1591 193.781 75.303 193.283 75.5909 192.878C75.875 192.469 76.2633 192.181 76.7557 192.014V191.923C76.2708 191.73 75.8845 191.404 75.5966 190.946C75.3049 190.484 75.1591 189.937 75.1591 189.304C75.1591 188.501 75.4129 187.846 75.9205 187.338C76.428 186.83 77.1686 186.577 78.142 186.577H84V188.639H78.4602C77.9186 188.639 77.5227 188.783 77.2727 189.071C77.0189 189.359 76.892 189.711 76.892 190.128C76.892 190.624 77.0473 191.012 77.358 191.293C77.6648 191.569 78.0644 191.707 78.5568 191.707H84V193.724H78.375C77.9242 193.724 77.5644 193.861 77.2955 194.134C77.0265 194.402 76.892 194.755 76.892 195.19C76.892 195.486 76.9678 195.755 77.1193 195.997C77.267 196.24 77.4773 196.433 77.75 196.577C78.0189 196.721 78.3333 196.793 78.6932 196.793H84V198.849ZM84 184.399H72.3636V182.342H76.7159V182.257C76.5038 182.151 76.2784 182.001 76.0398 181.808C75.7973 181.615 75.5909 181.354 75.4205 181.024C75.2462 180.695 75.1591 180.274 75.1591 179.763C75.1591 179.089 75.3314 178.481 75.6761 177.939C76.017 177.393 76.5227 176.962 77.1932 176.643C77.8598 176.321 78.678 176.161 79.6477 176.161C80.6061 176.161 81.4205 176.318 82.0909 176.632C82.7614 176.946 83.2727 177.375 83.625 177.916C83.9773 178.458 84.1534 179.071 84.1534 179.757C84.1534 180.257 84.0701 180.672 83.9034 181.001C83.7367 181.331 83.536 181.596 83.3011 181.797C83.0625 181.994 82.8371 182.147 82.625 182.257V182.376H84V184.399ZM79.6364 182.382C80.2008 182.382 80.6951 182.303 81.1193 182.143C81.5436 181.981 81.875 181.748 82.1136 181.445C82.3485 181.138 82.4659 180.767 82.4659 180.331C82.4659 179.876 82.3447 179.496 82.1023 179.189C81.8561 178.882 81.5208 178.651 81.0966 178.496C80.6686 178.337 80.1818 178.257 79.6364 178.257C79.0947 178.257 78.6136 178.335 78.1932 178.49C77.7727 178.645 77.4432 178.876 77.2045 179.183C76.9659 179.49 76.8466 179.873 76.8466 180.331C76.8466 180.77 76.9621 181.143 77.1932 181.45C77.4242 181.757 77.7481 181.99 78.1648 182.149C78.5814 182.304 79.072 182.382 79.6364 182.382ZM84.1705 170.605C84.1705 171.457 83.983 172.196 83.608 172.821C83.233 173.446 82.7083 173.931 82.0341 174.276C81.3598 174.616 80.572 174.787 79.6705 174.787C78.7689 174.787 77.9792 174.616 77.3011 174.276C76.6231 173.931 76.0966 173.446 75.7216 172.821C75.3466 172.196 75.1591 171.457 75.1591 170.605C75.1591 169.753 75.3466 169.014 75.7216 168.389C76.0966 167.764 76.6231 167.281 77.3011 166.94C77.9792 166.596 78.7689 166.423 79.6705 166.423C80.572 166.423 81.3598 166.596 82.0341 166.94C82.7083 167.281 83.233 167.764 83.608 168.389C83.983 169.014 84.1705 169.753 84.1705 170.605ZM82.5227 170.594C82.5227 170.132 82.3958 169.745 82.142 169.435C81.8845 169.124 81.5398 168.893 81.108 168.741C80.6761 168.586 80.1951 168.509 79.6648 168.509C79.1307 168.509 78.6477 168.586 78.2159 168.741C77.7803 168.893 77.4337 169.124 77.1761 169.435C76.9186 169.745 76.7898 170.132 76.7898 170.594C76.7898 171.067 76.9186 171.461 77.1761 171.776C77.4337 172.086 77.7803 172.319 78.2159 172.474C78.6477 172.626 79.1307 172.702 79.6648 172.702C80.1951 172.702 80.6761 172.626 81.108 172.474C81.5398 172.319 81.8845 172.086 82.142 171.776C82.3958 171.461 82.5227 171.067 82.5227 170.594ZM72.3636 162.621H84V164.678H72.3636V162.621ZM84 160.506H75.2727V158.449H84V160.506ZM74.0341 159.472C74.0341 159.797 73.9261 160.078 73.7102 160.312C73.4905 160.547 73.2273 160.665 72.9205 160.665C72.6098 160.665 72.3466 160.547 72.1307 160.312C71.911 160.078 71.8011 159.797 71.8011 159.472C71.8011 159.142 71.911 158.862 72.1307 158.631C72.3466 158.396 72.6098 158.278 72.9205 158.278C73.2273 158.278 73.4905 158.396 73.7102 158.631C73.9261 158.862 74.0341 159.142 74.0341 159.472ZM84.1705 152.527C84.1705 153.398 83.9792 154.146 83.5966 154.771C83.214 155.393 82.6856 155.872 82.0114 156.209C81.3333 156.542 80.553 156.709 79.6705 156.709C78.7841 156.709 78.0019 156.538 77.3239 156.197C76.642 155.857 76.1117 155.375 75.733 154.754C75.3504 154.129 75.1591 153.391 75.1591 152.538C75.1591 151.83 75.2898 151.203 75.5511 150.658C75.8087 150.108 76.1742 149.671 76.6477 149.345C77.1174 149.019 77.6667 148.834 78.2955 148.788V150.754C77.875 150.834 77.5246 151.023 77.2443 151.322C76.9602 151.618 76.8182 152.014 76.8182 152.51C76.8182 152.93 76.9318 153.3 77.1591 153.618C77.3826 153.936 77.7045 154.184 78.125 154.362C78.5455 154.536 79.0492 154.624 79.6364 154.624C80.2311 154.624 80.7424 154.536 81.1705 154.362C81.5947 154.188 81.9223 153.944 82.1534 153.629C82.3807 153.311 82.4943 152.938 82.4943 152.51C82.4943 152.207 82.4375 151.936 82.3239 151.697C82.2064 151.455 82.0379 151.252 81.8182 151.089C81.5985 150.927 81.3314 150.815 81.017 150.754V148.788C81.6345 148.838 82.1818 149.019 82.6591 149.334C83.1326 149.648 83.5038 150.076 83.7727 150.618C84.0379 151.16 84.1705 151.796 84.1705 152.527ZM97.1818 242.541C95.7614 242.541 94.4564 242.354 93.267 241.979C92.0739 241.6 90.9716 241.037 89.9602 240.291V238.354C90.3352 238.642 90.7955 238.911 91.3409 239.161C91.8826 239.411 92.4773 239.628 93.125 239.814C93.7689 239.996 94.4375 240.14 95.1307 240.246C95.8239 240.348 96.5076 240.399 97.1818 240.399C98.0795 240.399 98.9886 240.31 99.9091 240.132C100.83 239.95 101.684 239.706 102.472 239.399C103.256 239.089 103.898 238.74 104.398 238.354V240.291C103.386 241.037 102.286 241.6 101.097 241.979C99.9034 242.354 98.5985 242.541 97.1818 242.541ZM91.3636 227.102H103V228.977L95.0739 234.46V234.557H103V236.665H91.3636V234.778L99.2955 229.301V229.199H91.3636V227.102ZM103.17 221.033C103.17 221.908 102.989 222.663 102.625 223.3C102.258 223.932 101.739 224.419 101.068 224.76C100.394 225.101 99.6004 225.271 98.6875 225.271C97.7898 225.271 97.0019 225.101 96.3239 224.76C95.642 224.415 95.1117 223.934 94.733 223.317C94.3504 222.699 94.1591 221.974 94.1591 221.141C94.1591 220.603 94.2462 220.095 94.4205 219.618C94.5909 219.137 94.8561 218.713 95.2159 218.345C95.5758 217.974 96.0341 217.682 96.5909 217.47C97.1439 217.258 97.803 217.152 98.5682 217.152H99.1989V224.305H97.8125V219.124C97.4186 219.127 97.0682 219.213 96.7614 219.379C96.4508 219.546 96.2064 219.779 96.0284 220.078C95.8504 220.374 95.7614 220.718 95.7614 221.112C95.7614 221.533 95.8636 221.902 96.0682 222.22C96.2689 222.538 96.5341 222.786 96.8636 222.964C97.1894 223.139 97.5473 223.228 97.9375 223.232H99.1477C99.6553 223.232 100.091 223.139 100.455 222.953C100.814 222.768 101.091 222.508 101.284 222.175C101.473 221.841 101.568 221.451 101.568 221.004C101.568 220.705 101.527 220.434 101.443 220.192C101.356 219.949 101.229 219.739 101.062 219.561C100.896 219.383 100.689 219.249 100.443 219.158L100.659 217.237C101.167 217.358 101.61 217.589 101.989 217.93C102.364 218.268 102.655 218.699 102.864 219.226C103.068 219.752 103.17 220.355 103.17 221.033ZM99.3295 209.849H94.2727V207.793H103V209.787H101.449V209.878C101.937 210.075 102.337 210.399 102.648 210.849C102.958 211.296 103.114 211.848 103.114 212.503C103.114 213.075 102.987 213.58 102.733 214.02C102.475 214.455 102.102 214.796 101.614 215.043C101.121 215.289 100.527 215.412 99.8295 215.412H94.2727V213.355H99.5114C100.064 213.355 100.504 213.204 100.83 212.901C101.155 212.598 101.318 212.2 101.318 211.707C101.318 211.404 101.244 211.111 101.097 210.827C100.949 210.543 100.729 210.31 100.438 210.128C100.142 209.942 99.7727 209.849 99.3295 209.849ZM103 205.678H94.2727V203.683H95.7273V203.592C95.2235 203.433 94.8352 203.161 94.5625 202.774C94.286 202.384 94.1477 201.939 94.1477 201.439C94.1477 201.325 94.1534 201.198 94.1648 201.058C94.1723 200.914 94.1856 200.795 94.2045 200.7H96.0966C96.0663 200.787 96.0398 200.926 96.017 201.115C95.9905 201.301 95.9773 201.481 95.9773 201.655C95.9773 202.03 96.0587 202.367 96.2216 202.666C96.3807 202.962 96.6023 203.195 96.8864 203.365C97.1705 203.536 97.4981 203.621 97.8693 203.621H103V205.678ZM103.176 196.979C103.176 197.532 103.078 198.03 102.881 198.473C102.68 198.912 102.384 199.261 101.994 199.518C101.604 199.772 101.123 199.899 100.551 199.899C100.059 199.899 99.6515 199.808 99.3295 199.626C99.0076 199.445 98.75 199.196 98.5568 198.882C98.3636 198.568 98.2178 198.214 98.1193 197.82C98.017 197.422 97.9432 197.011 97.8977 196.587C97.8447 196.075 97.7973 195.661 97.7557 195.342C97.7102 195.024 97.642 194.793 97.5511 194.649C97.4564 194.501 97.3106 194.428 97.1136 194.428H97.0795C96.6515 194.428 96.3201 194.554 96.0852 194.808C95.8504 195.062 95.733 195.428 95.733 195.905C95.733 196.409 95.8428 196.808 96.0625 197.104C96.2822 197.395 96.5417 197.592 96.8409 197.695L96.5682 199.615C96.0379 199.464 95.5947 199.214 95.2386 198.865C94.8788 198.517 94.6098 198.09 94.4318 197.587C94.25 197.083 94.1591 196.526 94.1591 195.916C94.1591 195.496 94.2083 195.077 94.3068 194.661C94.4053 194.244 94.5682 193.863 94.7955 193.518C95.0189 193.174 95.3239 192.897 95.7102 192.689C96.0966 192.477 96.5795 192.371 97.1591 192.371H103V194.348H101.801V194.416C102.044 194.541 102.271 194.717 102.483 194.945C102.691 195.168 102.86 195.45 102.989 195.791C103.114 196.128 103.176 196.524 103.176 196.979ZM101.665 196.445C101.665 196.032 101.583 195.674 101.42 195.371C101.254 195.068 101.034 194.835 100.761 194.672C100.489 194.505 100.191 194.422 99.8693 194.422H98.8409C98.8939 194.486 98.9432 194.596 98.9886 194.751C99.0341 194.903 99.0739 195.073 99.108 195.263C99.142 195.452 99.1723 195.64 99.1989 195.825C99.2254 196.011 99.2481 196.172 99.267 196.308C99.3087 196.615 99.3769 196.89 99.4716 197.132C99.5663 197.375 99.6989 197.566 99.8693 197.706C100.036 197.846 100.252 197.916 100.517 197.916C100.896 197.916 101.182 197.778 101.375 197.501C101.568 197.225 101.665 196.873 101.665 196.445ZM91.3636 188.246H103V190.303H91.3636V188.246ZM98.2557 182.46C99.6723 182.46 100.977 182.65 102.17 183.028C103.36 183.403 104.46 183.964 105.472 184.71V186.648C105.097 186.356 104.638 186.087 104.097 185.841C103.555 185.591 102.96 185.375 102.312 185.193C101.665 185.008 100.994 184.864 100.301 184.761C99.608 184.655 98.9261 184.602 98.2557 184.602C97.358 184.602 96.4489 184.693 95.5284 184.875C94.608 185.053 93.7538 185.297 92.9659 185.608C92.178 185.915 91.5341 186.261 91.0341 186.648V184.71C92.0455 183.964 93.1477 183.403 94.3409 183.028C95.5303 182.65 96.8352 182.46 98.2557 182.46Z" fill="black"/>
<path d="M190.768 201.768C191.744 200.791 191.744 199.209 190.768 198.232L174.858 182.322C173.882 181.346 172.299 181.346 171.322 182.322C170.346 183.299 170.346 184.882 171.322 185.858L185.464 200L171.322 214.142C170.346 215.118 170.346 216.701 171.322 217.678C172.299 218.654 173.882 218.654 174.858 217.678L190.768 201.768ZM117 200V202.5H189V200V197.5H117V200Z" fill="white"/>
<path d="M457.768 201.768C458.744 200.791 458.744 199.209 457.768 198.232L441.858 182.322C440.882 181.346 439.299 181.346 438.322 182.322C437.346 183.299 437.346 184.882 438.322 185.858L452.464 200L438.322 214.142C437.346 215.118 437.346 216.701 438.322 217.678C439.299 218.654 440.882 218.654 441.858 217.678L457.768 201.768ZM384 200V202.5H456V200V197.5H384V200Z" fill="white"/>
<path d="M289.768 238.232C288.791 237.256 287.209 237.256 286.232 238.232L270.322 254.142C269.346 255.118 269.346 256.701 270.322 257.678C271.299 258.654 272.882 258.654 273.858 257.678L288 243.536L302.142 257.678C303.118 258.654 304.701 258.654 305.678 257.678C306.654 256.701 306.654 255.118 305.678 254.142L289.768 238.232ZM288 312H290.5V240H288H285.5V312H288Z" fill="white"/>
<defs>
<filter id="filter0_d_10_589" x="171" y="50" width="233" height="208" filterUnits="userSpaceOnUse" color-interpolation-filters="sRGB">
<feFlood flood-opacity="0" result="BackgroundImageFix"/>
<feColorMatrix in="SourceAlpha" type="matrix" values="0 0 0 0 0 0 0 0 0 0 0 0 0 0 0 0 0 0 127 0" result="hardAlpha"/>
<feOffset dy="4"/>
<feGaussianBlur stdDeviation="2"/>
<feComposite in2="hardAlpha" operator="out"/>
<feColorMatrix type="matrix" values="0 0 0 0 0 0 0 0 0 0 0 0 0 0 0 0 0 0 0.25 0"/>
<feBlend mode="normal" in2="BackgroundImageFix" result="effect1_dropShadow_10_589"/>
<feBlend mode="normal" in="SourceGraphic" in2="effect1_dropShadow_10_589" result="shape"/>
</filter>
<linearGradient id="paint0_linear_10_589" x1="287.5" y1="50" x2="287.5" y2="250" gradientUnits="userSpaceOnUse">
<stop stop-color="#6D8FBB"/>
<stop offset="0.778846" stop-color="#506888"/>
<stop offset="1" stop-color="#324155"/>
</linearGradient>
<linearGradient id="paint1_linear_10_589" x1="287.5" y1="304" x2="287.5" y2="375" gradientUnits="userSpaceOnUse">
<stop stop-color="#2482FD"/>
<stop offset="1" stop-color="#164E97"/>
</linearGradient>
<linearGradient id="paint2_linear_10_589" x1="87.5" y1="50" x2="87.5" y2="375" gradientUnits="userSpaceOnUse">
<stop stop-color="#2482FD"/>
<stop offset="1" stop-color="#164E97"/>
</linearGradient>
<linearGradient id="paint3_linear_10_589" x1="487.5" y1="50" x2="487.5" y2="375" gradientUnits="userSpaceOnUse">
<stop stop-color="#2482FD"/>
<stop offset="1" stop-color="#164E97"/>
</linearGradient>
</defs>
</svg>
