<svg width="361" height="432" viewBox="0 0 361 432" fill="none" xmlns="http://www.w3.org/2000/svg">
<g clip-path="url(#clip0_2_2)">
<path d="M10 340C124.932 340 54.0683 421 169 421" stroke="white" stroke-opacity="0.4" stroke-width="2"/>
<path d="M10 340C124.932 340 54.0683 319 169 319" stroke="white" stroke-opacity="0.4" stroke-width="2"/>
<path d="M10 340C124.932 340 54.0683 113 169 113" stroke="white" stroke-opacity="0.4" stroke-width="2"/>
<path d="M10 340C125.655 340 54.3454 9.99999 170 9.99999" stroke="white" stroke-opacity="0.4" stroke-width="2"/>
<path d="M10 256C125.655 256 54.3454 10 170 10" stroke="white" stroke-opacity="0.4" stroke-width="2"/>
<path d="M10 256C124.932 256 54.0683 113 169 113" stroke="white" stroke-opacity="0.4" stroke-width="2"/>
<path d="M10 256C125.655 256 54.3454 421 170 421" stroke="white" stroke-opacity="0.4" stroke-width="2"/>
<path d="M10 256C124.932 256 54.0683 319 169 319" stroke="white" stroke-opacity="0.4" stroke-width="2"/>
<path d="M10 90C124.932 90 54.0683 113 169 113" stroke="white" stroke-opacity="0.4" stroke-width="2"/>
<path d="M10 90C125.655 90 54.3454 10 170 10" stroke="white" stroke-opacity="0.4" stroke-width="2"/>
<path d="M10 90C124.932 90 54.0683 216 169 216" stroke="white" stroke-opacity="0.4" stroke-width="2"/>
<path d="M10 173C124.932 173 54.0683 216 169 216" stroke="white" stroke-opacity="0.4" stroke-width="2"/>
<path d="M10 256C124.932 256 54.0683 216 169 216" stroke="white" stroke-opacity="0.4" stroke-width="2"/>
<path d="M10 340C124.932 340 54.0683 216 169 216" stroke="white" stroke-opacity="0.4" stroke-width="2"/>
<path d="M170 10C277.703 10 211.297 90 319 90" stroke="white" stroke-opacity="0.4" stroke-width="2"/>
<path d="M170 10C276.98 10 211.02 173 318 173" stroke="white" stroke-opacity="0.4" stroke-width="2"/>
<path d="M169 113C277.426 113 210.574 173 319 173" stroke="white" stroke-opacity="0.4" stroke-width="2"/>
<path d="M169 113C277.426 113 210.574 90 319 90" stroke="white" stroke-opacity="0.4" stroke-width="2"/>
<path d="M169 216C277.426 216 210.574 90 319 90" stroke="white" stroke-opacity="0.4" stroke-width="2"/>
<path d="M169 216C276.703 216 210.297 173 318 173" stroke="white" stroke-opacity="0.4" stroke-width="2"/>
<path d="M169 216C278.149 216 210.851 257 320 257" stroke="white" stroke-opacity="0.4" stroke-width="2"/>
<path d="M169 216C277.426 216 210.574 340 319 340" stroke="white" stroke-opacity="0.4" stroke-width="2"/>
<path d="M170 113C278.426 113 211.574 256 320 256" stroke="white" stroke-opacity="0.4" stroke-width="2"/>
<path d="M169 113C276.703 113 210.297 340 318 340" stroke="white" stroke-opacity="0.4" stroke-width="2"/>
<path d="M169 319C277.426 319 210.574 340 319 340" stroke="white" stroke-opacity="0.4" stroke-width="2"/>
<path d="M169 422C277.426 422 210.574 340 319 340" stroke="white" stroke-opacity="0.4" stroke-width="2"/>
<path d="M169 422C278.149 422 210.851 256 320 256" stroke="white" stroke-opacity="0.4" stroke-width="2"/>
<path d="M169 422C277.426 422 210.574 173 319 173" stroke="white" stroke-opacity="0.4" stroke-width="2"/>
<path d="M169 422C277.426 422 210.574 90 319 90" stroke="white" stroke-opacity="0.4" stroke-width="2"/>
<path d="M169 319C278.149 319 210.851 256 320 256" stroke="white" stroke-opacity="0.4" stroke-width="2"/>
<path d="M169 319C277.426 319 210.574 173 319 173" stroke="white" stroke-opacity="0.4" stroke-width="2"/>
<path d="M169 319C277.426 319 210.574 90 319 90" stroke="white" stroke-opacity="0.4" stroke-width="2"/>
<path d="M170 10C278.426 10 211.574 256 320 256" stroke="white" stroke-opacity="0.4" stroke-width="2"/>
<path d="M169 10C277.426 10 210.574 340 319 340" stroke="white" stroke-opacity="0.4" stroke-width="2"/>
<path d="M10 90C124.932 90 54.0683 319 169 319" stroke="white" stroke-opacity="0.4" stroke-width="2"/>
<path d="M10 90C124.932 90 54.0683 421 169 421" stroke="white" stroke-opacity="0.4" stroke-width="2"/>
<path d="M10 173C125.655 173 54.3454 10 170 10" stroke="white" stroke-opacity="0.4" stroke-width="2"/>
<path d="M10 173C125.655 173 54.3454 112 170 112" stroke="white" stroke-opacity="0.4" stroke-width="2"/>
<path d="M10 173C124.932 173 54.0683 421 169 421" stroke="white" stroke-opacity="0.4" stroke-width="2"/>
<path d="M10 173C124.932 173 54.0683 319 169 319" stroke="white" stroke-opacity="0.4" stroke-width="2"/>
<line x1="320" y1="90" x2="361" y2="90" stroke="white" stroke-opacity="0.4" stroke-width="2"/>
<line x1="320" y1="173" x2="361" y2="173" stroke="white" stroke-opacity="0.4" stroke-width="2"/>
<line x1="320" y1="256" x2="361" y2="256" stroke="white" stroke-opacity="0.4" stroke-width="2"/>
<line x1="320" y1="339" x2="361" y2="339" stroke="white" stroke-opacity="0.4" stroke-width="2"/>
<circle cx="319" cy="173" r="9.5" fill="#2482FD" stroke="#2482FD"/>
<circle cx="320" cy="256" r="9.5" fill="#2482FD" stroke="#2482FD"/>
<circle cx="319" cy="340" r="9.5" fill="#2482FD" stroke="#2482FD"/>
<circle cx="319" cy="90" r="9.5" fill="#2482FD" stroke="#2482FD"/>
<circle cx="170" cy="113" r="9.5" fill="#2482FD" stroke="#2482FD"/>
<circle cx="169" cy="216" r="9.5" fill="#2482FD" stroke="#2482FD"/>
<circle cx="169" cy="319" r="9.5" fill="#2482FD" stroke="#2482FD"/>
<circle cx="169" cy="422" r="9.5" fill="#2482FD" stroke="#2482FD"/>
<path d="M170 0.5C175.247 0.5 179.5 4.75329 179.5 10C179.5 15.2467 175.247 19.5 170 19.5C164.753 19.5 160.5 15.2467 160.5 10C160.5 4.75329 164.753 0.5 170 0.5Z" fill="#2482FD" stroke="#2482FD"/>
<circle cx="10" cy="173" r="9.5" fill="#2482FD" stroke="#2482FD"/>
<circle cx="10" cy="256" r="9.5" fill="#2482FD" stroke="#2482FD"/>
<circle cx="10" cy="340" r="9.5" fill="#2482FD" stroke="#2482FD"/>
<circle cx="10" cy="90" r="9.5" fill="#2482FD" stroke="#2482FD"/>
</g>
<defs>
<clipPath id="clip0_2_2">
<rect width="361" height="432" fill="white"/>
</clipPath>
</defs>
</svg>
