<svg width="650" height="550" viewBox="0 0 650 550" fill="none" xmlns="http://www.w3.org/2000/svg">
<path d="M10 400C124.932 400 54.0683 481 169 481" stroke="#9D5B1A" stroke-opacity="0.5" stroke-width="2"/>
<path d="M10 400C124.932 400 54.0683 379 169 379" stroke="#9D5B1A" stroke-opacity="0.5" stroke-width="2"/>
<path d="M10 400C124.932 400 54.0683 173 169 173" stroke="#9D5B1A" stroke-opacity="0.5" stroke-width="2"/>
<path d="M10 400C125.655 400 54.3454 70 170 70" stroke="#9D5B1A" stroke-opacity="0.5" stroke-width="2"/>
<path d="M10 316C125.655 316 54.3454 70 170 70" stroke="#9D5B1A" stroke-opacity="0.5" stroke-width="2"/>
<path d="M10 316C124.932 316 54.0683 173 169 173" stroke="#9D5B1A" stroke-opacity="0.5" stroke-width="2"/>
<path d="M10 316C125.655 316 54.3454 481 170 481" stroke="#9D5B1A" stroke-opacity="0.5" stroke-width="2"/>
<path d="M10 316C124.932 316 54.0683 379 169 379" stroke="#9D5B1A" stroke-opacity="0.5" stroke-width="2"/>
<path d="M10 150C124.932 150 54.0683 173 169 173" stroke="#9D5B1A" stroke-opacity="0.5" stroke-width="2"/>
<path d="M10 150C125.655 150 54.3454 70 170 70" stroke="#9D5B1A" stroke-opacity="0.5" stroke-width="2"/>
<path d="M10 150C124.932 150 54.0683 276 169 276" stroke="#9D5B1A" stroke-opacity="0.5" stroke-width="2"/>
<path d="M10 233C124.932 233 54.0683 276 169 276" stroke="#9D5B1A" stroke-opacity="0.5" stroke-width="2"/>
<path d="M10 316C124.932 316 54.0683 276 169 276" stroke="#9D5B1A" stroke-opacity="0.5" stroke-width="2"/>
<path d="M10 400C124.932 400 54.0683 276 169 276" stroke="#9D5B1A" stroke-opacity="0.5" stroke-width="2"/>
<path d="M170 70C277.703 70 211.297 150 319 150" stroke="#9D5B1A" stroke-opacity="0.5" stroke-width="2"/>
<path d="M170 70C278.426 70 211.574 40 320 40" stroke="#9D5B1A" stroke-opacity="0.5" stroke-width="2"/>
<path d="M170 173C278.426 173 211.574 40 320 40" stroke="#9D5B1A" stroke-opacity="0.5" stroke-width="2"/>
<path d="M169 276C278.149 276 210.851 40 320 40" stroke="#9D5B1A" stroke-opacity="0.5" stroke-width="2"/>
<path d="M169 379C278.149 379 210.851 40 320 40" stroke="#9D5B1A" stroke-opacity="0.5" stroke-width="2"/>
<path d="M169 482C278.149 482 210.851 40 320 40" stroke="#9D5B1A" stroke-opacity="0.5" stroke-width="2"/>
<path d="M170 70C276.98 70 211.02 233 318 233" stroke="#9D5B1A" stroke-opacity="0.5" stroke-width="2"/>
<path d="M169 173C277.426 173 210.574 233 319 233" stroke="#9D5B1A" stroke-opacity="0.5" stroke-width="2"/>
<path d="M169 173C277.426 173 210.574 150 319 150" stroke="#9D5B1A" stroke-opacity="0.5" stroke-width="2"/>
<path d="M169 276C277.426 276 210.574 150 319 150" stroke="#9D5B1A" stroke-opacity="0.5" stroke-width="2"/>
<path d="M169 276C276.703 276 210.297 233 318 233" stroke="#9D5B1A" stroke-opacity="0.5" stroke-width="2"/>
<path d="M169 276C278.149 276 210.851 317 320 317" stroke="#9D5B1A" stroke-opacity="0.5" stroke-width="2"/>
<path d="M169 276C277.426 276 210.574 400 319 400" stroke="#9D5B1A" stroke-opacity="0.5" stroke-width="2"/>
<path d="M170 173C278.426 173 211.574 316 320 316" stroke="#9D5B1A" stroke-opacity="0.5" stroke-width="2"/>
<path d="M169 173C276.703 173 210.297 400 318 400" stroke="#9D5B1A" stroke-opacity="0.5" stroke-width="2"/>
<path d="M169 379C277.426 379 210.574 400 319 400" stroke="#9D5B1A" stroke-opacity="0.5" stroke-width="2"/>
<path d="M169 482C277.426 482 210.574 400 319 400" stroke="#9D5B1A" stroke-opacity="0.5" stroke-width="2"/>
<path d="M169 482C278.149 482 210.851 510 320 510" stroke="#9D5B1A" stroke-opacity="0.5" stroke-width="2"/>
<path d="M169 379C278.149 379 210.851 510 320 510" stroke="#9D5B1A" stroke-opacity="0.5" stroke-width="2"/>
<path d="M169 276C278.149 276 210.851 510 320 510" stroke="#9D5B1A" stroke-opacity="0.5" stroke-width="2"/>
<path d="M170 173C278.426 173 211.574 510 320 510" stroke="#9D5B1A" stroke-opacity="0.5" stroke-width="2"/>
<path d="M170 70C278.426 70 211.574 510 320 510" stroke="#9D5B1A" stroke-opacity="0.5" stroke-width="2"/>
<path d="M169 482C278.149 482 210.851 316 320 316" stroke="#9D5B1A" stroke-opacity="0.5" stroke-width="2"/>
<path d="M169 482C277.426 482 210.574 233 319 233" stroke="#9D5B1A" stroke-opacity="0.5" stroke-width="2"/>
<path d="M169 482C277.426 482 210.574 150 319 150" stroke="#9D5B1A" stroke-opacity="0.5" stroke-width="2"/>
<path d="M169 379C278.149 379 210.851 316 320 316" stroke="#9D5B1A" stroke-opacity="0.5" stroke-width="2"/>
<path d="M169 379C277.426 379 210.574 233 319 233" stroke="#9D5B1A" stroke-opacity="0.5" stroke-width="2"/>
<path d="M169 379C277.426 379 210.574 150 319 150" stroke="#9D5B1A" stroke-opacity="0.5" stroke-width="2"/>
<path d="M170 70C278.426 70 211.574 316 320 316" stroke="#9D5B1A" stroke-opacity="0.5" stroke-width="2"/>
<path d="M169 70C277.426 70 210.574 400 319 400" stroke="#9D5B1A" stroke-opacity="0.5" stroke-width="2"/>
<path d="M10 150C124.932 150 54.0683 379 169 379" stroke="#9D5B1A" stroke-opacity="0.5" stroke-width="2"/>
<path d="M10 150C124.932 150 54.0683 481 169 481" stroke="#9D5B1A" stroke-opacity="0.5" stroke-width="2"/>
<path d="M10 233C125.655 233 54.3454 70 170 70" stroke="#9D5B1A" stroke-opacity="0.5" stroke-width="2"/>
<path d="M10 233C125.655 233 54.3454 172 170 172" stroke="#9D5B1A" stroke-opacity="0.5" stroke-width="2"/>
<path d="M10 233C124.932 233 54.0683 481 169 481" stroke="#9D5B1A" stroke-opacity="0.5" stroke-width="2"/>
<path d="M10 233C124.932 233 54.0683 379 169 379" stroke="#9D5B1A" stroke-opacity="0.5" stroke-width="2"/>
<circle cx="319" cy="233" r="9.5" fill="#AD7A7A" stroke="black"/>
<circle cx="320" cy="316" r="9.5" fill="#AD7A7A" stroke="black"/>
<circle cx="319" cy="400" r="9.5" fill="#AD7A7A" stroke="black"/>
<circle cx="319" cy="150" r="9.5" fill="#AD7A7A" stroke="black"/>
<circle cx="320" cy="40" r="9.5" fill="#AD7A7A" stroke="black"/>
<circle cx="320" cy="510" r="9.5" fill="#AD7A7A" stroke="black"/>
<circle cx="170" cy="173" r="9.5" fill="#AD7A7A" stroke="black"/>
<circle cx="169" cy="276" r="9.5" fill="#AD7A7A" stroke="black"/>
<circle cx="169" cy="379" r="9.5" fill="#AD7A7A" stroke="black"/>
<circle cx="169" cy="482" r="9.5" fill="#AD7A7A" stroke="black"/>
<path d="M170 60.5C175.247 60.5 179.5 64.7533 179.5 70C179.5 75.2467 175.247 79.5 170 79.5C164.753 79.5 160.5 75.2467 160.5 70C160.5 64.7533 164.753 60.5 170 60.5Z" fill="#AD7A7A" stroke="black"/>
<circle cx="10" cy="233" r="9.5" fill="#AD7A7A" stroke="black"/>
<circle cx="10" cy="316" r="9.5" fill="#AD7A7A" stroke="black"/>
<circle cx="10" cy="400" r="9.5" fill="#AD7A7A" stroke="black"/>
<circle cx="10" cy="150" r="9.5" fill="#AD7A7A" stroke="black"/>
<line x1="320" y1="40" x2="418" y2="40" stroke="#AD7A7A" stroke-width="2"/>
<line x1="321" y1="150" x2="419" y2="150" stroke="#AD7A7A" stroke-width="2"/>
<line x1="320" y1="233" x2="418" y2="233" stroke="#AD7A7A" stroke-width="2"/>
<line x1="321" y1="316" x2="419" y2="316" stroke="#AD7A7A" stroke-width="2"/>
<line x1="321" y1="399" x2="419" y2="399" stroke="#AD7A7A" stroke-width="2"/>
<line x1="321" y1="510" x2="419" y2="510" stroke="#AD7A7A" stroke-width="2"/>
</svg>
