<svg width="340" height="440" viewBox="0 0 340 440" fill="none" xmlns="http://www.w3.org/2000/svg">
<g clip-path="url(#clip0_3_295)">
<line x1="14.8509" y1="64.5228" x2="174.851" y2="14.5228" stroke="white" stroke-opacity="0.4"/>
<line y1="-0.5" x2="163.368" y2="-0.5" transform="matrix(0.979386 0.201998 -0.243567 0.969884 14 65)" stroke="white" stroke-opacity="0.4"/>
<line y1="-0.5" x2="195.561" y2="-0.5" transform="matrix(0.812516 0.582938 -0.657892 0.753113 15.1035 65)" stroke="white" stroke-opacity="0.4"/>
<line y1="-0.5" x2="252.322" y2="-0.5" transform="matrix(0.629767 0.776784 -0.828824 0.559509 15.0959 65)" stroke="white" stroke-opacity="0.4"/>
<line y1="-0.5" x2="318.53" y2="-0.5" transform="matrix(0.499209 0.866482 -0.904159 0.427197 15 67)" stroke="white" stroke-opacity="0.4"/>
<line x1="15.4574" y1="64.798" x2="174.457" y2="424.798" stroke="white" stroke-opacity="0.4"/>
<line x1="14.6922" y1="139.606" x2="174.692" y2="14.606" stroke="white" stroke-opacity="0.4"/>
<line y1="-0.5" x2="163.419" y2="-0.5" transform="matrix(0.966409 -0.257008 0.370267 0.928925 15.1035 140)" stroke="white" stroke-opacity="0.4"/>
<line y1="-0.5" x2="162.674" y2="-0.5" transform="matrix(0.970836 0.239743 -0.347113 0.937823 15.1035 140)" stroke="white" stroke-opacity="0.4"/>
<line y1="-0.5" x2="198.097" y2="-0.5" transform="matrix(0.791776 0.610812 -0.751895 0.659283 15.0959 140)" stroke="white" stroke-opacity="0.4"/>
<line y1="-0.5" x2="257.269" y2="-0.5" transform="matrix(0.61432 0.789057 -0.887695 0.460431 15 140)" stroke="white" stroke-opacity="0.4"/>
<line x1="15.4366" y1="139.756" x2="174.437" y2="424.756" stroke="white" stroke-opacity="0.4"/>
<line x1="15.1765" y1="364.532" x2="174.177" y2="424.532" stroke="white" stroke-opacity="0.4"/>
<line y1="-0.5" x2="161.372" y2="-0.5" transform="matrix(0.991496 -0.130134 0.192144 0.981367 15 364)" stroke="white" stroke-opacity="0.4"/>
<line y1="-0.5" x2="188.253" y2="-0.5" transform="matrix(0.837043 -0.547137 0.692672 0.721253 16.308 364)" stroke="white" stroke-opacity="0.4"/>
<line y1="-0.5" x2="242.926" y2="-0.5" transform="matrix(0.648107 -0.761549 0.86828 0.496074 16.324 364)" stroke="white" stroke-opacity="0.4"/>
<line y1="-0.5" x2="309.963" y2="-0.5" transform="matrix(0.507938 -0.861394 0.929796 0.368074 16.324 365)" stroke="white" stroke-opacity="0.4"/>
<line x1="15.651" y1="363.793" x2="174.545" y2="14.7928" stroke="white" stroke-opacity="0.4"/>
<line x1="15.3236" y1="289.619" x2="174.324" y2="424.619" stroke="white" stroke-opacity="0.4"/>
<line y1="-0.5" x2="166.206" y2="-0.5" transform="matrix(0.947795 0.318881 -0.454033 0.890985 16.2307 290)" stroke="white" stroke-opacity="0.4"/>
<line y1="-0.5" x2="161.405" y2="-0.5" transform="matrix(0.983727 -0.179672 0.262878 0.964829 15.0959 290)" stroke="white" stroke-opacity="0.4"/>
<line y1="-0.5" x2="193.62" y2="-0.5" transform="matrix(0.819355 -0.573287 0.72681 0.686838 15.1035 290)" stroke="white" stroke-opacity="0.4"/>
<line y1="-0.5" x2="249.834" y2="-0.5" transform="matrix(0.634998 -0.772514 0.878617 0.477528 15.1035 290)" stroke="white" stroke-opacity="0.4"/>
<line x1="16.7953" y1="289.751" x2="174.566" y2="14.7512" stroke="white" stroke-opacity="0.4"/>
<line x1="14.7132" y1="214.688" x2="174.609" y2="14.6878" stroke="white" stroke-opacity="0.4"/>
<line y1="-0.5" x2="195.886" y2="-0.5" transform="matrix(0.802029 -0.597285 0.741332 0.671139 15.2179 215)" stroke="white" stroke-opacity="0.4"/>
<line y1="-0.5" x2="163.553" y2="-0.5" transform="matrix(0.975475 -0.220112 0.317381 0.948298 14 215)" stroke="white" stroke-opacity="0.4"/>
<line y1="-0.5" x2="163.83" y2="-0.5" transform="matrix(0.959773 0.280778 -0.393468 0.919338 14 215)" stroke="white" stroke-opacity="0.4"/>
<line y1="-0.5" x2="201.794" y2="-0.5" transform="matrix(0.773079 0.63431 -0.773079 0.63431 16.3333 215)" stroke="white" stroke-opacity="0.4"/>
<line x1="15.5024" y1="214.698" x2="174.399" y2="424.698" stroke="white" stroke-opacity="0.4"/>
<line x1="174.815" y1="424.535" x2="325.815" y2="364.535" stroke="white" stroke-opacity="0.4"/>
<line x1="173.668" y1="424.626" x2="325.668" y2="289.626" stroke="white" stroke-opacity="0.4"/>
<line x1="173.595" y1="424.707" x2="325.595" y2="214.707" stroke="white" stroke-opacity="0.4"/>
<line x1="174.558" y1="424.766" x2="325.558" y2="139.766" stroke="white" stroke-opacity="0.4"/>
<line x1="173.539" y1="424.806" x2="325.539" y2="64.8055" stroke="white" stroke-opacity="0.4"/>
<line x1="175.157" y1="14.5253" x2="326.157" y2="64.5253" stroke="white" stroke-opacity="0.4"/>
<line x1="175.319" y1="14.6148" x2="326.319" y2="139.615" stroke="white" stroke-opacity="0.4"/>
<line x1="175.399" y1="14.6987" x2="326.399" y2="214.699" stroke="white" stroke-opacity="0.4"/>
<line x1="175.438" y1="14.7593" x2="326.438" y2="289.759" stroke="white" stroke-opacity="0.4"/>
<line x1="175.46" y1="14.8044" x2="324.24" y2="364.804" stroke="white" stroke-opacity="0.4"/>
<line y1="-0.5" x2="153.586" y2="-0.5" transform="matrix(0.978054 -0.208352 0.311936 0.950103 175.784 97)" stroke="white" stroke-opacity="0.4"/>
<line y1="-0.5" x2="156.495" y2="-0.5" transform="matrix(0.963314 0.268379 -0.396934 0.917847 175.246 98)" stroke="white" stroke-opacity="0.4"/>
<line y1="-0.5" x2="191.444" y2="-0.5" transform="matrix(0.787458 0.616368 -0.772117 0.635481 175.246 97)" stroke="white" stroke-opacity="0.4"/>
<line y1="-0.5" x2="245.668" y2="-0.5" transform="matrix(0.61872 0.785612 -0.891785 0.452459 174 97)" stroke="white" stroke-opacity="0.4"/>
<line y1="-0.5" x2="307.101" y2="-0.5" transform="matrix(0.488296 0.872678 -0.908667 0.417522 174.819 97)" stroke="white" stroke-opacity="0.4"/>
<line y1="-0.5" x2="190.169" y2="-0.5" transform="matrix(0.796434 -0.604725 0.765483 0.643456 174.543 180)" stroke="white" stroke-opacity="0.4"/>
<line y1="-0.5" x2="157.175" y2="-0.5" transform="matrix(0.967075 -0.254493 0.383518 0.923533 174 180)" stroke="white" stroke-opacity="0.4"/>
<line y1="-0.5" x2="154.754" y2="-0.5" transform="matrix(0.974089 0.226166 -0.344027 0.93896 175.256 180)" stroke="white" stroke-opacity="0.4"/>
<line y1="-0.5" x2="187.627" y2="-0.5" transform="matrix(0.810117 0.586269 -0.752331 0.658785 174 180)" stroke="white" stroke-opacity="0.4"/>
<line y1="-0.5" x2="237.841" y2="-0.5" transform="matrix(0.628475 0.77783 -0.883774 0.467913 175.287 180)" stroke="white" stroke-opacity="0.4"/>
<line y1="-0.5" x2="153.76" y2="-0.5" transform="matrix(0.982053 0.188606 -0.290942 0.956741 175 261)" stroke="white" stroke-opacity="0.4"/>
<line y1="-0.5" x2="181.291" y2="-0.5" transform="matrix(0.819091 0.573663 -0.731381 0.681969 176.269 261)" stroke="white" stroke-opacity="0.4"/>
<line y1="-0.5" x2="150.115" y2="-0.5" transform="matrix(0.989203 0.146555 -0.217776 0.975999 177.506 343)" stroke="white" stroke-opacity="0.4"/>
<line y1="-0.5" x2="158.854" y2="-0.5" transform="matrix(0.942701 -0.333639 0.482706 0.875783 176.248 343)" stroke="white" stroke-opacity="0.4"/>
<line y1="-0.5" x2="197.952" y2="-0.5" transform="matrix(0.762811 -0.646621 0.79712 0.60382 175 343)" stroke="white" stroke-opacity="0.4"/>
<line y1="-0.5" x2="249.105" y2="-0.5" transform="matrix(0.59615 -0.802873 0.902651 0.430373 177.496 340)" stroke="white" stroke-opacity="0.4"/>
<line y1="-0.5" x2="312.284" y2="-0.5" transform="matrix(0.473844 -0.880609 0.944446 0.328665 178.026 340)" stroke="white" stroke-opacity="0.4"/>
<line y1="-0.5" x2="156.944" y2="-0.5" transform="matrix(0.954106 -0.299469 0.445055 0.895503 176.258 262)" stroke="white" stroke-opacity="0.4"/>
<line y1="-0.5" x2="192.519" y2="-0.5" transform="matrix(0.777802 -0.628509 0.787903 0.615799 176.258 261)" stroke="white" stroke-opacity="0.4"/>
<line y1="-0.5" x2="246.33" y2="-0.5" transform="matrix(0.605718 -0.795679 0.900033 0.435821 176.793 261)" stroke="white" stroke-opacity="0.4"/>
<circle cx="325" cy="140" r="14.5" fill="#2482FD" stroke="#2482FD"/>
<circle cx="325" cy="215" r="14.5" fill="#2482FD" stroke="#2482FD"/>
<circle cx="325" cy="365" r="14.5" fill="#2482FD" stroke="#2482FD"/>
<circle cx="325" cy="290" r="14.5" fill="#2482FD" stroke="#2482FD"/>
<circle cx="325" cy="65" r="14.5" fill="#2482FD" stroke="#2482FD"/>
<circle cx="174" cy="97" r="14.5" fill="#2482FD" stroke="#2482FD"/>
<circle cx="174" cy="179" r="14.5" fill="#2482FD" stroke="#2482FD"/>
<circle cx="175" cy="261" r="14.5" fill="#2482FD" stroke="#2482FD"/>
<circle cx="174" cy="343" r="14.5" fill="#2482FD" stroke="#2482FD"/>
<circle cx="174" cy="425" r="14.5" fill="#2482FD" stroke="#2482FD"/>
<path d="M175 0.5C183.008 0.5 189.5 6.99187 189.5 15C189.5 23.0081 183.008 29.5 175 29.5C166.992 29.5 160.5 23.0081 160.5 15C160.5 6.99187 166.992 0.5 175 0.5Z" fill="#2482FD" stroke="#2482FD"/>
<circle cx="15" cy="140" r="14.5" fill="#2482FD" stroke="#2482FD"/>
<circle cx="15" cy="215" r="14.5" fill="#2482FD" stroke="#2482FD"/>
<circle cx="15" cy="290" r="14.5" fill="#2482FD" stroke="#2482FD"/>
<circle cx="15" cy="365" r="14.5" fill="#2482FD" stroke="#2482FD"/>
<circle cx="15" cy="65" r="14.5" fill="#2482FD" stroke="#2482FD"/>
</g>
<defs>
<clipPath id="clip0_3_295">
<rect width="340" height="440" fill="white"/>
</clipPath>
</defs>
</svg>
