<svg width="385" height="201" viewBox="0 0 385 201" fill="none" xmlns="http://www.w3.org/2000/svg">
<g opacity="0.5">
<rect width="79.3417" height="79.3417" transform="matrix(0.87321 0.487343 -0.87321 0.487343 100.282 21)" fill="#4D4D4D" stroke="black"/>
<rect width="79.3417" height="77.2623" transform="matrix(0.87321 0.487343 0 1 31 59.7377)" fill="#262626" stroke="black"/>
<rect width="79.3417" height="77.3086" transform="matrix(0.87321 -0.487343 0 1 100.282 98.3581)" fill="black" stroke="black"/>
<line x1="335.393" y1="55.3329" x2="315.487" y2="55.3329" stroke="#2EB59F" stroke-width="3"/>
<circle cx="315.686" cy="54.2311" r="0.5" fill="#2EB59F" stroke="#2EB59F" stroke-width="0.990669"/>
<line x1="295.782" y1="74.9466" x2="285.101" y2="74.9466" stroke="#2EB59F" stroke-width="3"/>
<line x1="285.101" y1="84.9" x2="265.32" y2="84.9" stroke="#2EB59F" stroke-width="3"/>
<mask id="path-8-inside-1_5_2" fill="white">
<ellipse cx="265.521" cy="83.8013" rx="0.99218" ry="0.99218"/>
</mask>
<ellipse cx="265.521" cy="83.8013" rx="0.99218" ry="0.99218" fill="#2EB59F"/>
<path d="M266.513 83.8013H265.513C265.513 83.802 265.513 83.8018 265.514 83.8007C265.514 83.7998 265.514 83.7988 265.514 83.7979C265.515 83.7971 265.515 83.7965 265.515 83.7962C265.516 83.7959 265.516 83.7958 265.516 83.7957C265.516 83.7957 265.516 83.7956 265.516 83.7954C265.516 83.7952 265.517 83.7948 265.518 83.7945C265.519 83.7941 265.52 83.7938 265.521 83.7936C265.522 83.7934 265.522 83.7934 265.521 83.7934V84.7934V85.7934C266.621 85.7934 267.513 84.9015 267.513 83.8013H266.513ZM265.521 84.7934V83.7934C265.52 83.7934 265.521 83.7934 265.522 83.7936C265.523 83.7938 265.524 83.7941 265.525 83.7945C265.525 83.7948 265.526 83.7952 265.526 83.7954C265.527 83.7956 265.527 83.7957 265.527 83.7957C265.527 83.7958 265.527 83.7959 265.527 83.7962C265.527 83.7965 265.528 83.7971 265.528 83.7979C265.528 83.7988 265.529 83.7998 265.529 83.8007C265.529 83.8018 265.529 83.802 265.529 83.8013H264.529H263.529C263.529 84.9015 264.421 85.7934 265.521 85.7934V84.7934ZM264.529 83.8013H265.529C265.529 83.8005 265.529 83.8008 265.529 83.8018C265.529 83.8027 265.528 83.8037 265.528 83.8046C265.528 83.8055 265.527 83.806 265.527 83.8063C265.527 83.8066 265.527 83.8067 265.527 83.8068C265.527 83.8068 265.527 83.807 265.526 83.8072C265.526 83.8074 265.525 83.8077 265.525 83.8081C265.524 83.8084 265.523 83.8087 265.522 83.8089C265.521 83.8091 265.52 83.8091 265.521 83.8091V82.8091V81.8091C264.421 81.8091 263.529 82.701 263.529 83.8013H264.529ZM265.521 82.8091V83.8091C265.522 83.8091 265.522 83.8091 265.521 83.8089C265.52 83.8087 265.519 83.8084 265.518 83.8081C265.517 83.8077 265.516 83.8074 265.516 83.8072C265.516 83.807 265.516 83.8068 265.516 83.8068C265.516 83.8067 265.516 83.8066 265.515 83.8063C265.515 83.806 265.515 83.8055 265.514 83.8046C265.514 83.8037 265.514 83.8027 265.514 83.8018C265.513 83.8008 265.513 83.8005 265.513 83.8013H266.513H267.513C267.513 82.701 266.621 81.8091 265.521 81.8091V82.8091Z" fill="#2EB59F" mask="url(#path-8-inside-1_5_2)"/>
<line x1="286.601" y1="73.4466" x2="286.601" y2="83.9972" stroke="#2EB59F" stroke-width="3"/>
<line x1="335.728" y1="143.871" x2="315.821" y2="143.871" stroke="#2EB59F" stroke-width="3"/>
<circle cx="316.02" cy="142.769" r="0.5" fill="#2EB59F" stroke="#2EB59F" stroke-width="0.990669"/>
<line x1="276.724" y1="44" x2="276.724" y2="53.9533" stroke="#2EB59F" stroke-width="3"/>
<circle cx="275.422" cy="54.3515" r="0.5" fill="#2EB59F" stroke="#2EB59F" stroke-width="0.990669"/>
<line x1="264.25" y1="153" x2="264.25" y2="143.047" stroke="#FF3300" stroke-width="3"/>
<circle cx="265.352" cy="142.449" r="0.5" transform="rotate(-180 265.352 142.449)" fill="#FF3300" stroke="#FF3300" stroke-width="0.990669"/>
<line x1="274.325" y1="123.291" x2="274.325" y2="112.863" stroke="#FFFF00" stroke-width="3"/>
<line x1="286.796" y1="122.633" x2="286.796" y2="132.587" stroke="#FFFF00" stroke-width="3"/>
<circle cx="285.694" cy="133.184" r="0.5" fill="#FFFF00" stroke="#FFFF00" stroke-width="0.990669"/>
<line x1="294.462" y1="64.3302" x2="294.462" y2="54.775" stroke="#FFFF00" stroke-width="3"/>
<circle cx="295.564" cy="54.1778" r="0.5" transform="rotate(-180 295.564 54.1778)" fill="#FFFF00" stroke="#FFFF00" stroke-width="0.990669"/>
<line x1="294.4" y1="143.208" x2="294.4" y2="112.75" stroke="#FF3300" stroke-width="3"/>
<line x1="284.446" y1="113.149" x2="284.446" y2="103.195" stroke="#FF3300" stroke-width="3"/>
<circle cx="285.548" cy="102.598" r="0.5" transform="rotate(-180 285.548 102.598)" fill="#FF3300" stroke="#FF3300" stroke-width="0.990669"/>
<line x1="295.9" y1="114.22" x2="285.349" y2="114.22" stroke="#FF3300" stroke-width="3"/>
<line x1="246.449" y1="112.689" x2="246.449" y2="143.146" stroke="#2EB59F" stroke-width="3"/>
<line x1="245.546" y1="114.189" x2="234.796" y2="114.189" stroke="#2EB59F" stroke-width="3"/>
<circle cx="234.995" cy="113.087" r="0.5" fill="#2EB59F" stroke="#2EB59F" stroke-width="0.990669"/>
<line x1="255.216" y1="65.3689" x2="245.606" y2="65.3689" stroke="#FF3300" stroke-width="3"/>
<mask id="path-30-inside-2_5_2" fill="white">
<ellipse cx="245.029" cy="64.2533" rx="0.961012" ry="0.961013" transform="rotate(90 245.029 64.2533)"/>
</mask>
<ellipse cx="245.029" cy="64.2533" rx="0.961012" ry="0.961013" transform="rotate(90 245.029 64.2533)" fill="#FF3300"/>
<path d="M245.029 65.2144V64.2144C245.051 64.2144 245.068 64.2318 245.068 64.2533H244.068H243.068C243.068 65.3364 243.946 66.2144 245.029 66.2144V65.2144ZM244.068 64.2533H245.068C245.068 64.2749 245.051 64.2923 245.029 64.2923V63.2923V62.2923C243.946 62.2923 243.068 63.1703 243.068 64.2533H244.068ZM245.029 63.2923V64.2923C245.008 64.2923 244.99 64.2749 244.99 64.2533H245.99H246.99C246.99 63.1703 246.112 62.2923 245.029 62.2923V63.2923ZM245.99 64.2533H244.99C244.99 64.2318 245.008 64.2144 245.029 64.2144V65.2144V66.2144C246.112 66.2144 246.99 65.3364 246.99 64.2533H245.99Z" fill="#FF3300" mask="url(#path-30-inside-2_5_2)"/>
<line x1="253.716" y1="64.5039" x2="253.716" y2="44" stroke="#FF3300" stroke-width="3"/>
<line x1="324.612" y1="74.1601" x2="324.612" y2="63.6096" stroke="#FF3300" stroke-width="3"/>
<line x1="326.112" y1="75.0252" x2="316.502" y2="75.0252" stroke="#FF3300" stroke-width="3"/>
<mask id="path-35-inside-3_5_2" fill="white">
<ellipse cx="315.926" cy="73.9096" rx="0.961012" ry="0.961013" transform="rotate(90 315.926 73.9096)"/>
</mask>
<ellipse cx="315.926" cy="73.9096" rx="0.961012" ry="0.961013" transform="rotate(90 315.926 73.9096)" fill="#FF3300"/>
<path d="M315.926 74.8706V73.8706C315.947 73.8706 315.965 73.888 315.965 73.9096H314.965H313.965C313.965 74.9926 314.843 75.8706 315.926 75.8706V74.8706ZM314.965 73.9096H315.965C315.965 73.9311 315.947 73.9486 315.926 73.9486V72.9486V71.9486C314.843 71.9486 313.965 72.8265 313.965 73.9096H314.965ZM315.926 72.9486V73.9486C315.904 73.9486 315.887 73.9311 315.887 73.9096H316.887H317.887C317.887 72.8265 317.009 71.9486 315.926 71.9486V72.9486ZM316.887 73.9096H315.887C315.887 73.888 315.904 73.8706 315.926 73.8706V74.8706V75.8706C317.009 75.8706 317.887 74.9926 317.887 73.9096H316.887Z" fill="#FF3300" mask="url(#path-35-inside-3_5_2)"/>
<line x1="335.551" y1="94.7037" x2="326.112" y2="94.7037" stroke="#FF3300" stroke-width="3"/>
<mask id="path-38-inside-4_5_2" fill="white">
<ellipse cx="325.546" cy="93.5812" rx="0.943851" ry="0.943852" transform="rotate(90 325.546 93.5812)"/>
</mask>
<ellipse cx="325.546" cy="93.5812" rx="0.943851" ry="0.943852" transform="rotate(90 325.546 93.5812)" fill="#FF3300"/>
<path d="M325.546 94.5251V93.5251C325.577 93.5251 325.602 93.5502 325.602 93.5812H324.602H323.602C323.602 94.6548 324.472 95.5251 325.546 95.5251V94.5251ZM324.602 93.5812H325.602C325.602 93.6122 325.577 93.6374 325.546 93.6374V92.6374V91.6374C324.472 91.6374 323.602 92.5077 323.602 93.5812H324.602ZM325.546 92.6374V93.6374C325.515 93.6374 325.49 93.6122 325.49 93.5812H326.49H327.49C327.49 92.5077 326.619 91.6374 325.546 91.6374V92.6374ZM326.49 93.5812H325.49C325.49 93.5502 325.515 93.5251 325.546 93.5251V94.5251V95.5251C326.619 95.5251 327.49 94.6548 327.49 93.5812H326.49Z" fill="#FF3300" mask="url(#path-38-inside-4_5_2)"/>
<line x1="325.952" y1="124.145" x2="316.513" y2="124.115" stroke="#FFFF00" stroke-width="3"/>
<line x1="335.39" y1="134.132" x2="325.355" y2="134.099" stroke="#FFFF00" stroke-width="3"/>
<line x1="324.457" y1="132.676" x2="324.489" y2="122.641" stroke="#FFFF00" stroke-width="3"/>
<mask id="path-43-inside-5_5_2" fill="white">
<ellipse cx="315.753" cy="122.992" rx="0.943852" ry="0.943852" transform="rotate(90 315.753 122.992)"/>
</mask>
<ellipse cx="315.753" cy="122.992" rx="0.943852" ry="0.943852" transform="rotate(90 315.753 122.992)" fill="#FFFF00"/>
<path d="M315.753 123.936V122.936C315.784 122.936 315.809 122.961 315.809 122.992H314.809H313.809C313.809 124.066 314.679 124.936 315.753 124.936V123.936ZM314.809 122.992H315.809C315.809 123.023 315.784 123.048 315.753 123.048V122.048V121.048C314.679 121.048 313.809 121.919 313.809 122.992H314.809ZM315.753 122.048V123.048C315.722 123.048 315.697 123.023 315.697 122.992H316.697H317.697C317.697 121.919 316.827 121.048 315.753 121.048V122.048ZM316.697 122.992H315.697C315.697 122.961 315.722 122.936 315.753 122.936V123.936V124.936C316.827 124.936 317.697 124.066 317.697 122.992H316.697Z" fill="#FFFF00" mask="url(#path-43-inside-5_5_2)"/>
<line x1="265.863" y1="94.8001" x2="236.518" y2="94.7692" stroke="#FFFF00" stroke-width="3"/>
<line x1="315.632" y1="64.94" x2="295.128" y2="64.94" stroke="#FFFF00" stroke-width="3"/>
<line x1="264.365" y1="103.846" x2="264.396" y2="93.8927" stroke="#FFFF00" stroke-width="3"/>
<mask id="path-48-inside-6_5_2" fill="white">
<ellipse cx="235.754" cy="93.6468" rx="0.943851" ry="0.943852" transform="rotate(90 235.754 93.6468)"/>
</mask>
<ellipse cx="235.754" cy="93.6468" rx="0.943851" ry="0.943852" transform="rotate(90 235.754 93.6468)" fill="#FFFF00"/>
<path d="M235.754 94.5906V93.5906C235.785 93.5906 235.811 93.6157 235.811 93.6468H234.811H233.811C233.811 94.7203 234.681 95.5906 235.754 95.5906V94.5906ZM234.811 93.6468H235.811C235.811 93.6778 235.785 93.7029 235.754 93.7029V92.7029V91.7029C234.681 91.7029 233.811 92.5732 233.811 93.6468H234.811ZM235.754 92.7029V93.7029C235.723 93.7029 235.698 93.6778 235.698 93.6468H236.698H237.698C237.698 92.5732 236.828 91.7029 235.754 91.7029V92.7029ZM236.698 93.6468H235.698C235.698 93.6157 235.723 93.5906 235.754 93.5906V94.5906V95.5906C236.828 95.5906 237.698 94.7203 237.698 93.6468H236.698Z" fill="#FFFF00" mask="url(#path-48-inside-6_5_2)"/>
<line x1="285.896" y1="124.2" x2="275.624" y2="124.2" stroke="#FFFF00" stroke-width="3"/>
<rect width="16" height="16" transform="translate(215 88)" fill="#FFFF00"/>
<path d="M218.333 102V98" stroke="black" stroke-width="2" stroke-linecap="round" stroke-linejoin="round"/>
<path d="M223 102V90" stroke="black" stroke-width="2" stroke-linecap="round" stroke-linejoin="round"/>
<path d="M227.667 102V94" stroke="black" stroke-width="2" stroke-linecap="round" stroke-linejoin="round"/>
<path d="M222.918 136.461L224.183 127.284L225.199 127.852L224.753 130.668L227.749 132.342L229.955 130.51L230.971 131.077L223.777 136.941L222.918 136.461ZM223.872 135.812C223.991 135.672 224.222 135.43 224.575 135.119C224.934 134.797 225.723 134.097 226.976 133.037L224.608 131.714C224.269 133.724 224.065 134.875 224.007 135.2C223.949 135.525 223.902 135.732 223.872 135.812ZM231.971 133.967L232.035 137.068L234.709 135.497L235.721 136.062L232.279 137.888L232.528 141.776L231.516 141.211L231.386 138.229L228.778 139.681L227.766 139.115L231.178 137.273L230.959 133.401L231.971 133.967ZM235.889 139.437C236.413 138.499 237.016 137.705 237.698 137.055C238.385 136.404 239.14 135.874 239.964 135.465L240.737 135.898C240.422 136.043 240.085 136.252 239.728 136.525C239.375 136.796 239.02 137.113 238.663 137.477C238.308 137.839 237.97 138.229 237.648 138.648C237.329 139.068 237.045 139.5 236.797 139.944C236.467 140.534 236.189 141.165 235.964 141.836C235.738 142.508 235.577 143.158 235.479 143.787C235.382 144.416 235.36 144.96 235.415 145.421L234.642 144.988C234.558 144.072 234.613 143.153 234.807 142.23C235.004 141.305 235.365 140.374 235.889 139.437ZM237.695 144.664L241.952 137.045L244.526 138.484C245.124 138.818 245.552 139.199 245.811 139.626C246.074 140.053 246.195 140.5 246.175 140.967C246.155 141.434 246.019 141.892 245.768 142.341C245.518 142.79 245.198 143.147 244.809 143.411C244.423 143.677 243.979 143.813 243.478 143.819C242.978 143.823 242.432 143.659 241.839 143.328L239.994 142.297L240.451 141.478L242.266 142.493C242.676 142.722 243.044 142.835 243.371 142.832C243.698 142.829 243.984 142.739 244.23 142.56C244.48 142.381 244.69 142.139 244.861 141.834C245.031 141.529 245.127 141.224 245.147 140.92C245.17 140.617 245.094 140.327 244.92 140.051C244.747 139.772 244.453 139.517 244.039 139.286L242.417 138.379L238.617 145.179L237.695 144.664ZM246.334 145.274C246.858 144.336 247.461 143.542 248.143 142.892C248.829 142.241 249.584 141.711 250.408 141.302L251.182 141.734C250.866 141.88 250.53 142.089 250.172 142.361C249.819 142.633 249.464 142.95 249.108 143.314C248.753 143.676 248.415 144.066 248.093 144.485C247.773 144.905 247.489 145.337 247.241 145.781C246.911 146.371 246.634 147.002 246.408 147.673C246.183 148.345 246.021 148.995 245.924 149.623C245.826 150.252 245.805 150.797 245.86 151.257L245.086 150.825C245.003 149.909 245.058 148.99 245.251 148.066C245.449 147.142 245.81 146.211 246.334 145.274ZM251.868 145.086L251.932 148.187L254.606 146.616L255.618 147.181L252.176 149.007L252.425 152.895L251.413 152.33L251.283 149.348L248.675 150.8L247.663 150.234L251.075 148.392L250.856 144.521L251.868 145.086ZM257.348 151.429C256.824 152.366 256.219 153.161 255.533 153.812C254.851 154.463 254.098 154.992 253.274 155.401L252.5 154.968C252.816 154.822 253.151 154.613 253.506 154.339C253.862 154.069 254.217 153.754 254.572 153.392C254.928 153.028 255.266 152.636 255.586 152.216C255.909 151.795 256.194 151.363 256.441 150.922C256.77 150.332 257.048 149.701 257.274 149.029C257.499 148.358 257.661 147.708 257.758 147.079C257.856 146.45 257.877 145.906 257.822 145.445L258.596 145.878C258.679 146.793 258.622 147.713 258.425 148.638C258.231 149.561 257.872 150.492 257.348 151.429ZM261.144 153.55C260.62 154.487 260.015 155.282 259.328 155.933C258.646 156.583 257.893 157.113 257.069 157.521L256.295 157.089C256.611 156.943 256.946 156.734 257.301 156.46C257.657 156.19 258.012 155.875 258.367 155.513C258.723 155.149 259.061 154.757 259.381 154.337C259.704 153.916 259.989 153.484 260.236 153.043C260.566 152.452 260.843 151.822 261.069 151.15C261.294 150.479 261.456 149.829 261.553 149.2C261.651 148.571 261.672 148.026 261.617 147.566L262.391 147.998C262.475 148.914 262.418 149.834 262.22 150.759C262.026 151.682 261.667 152.613 261.144 153.55Z" fill="#FF3300"/>
<path d="M302.53 127.586L302.05 126.755L306.093 124.421L304.587 121.812L300.845 123.972L300.365 123.141L304.107 120.981L302.763 118.653L298.803 120.939L298.323 120.108L303.145 117.324L307.435 124.754L302.53 127.586ZM310.553 125.789C310.405 125.874 310.266 125.938 310.137 125.98C310.008 126.024 309.915 126.048 309.858 126.052L309.637 125.156C309.879 125.088 310.078 125 310.232 124.891C310.386 124.783 310.488 124.627 310.538 124.424C310.592 124.223 310.589 123.947 310.528 123.598L310.435 123.062L305.049 118.574L305.994 118.028L310.166 121.642L310.226 121.608L309.182 116.188L310.127 115.642L311.471 123.527C311.532 123.882 311.538 124.202 311.488 124.486C311.441 124.772 311.338 125.024 311.18 125.239C311.025 125.454 310.816 125.637 310.553 125.789ZM313.018 117.279C312.482 116.349 312.108 115.425 311.899 114.506C311.691 113.583 311.623 112.663 311.694 111.746L312.461 111.303C312.425 111.649 312.432 112.045 312.483 112.491C312.535 112.933 312.626 113.401 312.756 113.893C312.885 114.383 313.047 114.873 313.241 115.364C313.439 115.854 313.665 116.319 313.919 116.76C314.257 117.345 314.657 117.907 315.118 118.444C315.579 118.981 316.055 119.453 316.545 119.859C317.035 120.265 317.492 120.562 317.916 120.75L317.148 121.194C316.319 120.797 315.557 120.278 314.863 119.639C314.17 118.996 313.555 118.209 313.018 117.279ZM319.815 114.458L320.819 113.878L322.299 114.5L322.691 114.667L324.909 115.611L323.905 116.19L322.439 115.56L322.071 115.399L319.815 114.458ZM322.628 110.944C323.088 111.741 323.342 112.513 323.389 113.26C323.437 114.007 323.3 114.683 322.98 115.287C322.66 115.892 322.178 116.38 321.533 116.753C320.889 117.125 320.224 117.298 319.541 117.273C318.857 117.248 318.204 117.028 317.581 116.614C316.957 116.199 316.416 115.593 315.956 114.796C315.495 113.999 315.242 113.227 315.194 112.48C315.147 111.734 315.283 111.058 315.603 110.453C315.923 109.848 316.406 109.36 317.05 108.988C317.695 108.616 318.359 108.442 319.043 108.467C319.726 108.492 320.38 108.712 321.003 109.127C321.626 109.541 322.168 110.147 322.628 110.944ZM321.742 111.455C321.364 110.801 320.936 110.312 320.457 109.988C319.981 109.663 319.49 109.492 318.985 109.475C318.482 109.457 318.002 109.58 317.545 109.844C317.087 110.108 316.739 110.463 316.501 110.909C316.266 111.353 316.168 111.864 316.209 112.44C316.253 113.016 316.463 113.631 316.841 114.285C317.219 114.939 317.646 115.429 318.123 115.755C318.602 116.078 319.092 116.249 319.595 116.268C320.1 116.284 320.581 116.161 321.039 115.896C321.497 115.632 321.843 115.278 322.079 114.834C322.317 114.388 322.414 113.877 322.37 113.302C322.329 112.725 322.12 112.11 321.742 111.455ZM324.7 110.535C324.163 109.605 323.79 108.681 323.58 107.762C323.372 106.839 323.304 105.919 323.375 105.002L324.142 104.559C324.106 104.904 324.113 105.301 324.164 105.747C324.216 106.189 324.307 106.656 324.437 107.149C324.566 107.639 324.728 108.129 324.923 108.62C325.12 109.11 325.346 109.575 325.6 110.015C325.938 110.601 326.338 111.162 326.799 111.7C327.26 112.237 327.736 112.709 328.226 113.115C328.716 113.521 329.173 113.818 329.597 114.006L328.829 114.449C328 114.052 327.238 113.534 326.544 112.895C325.851 112.252 325.237 111.465 324.7 110.535ZM331.784 113.531C331.636 113.616 331.498 113.68 331.368 113.722C331.239 113.766 331.147 113.791 331.09 113.794L330.868 112.898C331.111 112.83 331.309 112.742 331.463 112.634C331.617 112.525 331.719 112.369 331.769 112.167C331.823 111.965 331.82 111.689 331.759 111.341L331.666 110.804L326.28 106.316L327.225 105.771L331.398 109.384L331.457 109.35L330.413 103.93L331.358 103.384L332.702 111.269C332.763 111.624 332.769 111.944 332.72 112.228C332.672 112.515 332.569 112.766 332.412 112.981C332.256 113.196 332.047 113.379 331.784 113.531ZM335.8 104.127C336.337 105.057 336.709 105.983 336.917 106.906C337.126 107.825 337.195 108.743 337.125 109.66L336.357 110.103C336.393 109.757 336.385 109.362 336.332 108.917C336.282 108.474 336.193 108.007 336.064 107.517C335.934 107.024 335.77 106.533 335.573 106.044C335.377 105.55 335.152 105.085 334.899 104.647C334.561 104.061 334.161 103.5 333.7 102.962C333.239 102.425 332.763 101.953 332.273 101.547C331.783 101.141 331.326 100.844 330.902 100.656L331.67 100.213C332.499 100.61 333.261 101.13 333.953 101.773C334.647 102.412 335.263 103.197 335.8 104.127ZM339.565 101.953C340.102 102.883 340.474 103.809 340.682 104.732C340.892 105.651 340.961 106.569 340.89 107.486L340.122 107.929C340.159 107.584 340.15 107.188 340.097 106.744C340.047 106.3 339.958 105.833 339.829 105.343C339.699 104.851 339.536 104.36 339.338 103.87C339.142 103.376 338.917 102.911 338.664 102.473C338.326 101.887 337.927 101.326 337.465 100.788C337.004 100.251 336.529 99.7792 336.038 99.3733C335.548 98.9675 335.091 98.6703 334.668 98.4819L335.435 98.0388C336.265 98.4357 337.026 98.9558 337.719 99.599C338.412 100.238 339.028 101.023 339.565 101.953Z" fill="#2EB59F"/>
<rect width="79.3417" height="79.3417" transform="matrix(0.87321 0.487343 -0.87321 0.487343 280.282 25)" stroke="white"/>
<rect width="79.3417" height="77.2623" transform="matrix(0.87321 0.487343 0 1 211 63.7377)" stroke="white"/>
<rect width="79.3417" height="77.3086" transform="matrix(0.87321 -0.487343 0 1 280.282 102.358)" stroke="white"/>
<path d="M260.386 77.5568V79.5682H250.602V77.5568H260.386ZM260.386 78.4773V82.6023H258.034V78.4773H260.386Z" fill="#2482FD"/>
<path d="M285.816 48L290.312 38.72H291.112L295.608 48H294.28L290.712 40.352L287.144 48H285.816Z" fill="#2482FD"/>
<path d="M275.312 77L270.816 67.72H272.144L275.712 75.368L279.28 67.72H280.608L276.112 77H275.312Z" fill="#2482FD"/>
<path d="M265.802 54V45.838H261.714V44.844H270.87V45.838H266.796V54H265.802Z" fill="#2482FD"/>
<path d="M261.714 132V131.006H265.802V122.844H266.796V131.006H270.87V132H261.714Z" fill="#2482FD"/>
<path d="M312.95 103.689L311.76 103.379L313.307 97.6043L307.539 96.0668L307.859 94.8715L314.813 96.7349L312.95 103.689ZM305.675 104.294L305.05 103.211L313.819 98.1489L313.361 99.8564L305.675 104.294ZM304.323 101.952L303.698 100.869L311.384 96.4317L313.091 96.8892L304.323 101.952Z" fill="#2482FD"/>
<path d="M303.303 159.598L302.114 159.288L303.661 153.513L297.892 151.976L298.212 150.781L305.167 152.644L303.303 159.598ZM296.277 163.655L289.322 161.792L291.186 154.837L292.381 155.158L290.828 160.922L296.603 162.47L296.277 163.655ZM292.752 162.095L291.044 161.637L304.143 154.075L303.685 155.783L292.752 162.095ZM290.317 160.378L290.774 158.67L301.708 152.358L303.416 152.815L290.317 160.378Z" fill="#2482FD"/>
<path d="M232.27 70.335C229.225 70.335 226.765 67.875 226.765 64.83C226.765 61.785 229.225 59.325 232.27 59.325C235.315 59.325 237.775 61.785 237.775 64.83C237.775 67.875 235.285 70.335 232.27 70.335ZM231.805 60.435C229.735 60.645 228.1 62.28 227.875 64.35H231.805V60.435ZM232.765 60.435V64.335H236.665C236.44 62.28 234.82 60.66 232.765 60.435ZM232.75 65.295V69.225C234.82 69 236.455 67.365 236.665 65.295H232.75ZM227.875 65.31C228.1 67.365 229.735 69.015 231.79 69.225V65.31H227.875Z" fill="#2482FD"/>
</g>
</svg>
