<svg width="1050" height="554" viewBox="0 0 1050 554" fill="none" xmlns="http://www.w3.org/2000/svg">
<line x1="751.5" x2="751.5" y2="350" stroke="white" stroke-opacity="0.25" stroke-width="3"/>
<line x1="451.5" y1="200" x2="451.5" y2="550" stroke="white" stroke-opacity="0.25" stroke-width="3"/>
<line x1="401.5" y1="200" x2="401.5" y2="550" stroke="white" stroke-opacity="0.25" stroke-width="3"/>
<line x1="651.5" x2="651.5" y2="300" stroke="white" stroke-opacity="0.25" stroke-width="3"/>
<line x1="651.5" y1="350" x2="651.5" y2="550" stroke="white" stroke-opacity="0.25" stroke-width="3"/>
<line x1="551.5" y1="252" x2="551.5" y2="452" stroke="white" stroke-opacity="0.25" stroke-width="3"/>
<line x1="701.5" y1="100" x2="701.5" y2="550" stroke="white" stroke-opacity="0.25" stroke-width="3"/>
<line x1="801.5" x2="801.5" y2="250" stroke="white" stroke-opacity="0.25" stroke-width="3"/>
<line x1="801.5" y1="300" x2="801.5" y2="450" stroke="white" stroke-opacity="0.25" stroke-width="3"/>
<line x1="601.5" y1="400" x2="601.5" y2="550" stroke="white" stroke-opacity="0.25" stroke-width="3"/>
<line x1="601.5" y1="150" x2="601.5" y2="350" stroke="white" stroke-opacity="0.25" stroke-width="3"/>
<line x1="801.5" y1="500" x2="801.5" y2="550" stroke="white" stroke-opacity="0.25" stroke-width="3"/>
<line x1="301.5" y1="200" x2="301.5" y2="250" stroke="white" stroke-opacity="0.25" stroke-width="3"/>
<line x1="701.5" x2="701.5" y2="54" stroke="white" stroke-opacity="0.25" stroke-width="3"/>
<line x1="850" y1="251.5" x2="650" y2="251.5" stroke="white" stroke-opacity="0.25" stroke-width="3"/>
<line x1="550" y1="301.5" x2="300" y2="301.5" stroke="white" stroke-opacity="0.25" stroke-width="3"/>
<line x1="500" y1="251.5" x2="250" y2="251.5" stroke="white" stroke-opacity="0.25" stroke-width="3"/>
<line x1="550" y1="151.5" x2="350" y2="151.5" stroke="white" stroke-opacity="0.25" stroke-width="3"/>
<line x1="600" y1="51.5" x2="350" y2="51.5" stroke="white" stroke-opacity="0.25" stroke-width="3"/>
<path d="M603 402L400 401" stroke="white" stroke-opacity="0.25" stroke-width="3"/>
<line x1="450" y1="351.5" x2="300" y2="351.5" stroke="white" stroke-opacity="0.25" stroke-width="3"/>
<line x1="850" y1="201.5" x2="800" y2="201.5" stroke="white" stroke-opacity="0.25" stroke-width="3"/>
<line x1="450" y1="201.5" x2="400" y2="201.5" stroke="white" stroke-opacity="0.25" stroke-width="3"/>
<line x1="350" y1="401.5" x2="300" y2="401.5" stroke="white" stroke-opacity="0.25" stroke-width="3"/>
<line x1="650" y1="501.5" x2="600" y2="501.5" stroke="white" stroke-opacity="0.25" stroke-width="3"/>
<line x1="500" y1="501.5" x2="450" y2="501.5" stroke="white" stroke-opacity="0.25" stroke-width="3"/>
<line x1="800" y1="401.5" x2="700" y2="401.5" stroke="white" stroke-opacity="0.25" stroke-width="3"/>
<line x1="700" y1="51.5" x2="650" y2="51.5" stroke="white" stroke-opacity="0.25" stroke-width="3"/>
<line x1="501.5" y1="500" x2="501.5" y2="550" stroke="white" stroke-opacity="0.25" stroke-width="3"/>
<line x1="501.5" y1="250" x2="501.5" y2="300" stroke="white" stroke-opacity="0.25" stroke-width="3"/>
<line x1="351.5" y1="400" x2="351.5" y2="450" stroke="white" stroke-opacity="0.25" stroke-width="3"/>
<line x1="301.5" y1="400" x2="301.5" y2="450" stroke="white" stroke-opacity="0.25" stroke-width="3"/>
<line x1="351.5" y1="500" x2="351.5" y2="550" stroke="white" stroke-opacity="0.25" stroke-width="3"/>
<line x1="401.5" x2="401.5" y2="50" stroke="white" stroke-opacity="0.25" stroke-width="3"/>
<line x1="601.5" y1="50" x2="601.5" y2="100" stroke="white" stroke-opacity="0.25" stroke-width="3"/>
<line x1="551.5" y1="150" x2="551.5" y2="200" stroke="white" stroke-opacity="0.25" stroke-width="3"/>
<line x1="751.5" y1="400" x2="751.5" y2="500" stroke="white" stroke-opacity="0.25" stroke-width="3"/>
<line x1="850" y1="151.5" x2="750" y2="151.5" stroke="white" stroke-opacity="0.25" stroke-width="3"/>
<line x1="700" y1="301.5" x2="600" y2="301.5" stroke="white" stroke-opacity="0.25" stroke-width="3"/>
<path d="M850 451H750" stroke="white" stroke-opacity="0.25" stroke-width="3"/>
<line x1="400" y1="501.5" x2="300" y2="501.5" stroke="white" stroke-opacity="0.25" stroke-width="3"/>
<line x1="850" y1="501.5" x2="700" y2="501.5" stroke="white" stroke-opacity="0.25" stroke-width="3"/>
<line x1="750" y1="101.5" x2="250" y2="101.5" stroke="white" stroke-opacity="0.25" stroke-width="3"/>
<line x1="850" y1="351.5" x2="500" y2="351.5" stroke="white" stroke-opacity="0.25" stroke-width="3"/>
<line x1="650" y1="451.5" x2="200" y2="451.5" stroke="white" stroke-opacity="0.25" stroke-width="3"/>
<line x1="750" y1="201.5" x2="650" y2="201.5" stroke="white" stroke-opacity="0.25" stroke-width="3"/>
<line x1="600" y1="201.5" x2="500" y2="201.5" stroke="white" stroke-opacity="0.25" stroke-width="3"/>
<line x1="700" y1="151.5" x2="600" y2="151.5" stroke="white" stroke-opacity="0.25" stroke-width="3"/>
<line x1="501.5" y1="350" x2="501.5" y2="450" stroke="white" stroke-opacity="0.25" stroke-width="3"/>
<line x1="501.5" x2="501.5" y2="50" stroke="white" stroke-opacity="0.25" stroke-width="3"/>
<line x1="501.5" y1="100" x2="501.5" y2="200" stroke="white" stroke-opacity="0.25" stroke-width="3"/>
<line x1="351.5" x2="351.5" y2="100" stroke="white" stroke-opacity="0.25" stroke-width="3"/>
<line x1="351.5" y1="200" x2="351.5" y2="300" stroke="white" stroke-opacity="0.25" stroke-width="3"/>
<path d="M449 0C449 58.5786 449 91.4214 449 150" stroke="white" stroke-opacity="0.25" stroke-width="3"/>
<line x1="551.5" y1="50" x2="551.5" y2="100" stroke="white" stroke-opacity="0.25" stroke-width="3"/>
<line x1="850" y1="51.5" x2="750" y2="51.5" stroke="#2EB59F" stroke-width="3"/>
<circle cx="751" cy="52" r="4.5" fill="#2EB59F" stroke="#2EB59F"/>
<line x1="703" y1="301.5" x2="650" y2="301.5" stroke="#2EB59F" stroke-width="3"/>
<path d="M650 295.5C652.485 295.5 654.5 297.515 654.5 300C654.5 302.485 652.485 304.5 650 304.5C647.515 304.5 645.5 302.485 645.5 300C645.5 297.515 647.515 295.5 650 295.5Z" fill="#2EB59F" stroke="#2EB59F"/>
<line x1="551.5" x2="551.5" y2="50" stroke="#2EB59F" stroke-width="3"/>
<circle cx="551" cy="52" r="4.5" fill="#2EB59F" stroke="#2EB59F"/>
<line x1="501.5" y1="554" x2="501.5" y2="504" stroke="#2EB59F" stroke-width="3"/>
<circle cx="501" cy="501" r="4.5" transform="rotate(-180 501 501)" fill="#2EB59F" stroke="#2EB59F"/>
<line x1="401.5" y1="53" x2="401.5" stroke="#FF3300" stroke-width="3"/>
<line x1="752" y1="450.5" x2="850" y2="450.5" stroke="#FF3300" stroke-width="3"/>
<line x1="702" y1="501.5" x2="753" y2="501.5" stroke="#FF3300" stroke-width="3"/>
<line x1="399" y1="51.5" x2="450" y2="51.5" stroke="#FF3300" stroke-width="3"/>
<line x1="452" y1="101.5" x2="503" y2="101.5" stroke="#FF3300" stroke-width="3"/>
<line x1="501" y1="201.5" x2="603" y2="201.5" stroke="#FF3300" stroke-width="3"/>
<line x1="601" y1="351.5" x2="703" y2="351.5" stroke="#FF3300" stroke-width="3"/>
<line x1="448.5" y1="103" x2="448.5" y2="50" stroke="#FF3300" stroke-width="3"/>
<line x1="751.5" y1="502" x2="751.5" y2="449" stroke="#FF3300" stroke-width="3"/>
<line x1="501.5" y1="203" x2="501.5" y2="100" stroke="#FF3300" stroke-width="3"/>
<line x1="601.5" y1="353" x2="601.5" y2="200" stroke="#FF3300" stroke-width="3"/>
<line x1="701.5" y1="503" x2="701.5" y2="350" stroke="#FF3300" stroke-width="3"/>
<line x1="551.5" y1="403" x2="551.5" y2="350" stroke="#FFFF00" stroke-width="3"/>
<line x1="601.5" y1="400" x2="601.5" y2="450" stroke="#FFFF00" stroke-width="3"/>
<circle cx="602" cy="453" r="4.5" fill="#FFFF00" stroke="#FFFF00"/>
<line x1="651.5" y1="103" x2="651.5" y2="55" stroke="#FFFF00" stroke-width="3"/>
<circle cx="651" cy="52" r="4.5" transform="rotate(-180 651 52)" fill="#FFFF00" stroke="#FFFF00"/>
<line x1="401.5" y1="350" x2="401.5" y2="503" stroke="#2EB59F" stroke-width="3"/>
<line x1="403" y1="351.5" x2="349" y2="351.5" stroke="#2EB59F" stroke-width="3"/>
<circle cx="350" cy="352" r="4.5" fill="#2EB59F" stroke="#2EB59F"/>
<line x1="801.5" y1="153" x2="801.5" y2="100" stroke="#2EB59F" stroke-width="3"/>
<line x1="803" y1="151.31" x2="754.724" y2="151.31" stroke="#2EB59F" stroke-width="3"/>
<path d="M756.155 151.741C756.155 154.131 754.218 156.069 751.828 156.069C749.438 156.069 747.5 154.131 747.5 151.741C747.5 149.351 749.438 147.414 751.828 147.414C754.218 147.414 756.155 149.351 756.155 151.741Z" fill="#2EB59F" stroke="#2EB59F"/>
<line x1="850" y1="251.603" x2="802.586" y2="251.603" stroke="#FFFF00" stroke-width="3"/>
<path d="M803.983 252C803.983 254.342 802.084 256.241 799.741 256.241C797.399 256.241 795.5 254.342 795.5 252C795.5 249.657 797.399 247.759 799.741 247.759C802.084 247.759 803.983 249.658 803.983 252Z" fill="#FFE100" stroke="#FFFF00"/>
<line x1="502.998" y1="251.5" x2="355.584" y2="251.345" stroke="#FFFF00" stroke-width="3"/>
<line x1="753" y1="101.5" x2="650" y2="101.5" stroke="#FFFF00" stroke-width="3"/>
<line x1="501.5" y1="302.996" x2="501.655" y2="252.996" stroke="#FFFF00" stroke-width="3"/>
<path d="M355.982 251.741C355.982 254.084 354.084 255.983 351.741 255.983C349.399 255.983 347.5 254.084 347.5 251.741C347.5 249.399 349.399 247.5 351.741 247.5C354.084 247.5 355.982 249.399 355.982 251.741Z" fill="#FFFF00" stroke="#FFFF00"/>
<line x1="603" y1="401.5" x2="552" y2="401.5" stroke="#FFFF00" stroke-width="3"/>
<line x1="750.5" y1="353" x2="750.5" y2="300" stroke="#FFFF00" stroke-width="3"/>
<line x1="800.5" y1="350" x2="800.5" y2="400" stroke="#FFFF00" stroke-width="3"/>
<line x1="802" y1="351.5" x2="751" y2="351.5" stroke="#FFFF00" stroke-width="3"/>
<line x1="802" y1="401.345" x2="754.586" y2="401.345" stroke="#FFFF00" stroke-width="3"/>
<path d="M755.983 401.741C755.983 404.084 754.084 405.982 751.741 405.982C749.399 405.982 747.5 404.084 747.5 401.741C747.5 399.399 749.399 397.5 751.741 397.5C754.084 397.5 755.983 399.399 755.983 401.741Z" fill="#FFFF00" stroke="#FFFF00"/>
<circle cx="850" cy="450" r="4.5" transform="rotate(-180 850 450)" fill="#FF3300" stroke="#FF3300"/>
</svg>
