<svg width="650" height="550" viewBox="0 0 650 550" fill="none" xmlns="http://www.w3.org/2000/svg">
<g clip-path="url(#clip0_1_2)">
<line x1="551.5" x2="551.5" y2="350" stroke="white" stroke-opacity="0.25" stroke-width="3"/>
<line x1="251.5" y1="200" x2="251.5" y2="550" stroke="white" stroke-opacity="0.25" stroke-width="3"/>
<line x1="201.5" y1="200" x2="201.5" y2="550" stroke="white" stroke-opacity="0.25" stroke-width="3"/>
<line x1="451.5" x2="451.5" y2="300" stroke="white" stroke-opacity="0.25" stroke-width="3"/>
<line x1="451.5" y1="350" x2="451.5" y2="550" stroke="white" stroke-opacity="0.25" stroke-width="3"/>
<line x1="351.5" y1="252" x2="351.5" y2="452" stroke="white" stroke-opacity="0.25" stroke-width="3"/>
<line x1="501.5" y1="100" x2="501.5" y2="550" stroke="white" stroke-opacity="0.25" stroke-width="3"/>
<line x1="601.5" x2="601.5" y2="250" stroke="white" stroke-opacity="0.25" stroke-width="3"/>
<line x1="601.5" y1="300" x2="601.5" y2="450" stroke="white" stroke-opacity="0.25" stroke-width="3"/>
<line x1="401.5" y1="400" x2="401.5" y2="550" stroke="white" stroke-opacity="0.25" stroke-width="3"/>
<line x1="401.5" y1="150" x2="401.5" y2="350" stroke="white" stroke-opacity="0.25" stroke-width="3"/>
<line x1="601.5" y1="500" x2="601.5" y2="550" stroke="white" stroke-opacity="0.25" stroke-width="3"/>
<line x1="101.5" y1="200" x2="101.5" y2="250" stroke="white" stroke-opacity="0.25" stroke-width="3"/>
<line x1="501.5" x2="501.5" y2="54" stroke="white" stroke-opacity="0.25" stroke-width="3"/>
<line x1="650" y1="251.5" x2="450" y2="251.5" stroke="white" stroke-opacity="0.25" stroke-width="3"/>
<line x1="350" y1="301.5" x2="100" y2="301.5" stroke="white" stroke-opacity="0.25" stroke-width="3"/>
<line x1="300" y1="251.5" x2="50" y2="251.5" stroke="white" stroke-opacity="0.25" stroke-width="3"/>
<line x1="350" y1="151.5" x2="150" y2="151.5" stroke="white" stroke-opacity="0.25" stroke-width="3"/>
<line x1="400" y1="51.5" x2="150" y2="51.5" stroke="white" stroke-opacity="0.25" stroke-width="3"/>
<path d="M403 402L200 401" stroke="white" stroke-opacity="0.25" stroke-width="3"/>
<line x1="250" y1="351.5" x2="100" y2="351.5" stroke="white" stroke-opacity="0.25" stroke-width="3"/>
<line x1="650" y1="201.5" x2="600" y2="201.5" stroke="white" stroke-opacity="0.25" stroke-width="3"/>
<line x1="250" y1="201.5" x2="200" y2="201.5" stroke="white" stroke-opacity="0.25" stroke-width="3"/>
<line x1="150" y1="401.5" x2="100" y2="401.5" stroke="white" stroke-opacity="0.25" stroke-width="3"/>
<line x1="450" y1="501.5" x2="400" y2="501.5" stroke="white" stroke-opacity="0.25" stroke-width="3"/>
<line x1="300" y1="501.5" x2="250" y2="501.5" stroke="white" stroke-opacity="0.25" stroke-width="3"/>
<line x1="600" y1="401.5" x2="500" y2="401.5" stroke="white" stroke-opacity="0.25" stroke-width="3"/>
<line x1="500" y1="51.5" x2="450" y2="51.5" stroke="white" stroke-opacity="0.25" stroke-width="3"/>
<line x1="301.5" y1="500" x2="301.5" y2="550" stroke="white" stroke-opacity="0.25" stroke-width="3"/>
<line x1="301.5" y1="250" x2="301.5" y2="300" stroke="white" stroke-opacity="0.25" stroke-width="3"/>
<line x1="151.5" y1="400" x2="151.5" y2="450" stroke="white" stroke-opacity="0.25" stroke-width="3"/>
<line x1="101.5" y1="400" x2="101.5" y2="450" stroke="white" stroke-opacity="0.25" stroke-width="3"/>
<line x1="151.5" y1="500" x2="151.5" y2="550" stroke="white" stroke-opacity="0.25" stroke-width="3"/>
<line x1="201.5" x2="201.5" y2="50" stroke="white" stroke-opacity="0.25" stroke-width="3"/>
<line x1="401.5" y1="50" x2="401.5" y2="100" stroke="white" stroke-opacity="0.25" stroke-width="3"/>
<line x1="351.5" y1="150" x2="351.5" y2="200" stroke="white" stroke-opacity="0.25" stroke-width="3"/>
<line x1="551.5" y1="400" x2="551.5" y2="500" stroke="white" stroke-opacity="0.25" stroke-width="3"/>
<line x1="650" y1="151.5" x2="550" y2="151.5" stroke="white" stroke-opacity="0.25" stroke-width="3"/>
<line x1="500" y1="301.5" x2="400" y2="301.5" stroke="white" stroke-opacity="0.25" stroke-width="3"/>
<path d="M650 451H550" stroke="white" stroke-opacity="0.25" stroke-width="3"/>
<line x1="200" y1="501.5" x2="100" y2="501.5" stroke="white" stroke-opacity="0.25" stroke-width="3"/>
<line x1="650" y1="501.5" x2="500" y2="501.5" stroke="white" stroke-opacity="0.25" stroke-width="3"/>
<line x1="550" y1="101.5" x2="50" y2="101.5" stroke="white" stroke-opacity="0.25" stroke-width="3"/>
<line x1="650" y1="351.5" x2="300" y2="351.5" stroke="white" stroke-opacity="0.25" stroke-width="3"/>
<line x1="450" y1="451.5" y2="451.5" stroke="white" stroke-opacity="0.25" stroke-width="3"/>
<line x1="550" y1="201.5" x2="450" y2="201.5" stroke="white" stroke-opacity="0.25" stroke-width="3"/>
<line x1="400" y1="201.5" x2="300" y2="201.5" stroke="white" stroke-opacity="0.25" stroke-width="3"/>
<line x1="500" y1="151.5" x2="400" y2="151.5" stroke="white" stroke-opacity="0.25" stroke-width="3"/>
<line x1="301.5" y1="350" x2="301.5" y2="450" stroke="white" stroke-opacity="0.25" stroke-width="3"/>
<line x1="301.5" x2="301.5" y2="50" stroke="white" stroke-opacity="0.25" stroke-width="3"/>
<line x1="301.5" y1="100" x2="301.5" y2="200" stroke="white" stroke-opacity="0.25" stroke-width="3"/>
<line x1="151.5" x2="151.5" y2="100" stroke="white" stroke-opacity="0.25" stroke-width="3"/>
<line x1="151.5" y1="200" x2="151.5" y2="300" stroke="white" stroke-opacity="0.25" stroke-width="3"/>
<path d="M249 0C249 58.5786 249 91.4214 249 150" stroke="white" stroke-opacity="0.25" stroke-width="3"/>
<line x1="351.5" y1="50" x2="351.5" y2="100" stroke="white" stroke-opacity="0.25" stroke-width="3"/>
<line x1="650" y1="51.5" x2="550" y2="51.5" stroke="#2EB59F" stroke-width="3"/>
<circle cx="551" cy="52" r="4.5" fill="#2EB59F" stroke="#2EB59F"/>
<line x1="453" y1="151.5" x2="399.342" y2="151.5" stroke="#2EB59F" stroke-width="3"/>
<line x1="399.342" y1="201.5" x2="299.975" y2="201.5" stroke="#2EB59F" stroke-width="3"/>
<circle cx="300.984" cy="202.016" r="4.48415" fill="#2EB59F" stroke="#2EB59F"/>
<line x1="400.842" y1="150" x2="400.842" y2="203" stroke="#2EB59F" stroke-width="3"/>
<line x1="650" y1="501.5" x2="550" y2="501.5" stroke="#2EB59F" stroke-width="3"/>
<circle cx="551" cy="502" r="4.5" fill="#2EB59F" stroke="#2EB59F"/>
<line x1="351.5" x2="351.5" y2="50" stroke="#2EB59F" stroke-width="3"/>
<circle cx="351" cy="52" r="4.5" fill="#2EB59F" stroke="#2EB59F"/>
<line x1="301.5" y1="554" x2="301.5" y2="504" stroke="#FF3300" stroke-width="3"/>
<circle cx="301" cy="501" r="4.5" transform="rotate(-180 301 501)" fill="#FF3300" stroke="#FF3300"/>
<line x1="351.5" y1="403" x2="351.5" y2="350" stroke="#FFFF00" stroke-width="3"/>
<line x1="401.5" y1="400" x2="401.5" y2="450" stroke="#FFFF00" stroke-width="3"/>
<circle cx="402" cy="453" r="4.5" fill="#FFFF00" stroke="#FFFF00"/>
<line x1="451.5" y1="103" x2="451.5" y2="55" stroke="#FFFF00" stroke-width="3"/>
<circle cx="451" cy="52" r="4.5" transform="rotate(-180 451 52)" fill="#FFFF00" stroke="#FFFF00"/>
<line x1="451.5" y1="503" x2="451.5" y2="350" stroke="#FF3300" stroke-width="3"/>
<line x1="401.5" y1="352" x2="401.5" y2="302" stroke="#FF3300" stroke-width="3"/>
<circle cx="401" cy="299" r="4.5" transform="rotate(-180 401 299)" fill="#FF3300" stroke="#FF3300"/>
<line x1="453" y1="351.345" x2="400" y2="351.345" stroke="#FF3300" stroke-width="3"/>
<line x1="201.5" y1="350" x2="201.5" y2="503" stroke="#2EB59F" stroke-width="3"/>
<line x1="203" y1="351.5" x2="149" y2="351.5" stroke="#2EB59F" stroke-width="3"/>
<circle cx="150" cy="352" r="4.5" fill="#2EB59F" stroke="#2EB59F"/>
<line x1="251" y1="101.31" x2="202.724" y2="101.31" stroke="#FF3300" stroke-width="3"/>
<path d="M204.155 101.741C204.155 104.131 202.218 106.069 199.828 106.069C197.438 106.069 195.5 104.131 195.5 101.741C195.5 99.3511 197.438 97.4138 199.828 97.4138C202.218 97.414 204.155 99.3512 204.155 101.741Z" fill="#FF3300" stroke="#FF3300"/>
<line x1="249.5" y1="103" x2="249.5" stroke="#FF3300" stroke-width="3"/>
<line x1="601.5" y1="153" x2="601.5" y2="100" stroke="#FF3300" stroke-width="3"/>
<line x1="603" y1="151.31" x2="554.724" y2="151.31" stroke="#FF3300" stroke-width="3"/>
<path d="M556.155 151.741C556.155 154.131 554.218 156.069 551.828 156.069C549.438 156.069 547.5 154.131 547.5 151.741C547.5 149.351 549.438 147.414 551.828 147.414C554.218 147.414 556.155 149.351 556.155 151.741Z" fill="#FF3300" stroke="#FF3300"/>
<line x1="650" y1="251.603" x2="602.586" y2="251.603" stroke="#FF3300" stroke-width="3"/>
<path d="M603.983 252C603.983 254.342 602.084 256.241 599.742 256.241C597.399 256.241 595.5 254.342 595.5 252C595.5 249.657 597.399 247.759 599.742 247.759C602.084 247.759 603.983 249.658 603.983 252Z" fill="#FF3300" stroke="#FF3300"/>
<line x1="602.996" y1="401.5" x2="555.582" y2="401.345" stroke="#FFFF00" stroke-width="3"/>
<line x1="650.409" y1="451.665" x2="599.995" y2="451.5" stroke="#FFFF00" stroke-width="3"/>
<line x1="601.5" y1="450.409" x2="601.665" y2="399.995" stroke="#FFFF00" stroke-width="3"/>
<path d="M555.984 401.741C555.984 404.084 554.085 405.982 551.743 405.982C549.4 405.982 547.501 404.084 547.501 401.741C547.501 399.399 549.4 397.5 551.743 397.5C554.085 397.5 555.984 399.399 555.984 401.741Z" fill="#FFFF00" stroke="#FFFF00"/>
<line x1="302.999" y1="251.5" x2="155.584" y2="251.345" stroke="#FFFF00" stroke-width="3"/>
<line x1="553" y1="101.5" x2="450" y2="101.5" stroke="#FFFF00" stroke-width="3"/>
<line x1="301.5" y1="302.996" x2="301.655" y2="252.996" stroke="#FFFF00" stroke-width="3"/>
<path d="M155.982 251.741C155.982 254.084 154.084 255.983 151.741 255.983C149.399 255.983 147.5 254.084 147.5 251.741C147.5 249.399 149.399 247.5 151.741 247.5C154.084 247.5 155.982 249.399 155.982 251.741Z" fill="#FFFF00" stroke="#FFFF00"/>
<line x1="403" y1="401.5" x2="352" y2="401.5" stroke="#FFFF00" stroke-width="3"/>
</g>
<defs>
<clipPath id="clip0_1_2">
<rect width="650" height="550" fill="white"/>
</clipPath>
</defs>
</svg>
