<svg width="600" height="300" viewBox="0 0 600 300" fill="none" xmlns="http://www.w3.org/2000/svg">
<g clip-path="url(#clip0_8_259)">
<line x1="50" y1="47.5" x2="250" y2="47.5" stroke="#2482FD" stroke-width="5"/>
<line x1="250.772" y1="48.7138" x2="500.772" y2="198.714" stroke="#2482FD" stroke-width="3"/>
<line x1="50.0067" y1="53.5" x2="500.007" y2="55.5" stroke="#2EB59F" stroke-width="3"/>
<path d="M418.636 121.364V133H417.273L410.932 123.864H410.818V133H409.409V121.364H410.773L417.136 130.523H417.25V121.364H418.636ZM424.933 133.182C424.092 133.182 423.367 132.996 422.757 132.625C422.151 132.25 421.683 131.727 421.354 131.057C421.028 130.383 420.865 129.598 420.865 128.705C420.865 127.811 421.028 127.023 421.354 126.341C421.683 125.655 422.142 125.121 422.729 124.739C423.32 124.352 424.009 124.159 424.797 124.159C425.251 124.159 425.7 124.235 426.143 124.386C426.587 124.538 426.99 124.784 427.354 125.125C427.717 125.462 428.007 125.909 428.223 126.466C428.439 127.023 428.547 127.708 428.547 128.523V129.091H421.82V127.932H427.183C427.183 127.439 427.085 127 426.888 126.614C426.695 126.227 426.418 125.922 426.058 125.699C425.702 125.475 425.282 125.364 424.797 125.364C424.263 125.364 423.801 125.496 423.411 125.761C423.024 126.023 422.727 126.364 422.518 126.784C422.31 127.205 422.206 127.655 422.206 128.136V128.909C422.206 129.568 422.32 130.127 422.547 130.585C422.778 131.04 423.098 131.386 423.507 131.625C423.916 131.86 424.392 131.977 424.933 131.977C425.286 131.977 425.604 131.928 425.888 131.83C426.176 131.727 426.424 131.576 426.632 131.375C426.84 131.17 427.001 130.917 427.115 130.614L428.411 130.977C428.274 131.417 428.045 131.803 427.723 132.136C427.401 132.466 427.003 132.723 426.53 132.909C426.056 133.091 425.524 133.182 424.933 133.182ZM436.087 129.432V124.273H437.428V133H436.087V131.523H435.996C435.791 131.966 435.473 132.343 435.041 132.653C434.609 132.96 434.064 133.114 433.405 133.114C432.859 133.114 432.375 132.994 431.95 132.756C431.526 132.513 431.193 132.15 430.95 131.665C430.708 131.176 430.587 130.561 430.587 129.818V124.273H431.928V129.727C431.928 130.364 432.106 130.871 432.462 131.25C432.821 131.629 433.28 131.818 433.837 131.818C434.17 131.818 434.509 131.733 434.854 131.562C435.202 131.392 435.494 131.131 435.729 130.778C435.967 130.426 436.087 129.977 436.087 129.432ZM439.884 133V124.273H441.179V125.591H441.27C441.429 125.159 441.717 124.809 442.134 124.54C442.55 124.271 443.02 124.136 443.543 124.136C443.641 124.136 443.764 124.138 443.912 124.142C444.06 124.146 444.171 124.152 444.247 124.159V125.523C444.202 125.511 444.098 125.494 443.935 125.472C443.776 125.445 443.607 125.432 443.429 125.432C443.005 125.432 442.626 125.521 442.293 125.699C441.963 125.873 441.702 126.116 441.509 126.426C441.319 126.733 441.224 127.083 441.224 127.477V133H439.884ZM448.405 133.205C447.852 133.205 447.35 133.1 446.899 132.892C446.448 132.68 446.09 132.375 445.825 131.977C445.56 131.576 445.428 131.091 445.428 130.523C445.428 130.023 445.526 129.617 445.723 129.307C445.92 128.992 446.183 128.746 446.513 128.568C446.842 128.39 447.206 128.258 447.604 128.17C448.005 128.08 448.409 128.008 448.814 127.955C449.344 127.886 449.774 127.835 450.104 127.801C450.437 127.763 450.679 127.701 450.831 127.614C450.986 127.527 451.064 127.375 451.064 127.159V127.114C451.064 126.553 450.911 126.117 450.604 125.807C450.301 125.496 449.84 125.341 449.223 125.341C448.583 125.341 448.081 125.481 447.717 125.761C447.354 126.042 447.098 126.341 446.95 126.659L445.678 126.205C445.905 125.674 446.208 125.261 446.587 124.966C446.969 124.667 447.386 124.458 447.837 124.341C448.291 124.22 448.738 124.159 449.178 124.159C449.458 124.159 449.78 124.193 450.143 124.261C450.511 124.326 450.865 124.46 451.206 124.665C451.551 124.869 451.837 125.178 452.064 125.591C452.291 126.004 452.405 126.557 452.405 127.25V133H451.064V131.818H450.996C450.905 132.008 450.753 132.21 450.541 132.426C450.329 132.642 450.047 132.826 449.695 132.977C449.342 133.129 448.912 133.205 448.405 133.205ZM448.609 132C449.14 132 449.587 131.896 449.95 131.688C450.318 131.479 450.594 131.21 450.78 130.881C450.969 130.551 451.064 130.205 451.064 129.841V128.614C451.007 128.682 450.882 128.744 450.689 128.801C450.5 128.854 450.28 128.902 450.03 128.943C449.784 128.981 449.543 129.015 449.308 129.045C449.077 129.072 448.89 129.095 448.746 129.114C448.397 129.159 448.071 129.233 447.768 129.335C447.469 129.434 447.227 129.583 447.041 129.784C446.859 129.981 446.768 130.25 446.768 130.591C446.768 131.057 446.941 131.409 447.286 131.648C447.634 131.883 448.075 132 448.609 132ZM456.193 121.364V133H454.852V121.364H456.193ZM463.331 133V121.364H467.263C468.172 121.364 468.918 121.519 469.501 121.83C470.085 122.136 470.517 122.559 470.797 123.097C471.077 123.634 471.217 124.246 471.217 124.932C471.217 125.617 471.077 126.225 470.797 126.756C470.517 127.286 470.087 127.703 469.507 128.006C468.928 128.305 468.187 128.455 467.286 128.455H464.104V127.182H467.24C467.861 127.182 468.361 127.091 468.74 126.909C469.123 126.727 469.399 126.47 469.57 126.136C469.744 125.799 469.831 125.398 469.831 124.932C469.831 124.466 469.744 124.059 469.57 123.71C469.395 123.362 469.117 123.093 468.734 122.903C468.352 122.71 467.846 122.614 467.217 122.614H464.74V133H463.331ZM468.808 127.773L471.672 133H470.036L467.217 127.773H468.808ZM476.949 133.182C476.108 133.182 475.383 132.996 474.773 132.625C474.167 132.25 473.699 131.727 473.369 131.057C473.044 130.383 472.881 129.598 472.881 128.705C472.881 127.811 473.044 127.023 473.369 126.341C473.699 125.655 474.157 125.121 474.744 124.739C475.335 124.352 476.025 124.159 476.812 124.159C477.267 124.159 477.716 124.235 478.159 124.386C478.602 124.538 479.006 124.784 479.369 125.125C479.733 125.462 480.023 125.909 480.239 126.466C480.455 127.023 480.562 127.708 480.562 128.523V129.091H473.835V127.932H479.199C479.199 127.439 479.1 127 478.903 126.614C478.71 126.227 478.434 125.922 478.074 125.699C477.718 125.475 477.297 125.364 476.812 125.364C476.278 125.364 475.816 125.496 475.426 125.761C475.04 126.023 474.742 126.364 474.534 126.784C474.326 127.205 474.222 127.655 474.222 128.136V128.909C474.222 129.568 474.335 130.127 474.562 130.585C474.794 131.04 475.114 131.386 475.523 131.625C475.932 131.86 476.407 131.977 476.949 131.977C477.301 131.977 477.619 131.928 477.903 131.83C478.191 131.727 478.439 131.576 478.648 131.375C478.856 131.17 479.017 130.917 479.131 130.614L480.426 130.977C480.29 131.417 480.061 131.803 479.739 132.136C479.417 132.466 479.019 132.723 478.545 132.909C478.072 133.091 477.54 133.182 476.949 133.182ZM485.17 133.205C484.617 133.205 484.116 133.1 483.665 132.892C483.214 132.68 482.856 132.375 482.591 131.977C482.326 131.576 482.193 131.091 482.193 130.523C482.193 130.023 482.292 129.617 482.489 129.307C482.686 128.992 482.949 128.746 483.278 128.568C483.608 128.39 483.972 128.258 484.369 128.17C484.771 128.08 485.174 128.008 485.58 127.955C486.11 127.886 486.54 127.835 486.869 127.801C487.203 127.763 487.445 127.701 487.597 127.614C487.752 127.527 487.83 127.375 487.83 127.159V127.114C487.83 126.553 487.676 126.117 487.369 125.807C487.066 125.496 486.606 125.341 485.989 125.341C485.348 125.341 484.847 125.481 484.483 125.761C484.119 126.042 483.864 126.341 483.716 126.659L482.443 126.205C482.67 125.674 482.973 125.261 483.352 124.966C483.735 124.667 484.152 124.458 484.602 124.341C485.057 124.22 485.504 124.159 485.943 124.159C486.223 124.159 486.545 124.193 486.909 124.261C487.277 124.326 487.631 124.46 487.972 124.665C488.316 124.869 488.602 125.178 488.83 125.591C489.057 126.004 489.17 126.557 489.17 127.25V133H487.83V131.818H487.761C487.67 132.008 487.519 132.21 487.307 132.426C487.095 132.642 486.813 132.826 486.46 132.977C486.108 133.129 485.678 133.205 485.17 133.205ZM485.375 132C485.905 132 486.352 131.896 486.716 131.688C487.083 131.479 487.36 131.21 487.545 130.881C487.735 130.551 487.83 130.205 487.83 129.841V128.614C487.773 128.682 487.648 128.744 487.455 128.801C487.265 128.854 487.045 128.902 486.795 128.943C486.549 128.981 486.309 129.015 486.074 129.045C485.843 129.072 485.655 129.095 485.511 129.114C485.163 129.159 484.837 129.233 484.534 129.335C484.235 129.434 483.992 129.583 483.807 129.784C483.625 129.981 483.534 130.25 483.534 130.591C483.534 131.057 483.706 131.409 484.051 131.648C484.4 131.883 484.841 132 485.375 132ZM497.8 126.227L496.595 126.568C496.519 126.367 496.408 126.172 496.26 125.983C496.116 125.79 495.919 125.631 495.669 125.506C495.419 125.381 495.099 125.318 494.709 125.318C494.175 125.318 493.73 125.441 493.374 125.688C493.021 125.93 492.845 126.239 492.845 126.614C492.845 126.947 492.966 127.21 493.209 127.403C493.451 127.597 493.83 127.758 494.345 127.886L495.641 128.205C496.421 128.394 497.002 128.684 497.385 129.074C497.768 129.46 497.959 129.958 497.959 130.568C497.959 131.068 497.815 131.515 497.527 131.909C497.243 132.303 496.845 132.614 496.334 132.841C495.822 133.068 495.228 133.182 494.55 133.182C493.66 133.182 492.923 132.989 492.339 132.602C491.756 132.216 491.387 131.652 491.232 130.909L492.504 130.591C492.625 131.061 492.855 131.413 493.192 131.648C493.533 131.883 493.978 132 494.527 132C495.152 132 495.648 131.867 496.016 131.602C496.387 131.333 496.572 131.011 496.572 130.636C496.572 130.333 496.466 130.08 496.254 129.875C496.042 129.667 495.716 129.511 495.277 129.409L493.822 129.068C493.023 128.879 492.436 128.585 492.061 128.188C491.69 127.786 491.504 127.284 491.504 126.682C491.504 126.189 491.643 125.754 491.919 125.375C492.199 124.996 492.58 124.699 493.061 124.483C493.546 124.267 494.095 124.159 494.709 124.159C495.572 124.159 496.25 124.348 496.743 124.727C497.239 125.106 497.591 125.606 497.8 126.227ZM503.523 133.182C502.735 133.182 502.044 132.994 501.449 132.619C500.858 132.244 500.396 131.72 500.062 131.045C499.733 130.371 499.568 129.583 499.568 128.682C499.568 127.773 499.733 126.979 500.062 126.301C500.396 125.623 500.858 125.097 501.449 124.722C502.044 124.347 502.735 124.159 503.523 124.159C504.311 124.159 505 124.347 505.591 124.722C506.186 125.097 506.648 125.623 506.977 126.301C507.311 126.979 507.477 127.773 507.477 128.682C507.477 129.583 507.311 130.371 506.977 131.045C506.648 131.72 506.186 132.244 505.591 132.619C505 132.994 504.311 133.182 503.523 133.182ZM503.523 131.977C504.121 131.977 504.614 131.824 505 131.517C505.386 131.21 505.672 130.807 505.858 130.307C506.044 129.807 506.136 129.265 506.136 128.682C506.136 128.098 506.044 127.555 505.858 127.051C505.672 126.547 505.386 126.14 505 125.83C504.614 125.519 504.121 125.364 503.523 125.364C502.924 125.364 502.432 125.519 502.045 125.83C501.659 126.14 501.373 126.547 501.188 127.051C501.002 127.555 500.909 128.098 500.909 128.682C500.909 129.265 501.002 129.807 501.188 130.307C501.373 130.807 501.659 131.21 502.045 131.517C502.432 131.824 502.924 131.977 503.523 131.977ZM510.865 127.75V133H509.524V124.273H510.82V125.636H510.933C511.138 125.193 511.448 124.837 511.865 124.568C512.282 124.295 512.82 124.159 513.479 124.159C514.07 124.159 514.587 124.28 515.03 124.523C515.473 124.761 515.818 125.125 516.064 125.614C516.31 126.098 516.433 126.712 516.433 127.455V133H515.092V127.545C515.092 126.86 514.914 126.326 514.558 125.943C514.202 125.557 513.714 125.364 513.092 125.364C512.664 125.364 512.282 125.456 511.945 125.642C511.611 125.828 511.348 126.098 511.155 126.455C510.962 126.811 510.865 127.242 510.865 127.75ZM518.884 133V124.273H520.224V133H518.884ZM519.565 122.818C519.304 122.818 519.079 122.729 518.889 122.551C518.704 122.373 518.611 122.159 518.611 121.909C518.611 121.659 518.704 121.445 518.889 121.267C519.079 121.089 519.304 121 519.565 121C519.827 121 520.05 121.089 520.236 121.267C520.425 121.445 520.52 121.659 520.52 121.909C520.52 122.159 520.425 122.373 520.236 122.551C520.05 122.729 519.827 122.818 519.565 122.818ZM524.021 127.75V133H522.68V124.273H523.976V125.636H524.089C524.294 125.193 524.605 124.837 525.021 124.568C525.438 124.295 525.976 124.159 526.635 124.159C527.226 124.159 527.743 124.28 528.186 124.523C528.629 124.761 528.974 125.125 529.22 125.614C529.466 126.098 529.589 126.712 529.589 127.455V133H528.249V127.545C528.249 126.86 528.071 126.326 527.714 125.943C527.358 125.557 526.87 125.364 526.249 125.364C525.821 125.364 525.438 125.456 525.101 125.642C524.768 125.828 524.504 126.098 524.311 126.455C524.118 126.811 524.021 127.242 524.021 127.75ZM535.562 136.455C534.915 136.455 534.358 136.371 533.892 136.205C533.426 136.042 533.038 135.826 532.727 135.557C532.42 135.292 532.176 135.008 531.994 134.705L533.062 133.955C533.184 134.114 533.337 134.295 533.523 134.5C533.708 134.708 533.962 134.888 534.284 135.04C534.61 135.195 535.036 135.273 535.562 135.273C536.267 135.273 536.848 135.102 537.307 134.761C537.765 134.42 537.994 133.886 537.994 133.159V131.386H537.881C537.782 131.545 537.642 131.742 537.46 131.977C537.282 132.208 537.025 132.415 536.688 132.597C536.354 132.775 535.903 132.864 535.335 132.864C534.631 132.864 533.998 132.697 533.438 132.364C532.881 132.03 532.439 131.545 532.114 130.909C531.792 130.273 531.631 129.5 531.631 128.591C531.631 127.697 531.788 126.919 532.102 126.256C532.417 125.589 532.854 125.074 533.415 124.71C533.975 124.343 534.623 124.159 535.358 124.159C535.926 124.159 536.377 124.254 536.71 124.443C537.047 124.629 537.305 124.841 537.483 125.08C537.665 125.314 537.805 125.508 537.903 125.659H538.04V124.273H539.335V133.25C539.335 134 539.165 134.61 538.824 135.08C538.487 135.553 538.032 135.9 537.46 136.119C536.892 136.343 536.259 136.455 535.562 136.455ZM535.517 131.659C536.055 131.659 536.509 131.536 536.881 131.29C537.252 131.044 537.534 130.689 537.727 130.227C537.92 129.765 538.017 129.212 538.017 128.568C538.017 127.939 537.922 127.384 537.733 126.903C537.544 126.422 537.263 126.045 536.892 125.773C536.521 125.5 536.063 125.364 535.517 125.364C534.949 125.364 534.475 125.508 534.097 125.795C533.722 126.083 533.439 126.47 533.25 126.955C533.064 127.439 532.972 127.977 532.972 128.568C532.972 129.174 533.066 129.71 533.256 130.176C533.449 130.638 533.733 131.002 534.108 131.267C534.487 131.528 534.956 131.659 535.517 131.659Z" fill="#2482FD"/>
<path d="M385.818 264.364V276H384.409V264.364H385.818ZM389.803 270.75V276H388.462V267.273H389.757V268.636H389.871C390.075 268.193 390.386 267.837 390.803 267.568C391.219 267.295 391.757 267.159 392.416 267.159C393.007 267.159 393.524 267.28 393.967 267.523C394.411 267.761 394.755 268.125 395.001 268.614C395.248 269.098 395.371 269.712 395.371 270.455V276H394.03V270.545C394.03 269.86 393.852 269.326 393.496 268.943C393.14 268.557 392.651 268.364 392.03 268.364C391.602 268.364 391.219 268.456 390.882 268.642C390.549 268.828 390.286 269.098 390.092 269.455C389.899 269.811 389.803 270.242 389.803 270.75ZM401.366 276.182C400.548 276.182 399.844 275.989 399.253 275.602C398.662 275.216 398.207 274.684 397.889 274.006C397.571 273.328 397.412 272.553 397.412 271.682C397.412 270.795 397.575 270.013 397.901 269.335C398.23 268.653 398.688 268.121 399.276 267.739C399.866 267.352 400.556 267.159 401.344 267.159C401.957 267.159 402.51 267.273 403.003 267.5C403.495 267.727 403.899 268.045 404.213 268.455C404.527 268.864 404.723 269.341 404.798 269.886H403.457C403.355 269.489 403.128 269.136 402.776 268.83C402.427 268.519 401.957 268.364 401.366 268.364C400.844 268.364 400.385 268.5 399.991 268.773C399.601 269.042 399.296 269.422 399.077 269.915C398.861 270.403 398.753 270.977 398.753 271.636C398.753 272.311 398.859 272.898 399.071 273.398C399.287 273.898 399.59 274.286 399.98 274.562C400.374 274.839 400.836 274.977 401.366 274.977C401.715 274.977 402.031 274.917 402.315 274.795C402.599 274.674 402.84 274.5 403.037 274.273C403.234 274.045 403.374 273.773 403.457 273.455H404.798C404.723 273.97 404.535 274.434 404.236 274.847C403.94 275.256 403.548 275.581 403.06 275.824C402.575 276.062 402.01 276.182 401.366 276.182ZM406.759 276V267.273H408.054V268.591H408.145C408.304 268.159 408.592 267.809 409.009 267.54C409.425 267.271 409.895 267.136 410.418 267.136C410.516 267.136 410.639 267.138 410.787 267.142C410.935 267.146 411.046 267.152 411.122 267.159V268.523C411.077 268.511 410.973 268.494 410.81 268.472C410.651 268.445 410.482 268.432 410.304 268.432C409.88 268.432 409.501 268.521 409.168 268.699C408.838 268.873 408.577 269.116 408.384 269.426C408.194 269.733 408.099 270.083 408.099 270.477V276H406.759ZM416.105 276.182C415.264 276.182 414.539 275.996 413.929 275.625C413.323 275.25 412.855 274.727 412.526 274.057C412.2 273.383 412.037 272.598 412.037 271.705C412.037 270.811 412.2 270.023 412.526 269.341C412.855 268.655 413.313 268.121 413.901 267.739C414.491 267.352 415.181 267.159 415.969 267.159C416.423 267.159 416.872 267.235 417.315 267.386C417.759 267.538 418.162 267.784 418.526 268.125C418.889 268.462 419.179 268.909 419.395 269.466C419.611 270.023 419.719 270.708 419.719 271.523V272.091H412.991V270.932H418.355C418.355 270.439 418.257 270 418.06 269.614C417.866 269.227 417.59 268.922 417.23 268.699C416.874 268.475 416.454 268.364 415.969 268.364C415.435 268.364 414.973 268.496 414.582 268.761C414.196 269.023 413.899 269.364 413.69 269.784C413.482 270.205 413.378 270.655 413.378 271.136V271.909C413.378 272.568 413.491 273.127 413.719 273.585C413.95 274.04 414.27 274.386 414.679 274.625C415.088 274.86 415.563 274.977 416.105 274.977C416.457 274.977 416.776 274.928 417.06 274.83C417.348 274.727 417.596 274.576 417.804 274.375C418.012 274.17 418.173 273.917 418.287 273.614L419.582 273.977C419.446 274.417 419.217 274.803 418.895 275.136C418.573 275.466 418.175 275.723 417.702 275.909C417.228 276.091 416.696 276.182 416.105 276.182ZM424.327 276.205C423.774 276.205 423.272 276.1 422.821 275.892C422.37 275.68 422.012 275.375 421.747 274.977C421.482 274.576 421.349 274.091 421.349 273.523C421.349 273.023 421.448 272.617 421.645 272.307C421.842 271.992 422.105 271.746 422.435 271.568C422.764 271.39 423.128 271.258 423.526 271.17C423.927 271.08 424.33 271.008 424.736 270.955C425.266 270.886 425.696 270.835 426.026 270.801C426.359 270.763 426.601 270.701 426.753 270.614C426.908 270.527 426.986 270.375 426.986 270.159V270.114C426.986 269.553 426.832 269.117 426.526 268.807C426.223 268.496 425.762 268.341 425.145 268.341C424.505 268.341 424.003 268.481 423.639 268.761C423.276 269.042 423.02 269.341 422.872 269.659L421.599 269.205C421.827 268.674 422.13 268.261 422.509 267.966C422.891 267.667 423.308 267.458 423.759 267.341C424.213 267.22 424.66 267.159 425.099 267.159C425.38 267.159 425.702 267.193 426.065 267.261C426.433 267.326 426.787 267.46 427.128 267.665C427.473 267.869 427.759 268.178 427.986 268.591C428.213 269.004 428.327 269.557 428.327 270.25V276H426.986V274.818H426.918C426.827 275.008 426.675 275.21 426.463 275.426C426.251 275.642 425.969 275.826 425.616 275.977C425.264 276.129 424.834 276.205 424.327 276.205ZM424.531 275C425.062 275 425.509 274.896 425.872 274.688C426.24 274.479 426.516 274.21 426.702 273.881C426.891 273.551 426.986 273.205 426.986 272.841V271.614C426.929 271.682 426.804 271.744 426.611 271.801C426.421 271.854 426.202 271.902 425.952 271.943C425.705 271.981 425.465 272.015 425.23 272.045C424.999 272.072 424.812 272.095 424.668 272.114C424.319 272.159 423.993 272.233 423.69 272.335C423.391 272.434 423.149 272.583 422.963 272.784C422.781 272.981 422.69 273.25 422.69 273.591C422.69 274.057 422.863 274.409 423.207 274.648C423.556 274.883 423.997 275 424.531 275ZM436.956 269.227L435.751 269.568C435.676 269.367 435.564 269.172 435.416 268.983C435.272 268.79 435.075 268.631 434.825 268.506C434.575 268.381 434.255 268.318 433.865 268.318C433.331 268.318 432.886 268.441 432.53 268.688C432.178 268.93 432.001 269.239 432.001 269.614C432.001 269.947 432.123 270.21 432.365 270.403C432.607 270.597 432.986 270.758 433.501 270.886L434.797 271.205C435.577 271.394 436.159 271.684 436.541 272.074C436.924 272.46 437.115 272.958 437.115 273.568C437.115 274.068 436.971 274.515 436.683 274.909C436.399 275.303 436.001 275.614 435.49 275.841C434.979 276.068 434.384 276.182 433.706 276.182C432.816 276.182 432.079 275.989 431.496 275.602C430.912 275.216 430.543 274.652 430.388 273.909L431.661 273.591C431.782 274.061 432.011 274.413 432.348 274.648C432.689 274.883 433.134 275 433.683 275C434.308 275 434.804 274.867 435.172 274.602C435.543 274.333 435.729 274.011 435.729 273.636C435.729 273.333 435.623 273.08 435.411 272.875C435.198 272.667 434.873 272.511 434.433 272.409L432.979 272.068C432.179 271.879 431.592 271.585 431.217 271.188C430.846 270.786 430.661 270.284 430.661 269.682C430.661 269.189 430.799 268.754 431.075 268.375C431.356 267.996 431.736 267.699 432.217 267.483C432.702 267.267 433.251 267.159 433.865 267.159C434.729 267.159 435.407 267.348 435.899 267.727C436.395 268.106 436.748 268.606 436.956 269.227ZM439.134 276V267.273H440.474V276H439.134ZM439.815 265.818C439.554 265.818 439.329 265.729 439.139 265.551C438.954 265.373 438.861 265.159 438.861 264.909C438.861 264.659 438.954 264.445 439.139 264.267C439.329 264.089 439.554 264 439.815 264C440.077 264 440.3 264.089 440.486 264.267C440.675 264.445 440.77 264.659 440.77 264.909C440.77 265.159 440.675 265.373 440.486 265.551C440.3 265.729 440.077 265.818 439.815 265.818ZM444.271 270.75V276H442.93V267.273H444.226V268.636H444.339C444.544 268.193 444.855 267.837 445.271 267.568C445.688 267.295 446.226 267.159 446.885 267.159C447.476 267.159 447.993 267.28 448.436 267.523C448.879 267.761 449.224 268.125 449.47 268.614C449.716 269.098 449.839 269.712 449.839 270.455V276H448.499V270.545C448.499 269.86 448.321 269.326 447.964 268.943C447.608 268.557 447.12 268.364 446.499 268.364C446.071 268.364 445.688 268.456 445.351 268.642C445.018 268.828 444.754 269.098 444.561 269.455C444.368 269.811 444.271 270.242 444.271 270.75ZM455.812 279.455C455.165 279.455 454.608 279.371 454.142 279.205C453.676 279.042 453.288 278.826 452.977 278.557C452.67 278.292 452.426 278.008 452.244 277.705L453.312 276.955C453.434 277.114 453.587 277.295 453.773 277.5C453.958 277.708 454.212 277.888 454.534 278.04C454.86 278.195 455.286 278.273 455.812 278.273C456.517 278.273 457.098 278.102 457.557 277.761C458.015 277.42 458.244 276.886 458.244 276.159V274.386H458.131C458.032 274.545 457.892 274.742 457.71 274.977C457.532 275.208 457.275 275.415 456.938 275.597C456.604 275.775 456.153 275.864 455.585 275.864C454.881 275.864 454.248 275.697 453.688 275.364C453.131 275.03 452.689 274.545 452.364 273.909C452.042 273.273 451.881 272.5 451.881 271.591C451.881 270.697 452.038 269.919 452.352 269.256C452.667 268.589 453.104 268.074 453.665 267.71C454.225 267.343 454.873 267.159 455.608 267.159C456.176 267.159 456.627 267.254 456.96 267.443C457.297 267.629 457.555 267.841 457.733 268.08C457.915 268.314 458.055 268.508 458.153 268.659H458.29V267.273H459.585V276.25C459.585 277 459.415 277.61 459.074 278.08C458.737 278.553 458.282 278.9 457.71 279.119C457.142 279.343 456.509 279.455 455.812 279.455ZM455.767 274.659C456.305 274.659 456.759 274.536 457.131 274.29C457.502 274.044 457.784 273.689 457.977 273.227C458.17 272.765 458.267 272.212 458.267 271.568C458.267 270.939 458.172 270.384 457.983 269.903C457.794 269.422 457.513 269.045 457.142 268.773C456.771 268.5 456.313 268.364 455.767 268.364C455.199 268.364 454.725 268.508 454.347 268.795C453.972 269.083 453.689 269.47 453.5 269.955C453.314 270.439 453.222 270.977 453.222 271.568C453.222 272.174 453.316 272.71 453.506 273.176C453.699 273.638 453.983 274.002 454.358 274.267C454.737 274.528 455.206 274.659 455.767 274.659ZM470.312 276H466.722V264.364H470.472C471.6 264.364 472.566 264.597 473.369 265.062C474.172 265.525 474.788 266.189 475.216 267.057C475.644 267.92 475.858 268.955 475.858 270.159C475.858 271.371 475.642 272.415 475.21 273.29C474.778 274.161 474.15 274.831 473.324 275.301C472.498 275.767 471.494 276 470.312 276ZM468.131 274.75H470.222C471.184 274.75 471.981 274.564 472.614 274.193C473.246 273.822 473.718 273.294 474.028 272.608C474.339 271.922 474.494 271.106 474.494 270.159C474.494 269.22 474.341 268.411 474.034 267.733C473.727 267.051 473.269 266.528 472.659 266.165C472.049 265.797 471.29 265.614 470.381 265.614H468.131V274.75ZM481.699 276.182C480.858 276.182 480.133 275.996 479.523 275.625C478.917 275.25 478.449 274.727 478.119 274.057C477.794 273.383 477.631 272.598 477.631 271.705C477.631 270.811 477.794 270.023 478.119 269.341C478.449 268.655 478.907 268.121 479.494 267.739C480.085 267.352 480.775 267.159 481.562 267.159C482.017 267.159 482.466 267.235 482.909 267.386C483.352 267.538 483.756 267.784 484.119 268.125C484.483 268.462 484.773 268.909 484.989 269.466C485.205 270.023 485.312 270.708 485.312 271.523V272.091H478.585V270.932H483.949C483.949 270.439 483.85 270 483.653 269.614C483.46 269.227 483.184 268.922 482.824 268.699C482.468 268.475 482.047 268.364 481.562 268.364C481.028 268.364 480.566 268.496 480.176 268.761C479.79 269.023 479.492 269.364 479.284 269.784C479.076 270.205 478.972 270.655 478.972 271.136V271.909C478.972 272.568 479.085 273.127 479.312 273.585C479.544 274.04 479.864 274.386 480.273 274.625C480.682 274.86 481.157 274.977 481.699 274.977C482.051 274.977 482.369 274.928 482.653 274.83C482.941 274.727 483.189 274.576 483.398 274.375C483.606 274.17 483.767 273.917 483.881 273.614L485.176 273.977C485.04 274.417 484.811 274.803 484.489 275.136C484.167 275.466 483.769 275.723 483.295 275.909C482.822 276.091 482.29 276.182 481.699 276.182ZM487.352 279.273V267.273H488.648V268.659H488.807C488.905 268.508 489.042 268.314 489.216 268.08C489.394 267.841 489.648 267.629 489.977 267.443C490.311 267.254 490.761 267.159 491.33 267.159C492.064 267.159 492.712 267.343 493.273 267.71C493.833 268.078 494.271 268.598 494.585 269.273C494.9 269.947 495.057 270.742 495.057 271.659C495.057 272.583 494.9 273.384 494.585 274.062C494.271 274.737 493.835 275.259 493.278 275.631C492.722 275.998 492.08 276.182 491.352 276.182C490.792 276.182 490.343 276.089 490.006 275.903C489.669 275.714 489.409 275.5 489.227 275.261C489.045 275.019 488.905 274.818 488.807 274.659H488.693V279.273H487.352ZM488.67 271.636C488.67 272.295 488.767 272.877 488.96 273.381C489.153 273.881 489.436 274.273 489.807 274.557C490.178 274.837 490.633 274.977 491.17 274.977C491.731 274.977 492.199 274.83 492.574 274.534C492.953 274.235 493.237 273.833 493.426 273.33C493.619 272.822 493.716 272.258 493.716 271.636C493.716 271.023 493.621 270.47 493.432 269.977C493.246 269.481 492.964 269.089 492.585 268.801C492.21 268.509 491.739 268.364 491.17 268.364C490.625 268.364 490.167 268.502 489.795 268.778C489.424 269.051 489.144 269.434 488.955 269.926C488.765 270.415 488.67 270.985 488.67 271.636ZM500.898 267.273V268.409H496.375V267.273H500.898ZM497.693 265.182H499.034V273.5C499.034 273.879 499.089 274.163 499.199 274.352C499.313 274.538 499.456 274.663 499.631 274.727C499.809 274.788 499.996 274.818 500.193 274.818C500.341 274.818 500.462 274.811 500.557 274.795C500.652 274.777 500.727 274.761 500.784 274.75L501.057 275.955C500.966 275.989 500.839 276.023 500.676 276.057C500.513 276.095 500.307 276.114 500.057 276.114C499.678 276.114 499.307 276.032 498.943 275.869C498.583 275.706 498.284 275.458 498.045 275.125C497.811 274.792 497.693 274.371 497.693 273.864V265.182ZM504.443 270.75V276H503.102V264.364H504.443V268.636H504.557C504.761 268.186 505.068 267.828 505.477 267.562C505.89 267.294 506.439 267.159 507.125 267.159C507.72 267.159 508.241 267.278 508.688 267.517C509.134 267.752 509.481 268.114 509.727 268.602C509.977 269.087 510.102 269.705 510.102 270.455V276H508.761V270.545C508.761 269.852 508.581 269.316 508.222 268.938C507.866 268.555 507.371 268.364 506.739 268.364C506.299 268.364 505.905 268.456 505.557 268.642C505.212 268.828 504.939 269.098 504.739 269.455C504.542 269.811 504.443 270.242 504.443 270.75Z" fill="white"/>
<path d="M407.773 33.2727C407.705 32.697 407.428 32.25 406.943 31.9318C406.458 31.6136 405.864 31.4545 405.159 31.4545C404.644 31.4545 404.193 31.5379 403.807 31.7045C403.424 31.8712 403.125 32.1004 402.909 32.392C402.697 32.6837 402.591 33.0152 402.591 33.3864C402.591 33.697 402.665 33.964 402.812 34.1875C402.964 34.4072 403.157 34.5909 403.392 34.7386C403.627 34.8826 403.873 35.0019 404.131 35.0966C404.388 35.1875 404.625 35.2614 404.841 35.3182L406.023 35.6364C406.326 35.7159 406.663 35.8258 407.034 35.9659C407.409 36.1061 407.767 36.2973 408.108 36.5398C408.453 36.7784 408.737 37.0852 408.96 37.4602C409.184 37.8352 409.295 38.2955 409.295 38.8409C409.295 39.4697 409.131 40.0379 408.801 40.5455C408.475 41.053 407.998 41.4564 407.369 41.7557C406.744 42.0549 405.985 42.2045 405.091 42.2045C404.258 42.2045 403.536 42.0701 402.926 41.8011C402.32 41.5322 401.843 41.1572 401.494 40.6761C401.15 40.1951 400.955 39.6364 400.909 39H402.364C402.402 39.4394 402.549 39.803 402.807 40.0909C403.068 40.375 403.398 40.5871 403.795 40.7273C404.197 40.8636 404.629 40.9318 405.091 40.9318C405.629 40.9318 406.112 40.8447 406.54 40.6705C406.968 40.4924 407.307 40.2462 407.557 39.9318C407.807 39.6136 407.932 39.2424 407.932 38.8182C407.932 38.4318 407.824 38.1174 407.608 37.875C407.392 37.6326 407.108 37.4356 406.756 37.2841C406.403 37.1326 406.023 37 405.614 36.8864L404.182 36.4773C403.273 36.2159 402.553 35.8428 402.023 35.358C401.492 34.8731 401.227 34.2386 401.227 33.4545C401.227 32.803 401.403 32.2348 401.756 31.75C402.112 31.2614 402.589 30.8826 403.188 30.6136C403.79 30.3409 404.462 30.2045 405.205 30.2045C405.955 30.2045 406.621 30.339 407.205 30.608C407.788 30.8731 408.25 31.2367 408.591 31.6989C408.936 32.161 409.117 32.6856 409.136 33.2727H407.773ZM412.294 45.2727C412.067 45.2727 411.864 45.2538 411.686 45.2159C411.508 45.1818 411.385 45.1477 411.317 45.1136L411.658 43.9318C411.983 44.0152 412.271 44.0455 412.521 44.0227C412.771 44 412.993 43.8883 413.186 43.6875C413.383 43.4905 413.563 43.1705 413.726 42.7273L413.976 42.0455L410.749 33.2727H412.203L414.612 40.2273H414.703L417.112 33.2727H418.567L414.862 43.2727C414.696 43.7235 414.489 44.0966 414.243 44.392C413.997 44.6913 413.711 44.9129 413.385 45.0568C413.063 45.2008 412.699 45.2727 412.294 45.2727ZM420.337 42V33.2727H421.632V34.6364H421.746C421.928 34.1705 422.221 33.8087 422.626 33.5511C423.032 33.2898 423.518 33.1591 424.087 33.1591C424.662 33.1591 425.142 33.2898 425.524 33.5511C425.911 33.8087 426.212 34.1705 426.428 34.6364H426.518C426.742 34.1856 427.077 33.8277 427.524 33.5625C427.971 33.2936 428.507 33.1591 429.132 33.1591C429.912 33.1591 430.551 33.4034 431.047 33.892C431.543 34.3769 431.791 35.1326 431.791 36.1591V42H430.45V36.1591C430.45 35.5152 430.274 35.0549 429.922 34.7784C429.57 34.5019 429.155 34.3636 428.678 34.3636C428.064 34.3636 427.589 34.5492 427.251 34.9205C426.914 35.2879 426.746 35.7538 426.746 36.3182V42H425.382V36.0227C425.382 35.5265 425.221 35.1269 424.899 34.8239C424.577 34.517 424.162 34.3636 423.655 34.3636C423.306 34.3636 422.981 34.4564 422.678 34.642C422.378 34.8277 422.136 35.0852 421.95 35.4148C421.768 35.7405 421.678 36.1174 421.678 36.5455V42H420.337ZM434.425 42V30.3636H435.766V34.6591H435.879C435.978 34.5076 436.114 34.3144 436.288 34.0795C436.466 33.8409 436.72 33.6288 437.05 33.4432C437.383 33.2538 437.834 33.1591 438.402 33.1591C439.137 33.1591 439.785 33.3428 440.345 33.7102C440.906 34.0777 441.343 34.5985 441.658 35.2727C441.972 35.947 442.129 36.7424 442.129 37.6591C442.129 38.5833 441.972 39.3845 441.658 40.0625C441.343 40.7367 440.908 41.2595 440.351 41.6307C439.794 41.9981 439.152 42.1818 438.425 42.1818C437.864 42.1818 437.415 42.089 437.078 41.9034C436.741 41.714 436.482 41.5 436.3 41.2614C436.118 41.0189 435.978 40.8182 435.879 40.6591H435.72V42H434.425ZM435.743 37.6364C435.743 38.2955 435.839 38.8769 436.033 39.3807C436.226 39.8807 436.508 40.2727 436.879 40.5568C437.25 40.8371 437.705 40.9773 438.243 40.9773C438.804 40.9773 439.271 40.8295 439.646 40.5341C440.025 40.2348 440.309 39.8333 440.499 39.3295C440.692 38.822 440.788 38.2576 440.788 37.6364C440.788 37.0227 440.694 36.4697 440.504 35.9773C440.319 35.4811 440.036 35.089 439.658 34.8011C439.283 34.5095 438.811 34.3636 438.243 34.3636C437.697 34.3636 437.239 34.5019 436.868 34.7784C436.497 35.0511 436.216 35.4337 436.027 35.9261C435.838 36.4148 435.743 36.9848 435.743 37.6364ZM447.726 42.1818C446.938 42.1818 446.247 41.9943 445.652 41.6193C445.061 41.2443 444.599 40.7197 444.266 40.0455C443.936 39.3712 443.771 38.5833 443.771 37.6818C443.771 36.7727 443.936 35.9792 444.266 35.3011C444.599 34.6231 445.061 34.0966 445.652 33.7216C446.247 33.3466 446.938 33.1591 447.726 33.1591C448.514 33.1591 449.203 33.3466 449.794 33.7216C450.389 34.0966 450.851 34.6231 451.18 35.3011C451.514 35.9792 451.68 36.7727 451.68 37.6818C451.68 38.5833 451.514 39.3712 451.18 40.0455C450.851 40.7197 450.389 41.2443 449.794 41.6193C449.203 41.9943 448.514 42.1818 447.726 42.1818ZM447.726 40.9773C448.324 40.9773 448.817 40.8239 449.203 40.517C449.589 40.2102 449.875 39.8068 450.061 39.3068C450.247 38.8068 450.339 38.2652 450.339 37.6818C450.339 37.0985 450.247 36.5549 450.061 36.0511C449.875 35.5473 449.589 35.1402 449.203 34.8295C448.817 34.5189 448.324 34.3636 447.726 34.3636C447.127 34.3636 446.635 34.5189 446.249 34.8295C445.862 35.1402 445.576 35.5473 445.391 36.0511C445.205 36.5549 445.112 37.0985 445.112 37.6818C445.112 38.2652 445.205 38.8068 445.391 39.3068C445.576 39.8068 445.862 40.2102 446.249 40.517C446.635 40.8239 447.127 40.9773 447.726 40.9773ZM455.068 30.3636V42H453.727V30.3636H455.068ZM457.524 42V33.2727H458.865V42H457.524ZM458.206 31.8182C457.945 31.8182 457.719 31.7292 457.53 31.5511C457.344 31.3731 457.251 31.1591 457.251 30.9091C457.251 30.6591 457.344 30.4451 457.53 30.267C457.719 30.089 457.945 30 458.206 30C458.467 30 458.691 30.089 458.876 30.267C459.066 30.4451 459.161 30.6591 459.161 30.9091C459.161 31.1591 459.066 31.3731 458.876 31.5511C458.691 31.7292 458.467 31.8182 458.206 31.8182ZM464.866 42.1818C464.048 42.1818 463.344 41.9886 462.753 41.6023C462.162 41.2159 461.707 40.6837 461.389 40.0057C461.071 39.3277 460.912 38.553 460.912 37.6818C460.912 36.7955 461.075 36.0133 461.401 35.3352C461.73 34.6534 462.188 34.1212 462.776 33.7386C463.366 33.3523 464.056 33.1591 464.844 33.1591C465.457 33.1591 466.01 33.2727 466.503 33.5C466.995 33.7273 467.399 34.0455 467.713 34.4545C468.027 34.8636 468.223 35.3409 468.298 35.8864H466.957C466.855 35.4886 466.628 35.1364 466.276 34.8295C465.927 34.5189 465.457 34.3636 464.866 34.3636C464.344 34.3636 463.885 34.5 463.491 34.7727C463.101 35.0417 462.796 35.4223 462.577 35.9148C462.361 36.4034 462.253 36.9773 462.253 37.6364C462.253 38.3106 462.359 38.8977 462.571 39.3977C462.787 39.8977 463.09 40.286 463.48 40.5625C463.874 40.839 464.336 40.9773 464.866 40.9773C465.215 40.9773 465.531 40.9167 465.815 40.7955C466.099 40.6742 466.34 40.5 466.537 40.2727C466.734 40.0455 466.874 39.7727 466.957 39.4545H468.298C468.223 39.9697 468.035 40.4337 467.736 40.8466C467.44 41.2557 467.048 41.5814 466.56 41.8239C466.075 42.0625 465.51 42.1818 464.866 42.1818ZM474.94 42V30.3636H478.872C479.781 30.3636 480.527 30.5189 481.111 30.8295C481.694 31.1364 482.126 31.5587 482.406 32.0966C482.687 32.6345 482.827 33.2462 482.827 33.9318C482.827 34.6174 482.687 35.2254 482.406 35.7557C482.126 36.286 481.696 36.7027 481.116 37.0057C480.537 37.3049 479.796 37.4545 478.895 37.4545H475.713V36.1818H478.849C479.471 36.1818 479.971 36.0909 480.349 35.9091C480.732 35.7273 481.009 35.4697 481.179 35.1364C481.353 34.7992 481.44 34.3977 481.44 33.9318C481.44 33.4659 481.353 33.0587 481.179 32.7102C481.005 32.3617 480.726 32.0928 480.344 31.9034C479.961 31.7102 479.455 31.6136 478.827 31.6136H476.349V42H474.94ZM480.418 36.7727L483.281 42H481.645L478.827 36.7727H480.418ZM488.558 42.1818C487.717 42.1818 486.992 41.9962 486.382 41.625C485.776 41.25 485.308 40.7273 484.979 40.0568C484.653 39.3826 484.49 38.5985 484.49 37.7045C484.49 36.8106 484.653 36.0227 484.979 35.3409C485.308 34.6553 485.767 34.1212 486.354 33.7386C486.945 33.3523 487.634 33.1591 488.422 33.1591C488.876 33.1591 489.325 33.2348 489.768 33.3864C490.212 33.5379 490.615 33.7841 490.979 34.125C491.342 34.4621 491.632 34.9091 491.848 35.4659C492.064 36.0227 492.172 36.7083 492.172 37.5227V38.0909H485.445V36.9318H490.808C490.808 36.4394 490.71 36 490.513 35.6136C490.32 35.2273 490.043 34.9223 489.683 34.6989C489.327 34.4754 488.907 34.3636 488.422 34.3636C487.888 34.3636 487.426 34.4962 487.036 34.7614C486.649 35.0227 486.352 35.3636 486.143 35.7841C485.935 36.2045 485.831 36.6553 485.831 37.1364V37.9091C485.831 38.5682 485.945 39.1269 486.172 39.5852C486.403 40.0398 486.723 40.3864 487.132 40.625C487.541 40.8598 488.017 40.9773 488.558 40.9773C488.911 40.9773 489.229 40.928 489.513 40.8295C489.801 40.7273 490.049 40.5758 490.257 40.375C490.465 40.1705 490.626 39.9167 490.74 39.6136L492.036 39.9773C491.899 40.4167 491.67 40.803 491.348 41.1364C491.026 41.4659 490.628 41.7235 490.155 41.9091C489.681 42.0909 489.149 42.1818 488.558 42.1818ZM496.78 42.2045C496.227 42.2045 495.725 42.1004 495.274 41.892C494.823 41.6799 494.465 41.375 494.2 40.9773C493.935 40.5758 493.803 40.0909 493.803 39.5227C493.803 39.0227 493.901 38.6174 494.098 38.3068C494.295 37.9924 494.558 37.7462 494.888 37.5682C495.217 37.3902 495.581 37.2576 495.979 37.1705C496.38 37.0795 496.784 37.0076 497.189 36.9545C497.719 36.8864 498.149 36.8352 498.479 36.8011C498.812 36.7633 499.054 36.7008 499.206 36.6136C499.361 36.5265 499.439 36.375 499.439 36.1591V36.1136C499.439 35.553 499.286 35.1174 498.979 34.8068C498.676 34.4962 498.215 34.3409 497.598 34.3409C496.958 34.3409 496.456 34.4811 496.092 34.7614C495.729 35.0417 495.473 35.3409 495.325 35.6591L494.053 35.2045C494.28 34.6742 494.583 34.2614 494.962 33.9659C495.344 33.6667 495.761 33.4583 496.212 33.3409C496.666 33.2197 497.113 33.1591 497.553 33.1591C497.833 33.1591 498.155 33.1932 498.518 33.2614C498.886 33.3258 499.24 33.4602 499.581 33.6648C499.926 33.8693 500.212 34.178 500.439 34.5909C500.666 35.0038 500.78 35.5568 500.78 36.25V42H499.439V40.8182H499.371C499.28 41.0076 499.128 41.2102 498.916 41.4261C498.704 41.642 498.422 41.8258 498.07 41.9773C497.717 42.1288 497.287 42.2045 496.78 42.2045ZM496.984 41C497.515 41 497.962 40.8958 498.325 40.6875C498.693 40.4792 498.969 40.2102 499.155 39.8807C499.344 39.5511 499.439 39.2045 499.439 38.8409V37.6136C499.382 37.6818 499.257 37.7443 499.064 37.8011C498.875 37.8542 498.655 37.9015 498.405 37.9432C498.159 37.9811 497.918 38.0152 497.683 38.0455C497.452 38.072 497.265 38.0947 497.121 38.1136C496.772 38.1591 496.446 38.233 496.143 38.3352C495.844 38.4337 495.602 38.5833 495.416 38.7841C495.234 38.9811 495.143 39.25 495.143 39.5909C495.143 40.0568 495.316 40.4091 495.661 40.6477C496.009 40.8826 496.45 41 496.984 41ZM509.409 35.2273L508.205 35.5682C508.129 35.3674 508.017 35.1723 507.869 34.983C507.725 34.7898 507.528 34.6307 507.278 34.5057C507.028 34.3807 506.708 34.3182 506.318 34.3182C505.784 34.3182 505.339 34.4413 504.983 34.6875C504.631 34.9299 504.455 35.2386 504.455 35.6136C504.455 35.947 504.576 36.2102 504.818 36.4034C505.061 36.5966 505.439 36.7576 505.955 36.8864L507.25 37.2045C508.03 37.3939 508.612 37.6837 508.994 38.0739C509.377 38.4602 509.568 38.9583 509.568 39.5682C509.568 40.0682 509.424 40.5152 509.136 40.9091C508.852 41.303 508.455 41.6136 507.943 41.8409C507.432 42.0682 506.837 42.1818 506.159 42.1818C505.269 42.1818 504.532 41.9886 503.949 41.6023C503.366 41.2159 502.996 40.6515 502.841 39.9091L504.114 39.5909C504.235 40.0606 504.464 40.4129 504.801 40.6477C505.142 40.8826 505.587 41 506.136 41C506.761 41 507.258 40.8674 507.625 40.6023C507.996 40.3333 508.182 40.0114 508.182 39.6364C508.182 39.3333 508.076 39.0795 507.864 38.875C507.652 38.6667 507.326 38.5114 506.886 38.4091L505.432 38.0682C504.633 37.8788 504.045 37.5852 503.67 37.1875C503.299 36.786 503.114 36.2841 503.114 35.6818C503.114 35.1894 503.252 34.7538 503.528 34.375C503.809 33.9962 504.189 33.6989 504.67 33.483C505.155 33.267 505.705 33.1591 506.318 33.1591C507.182 33.1591 507.86 33.3485 508.352 33.7273C508.848 34.1061 509.201 34.6061 509.409 35.2273ZM515.132 42.1818C514.344 42.1818 513.653 41.9943 513.058 41.6193C512.467 41.2443 512.005 40.7197 511.672 40.0455C511.342 39.3712 511.178 38.5833 511.178 37.6818C511.178 36.7727 511.342 35.9792 511.672 35.3011C512.005 34.6231 512.467 34.0966 513.058 33.7216C513.653 33.3466 514.344 33.1591 515.132 33.1591C515.92 33.1591 516.609 33.3466 517.2 33.7216C517.795 34.0966 518.257 34.6231 518.587 35.3011C518.92 35.9792 519.087 36.7727 519.087 37.6818C519.087 38.5833 518.92 39.3712 518.587 40.0455C518.257 40.7197 517.795 41.2443 517.2 41.6193C516.609 41.9943 515.92 42.1818 515.132 42.1818ZM515.132 40.9773C515.731 40.9773 516.223 40.8239 516.609 40.517C516.996 40.2102 517.282 39.8068 517.467 39.3068C517.653 38.8068 517.746 38.2652 517.746 37.6818C517.746 37.0985 517.653 36.5549 517.467 36.0511C517.282 35.5473 516.996 35.1402 516.609 34.8295C516.223 34.5189 515.731 34.3636 515.132 34.3636C514.534 34.3636 514.041 34.5189 513.655 34.8295C513.268 35.1402 512.982 35.5473 512.797 36.0511C512.611 36.5549 512.518 37.0985 512.518 37.6818C512.518 38.2652 512.611 38.8068 512.797 39.3068C512.982 39.8068 513.268 40.2102 513.655 40.517C514.041 40.8239 514.534 40.9773 515.132 40.9773ZM522.474 36.75V42H521.134V33.2727H522.429V34.6364H522.543C522.747 34.1932 523.058 33.8371 523.474 33.5682C523.891 33.2955 524.429 33.1591 525.088 33.1591C525.679 33.1591 526.196 33.2803 526.639 33.5227C527.082 33.7614 527.427 34.125 527.673 34.6136C527.92 35.0985 528.043 35.7121 528.043 36.4545V42H526.702V36.5455C526.702 35.8598 526.524 35.3258 526.168 34.9432C525.812 34.5568 525.323 34.3636 524.702 34.3636C524.274 34.3636 523.891 34.4564 523.554 34.642C523.221 34.8277 522.957 35.0985 522.764 35.4545C522.571 35.8106 522.474 36.2424 522.474 36.75ZM530.493 42V33.2727H531.834V42H530.493ZM531.175 31.8182C530.913 31.8182 530.688 31.7292 530.499 31.5511C530.313 31.3731 530.22 31.1591 530.22 30.9091C530.22 30.6591 530.313 30.4451 530.499 30.267C530.688 30.089 530.913 30 531.175 30C531.436 30 531.66 30.089 531.845 30.267C532.035 30.4451 532.129 30.6591 532.129 30.9091C532.129 31.1591 532.035 31.3731 531.845 31.5511C531.66 31.7292 531.436 31.8182 531.175 31.8182ZM535.631 36.75V42H534.29V33.2727H535.585V34.6364H535.699C535.903 34.1932 536.214 33.8371 536.631 33.5682C537.047 33.2955 537.585 33.1591 538.244 33.1591C538.835 33.1591 539.352 33.2803 539.795 33.5227C540.239 33.7614 540.583 34.125 540.83 34.6136C541.076 35.0985 541.199 35.7121 541.199 36.4545V42H539.858V36.5455C539.858 35.8598 539.68 35.3258 539.324 34.9432C538.968 34.5568 538.479 34.3636 537.858 34.3636C537.43 34.3636 537.047 34.4564 536.71 34.642C536.377 34.8277 536.114 35.0985 535.92 35.4545C535.727 35.8106 535.631 36.2424 535.631 36.75ZM547.172 45.4545C546.524 45.4545 545.967 45.3712 545.501 45.2045C545.036 45.0417 544.647 44.8258 544.337 44.5568C544.03 44.2917 543.786 44.0076 543.604 43.7045L544.672 42.9545C544.793 43.1136 544.946 43.2955 545.132 43.5C545.318 43.7083 545.571 43.8883 545.893 44.0398C546.219 44.1951 546.645 44.2727 547.172 44.2727C547.876 44.2727 548.458 44.1023 548.916 43.7614C549.375 43.4205 549.604 42.8864 549.604 42.1591V40.3864H549.49C549.392 40.5455 549.251 40.7424 549.07 40.9773C548.892 41.2083 548.634 41.4148 548.297 41.5966C547.964 41.7746 547.513 41.8636 546.945 41.8636C546.24 41.8636 545.607 41.697 545.047 41.3636C544.49 41.0303 544.049 40.5455 543.723 39.9091C543.401 39.2727 543.24 38.5 543.24 37.5909C543.24 36.697 543.397 35.9186 543.712 35.2557C544.026 34.589 544.464 34.0739 545.024 33.7102C545.585 33.3428 546.232 33.1591 546.967 33.1591C547.536 33.1591 547.986 33.2538 548.32 33.4432C548.657 33.6288 548.914 33.8409 549.092 34.0795C549.274 34.3144 549.414 34.5076 549.513 34.6591H549.649V33.2727H550.945V42.25C550.945 43 550.774 43.6098 550.433 44.0795C550.096 44.553 549.642 44.8996 549.07 45.1193C548.501 45.3428 547.869 45.4545 547.172 45.4545ZM547.126 40.6591C547.664 40.6591 548.119 40.536 548.49 40.2898C548.861 40.0436 549.143 39.6894 549.337 39.2273C549.53 38.7652 549.626 38.2121 549.626 37.5682C549.626 36.9394 549.532 36.3845 549.342 35.9034C549.153 35.4223 548.873 35.0455 548.501 34.7727C548.13 34.5 547.672 34.3636 547.126 34.3636C546.558 34.3636 546.085 34.5076 545.706 34.7955C545.331 35.0833 545.049 35.4697 544.859 35.9545C544.674 36.4394 544.581 36.9773 544.581 37.5682C544.581 38.1742 544.676 38.7102 544.865 39.1761C545.058 39.6383 545.342 40.0019 545.717 40.267C546.096 40.5284 546.566 40.6591 547.126 40.6591Z" fill="#2EB59F"/>
<line x1="51.5" x2="51.5" y2="300" stroke="white" stroke-opacity="0.5" stroke-width="3"/>
<line x1="600" y1="250.5" y2="250.5" stroke="white" stroke-opacity="0.5" stroke-width="3"/>
</g>
<defs>
<clipPath id="clip0_8_259">
<rect width="600" height="300" fill="white"/>
</clipPath>
</defs>
</svg>
