<svg width="199" height="201" viewBox="0 0 199 201" fill="none" xmlns="http://www.w3.org/2000/svg">
<g opacity="0.5">
<line x1="154.393" y1="53.3329" x2="134.487" y2="53.3329" stroke="#2EB59F" stroke-width="3"/>
<circle cx="134.686" cy="52.2311" r="0.5" fill="#2EB59F" stroke="#2EB59F" stroke-width="0.990669"/>
<line x1="114.782" y1="72.9466" x2="104.101" y2="72.9466" stroke="#2EB59F" stroke-width="3"/>
<line x1="104.101" y1="82.9" x2="84.3201" y2="82.9" stroke="#2EB59F" stroke-width="3"/>
<mask id="path-5-inside-1_8_173" fill="white">
<ellipse cx="84.5212" cy="81.8013" rx="0.99218" ry="0.99218"/>
</mask>
<ellipse cx="84.5212" cy="81.8013" rx="0.99218" ry="0.99218" fill="#2EB59F"/>
<path d="M85.5134 81.8013H84.5134C84.5134 81.802 84.5134 81.8018 84.5136 81.8007C84.5137 81.7998 84.5141 81.7988 84.5144 81.7979C84.5148 81.7971 84.5151 81.7965 84.5153 81.7962C84.5155 81.7959 84.5157 81.7958 84.5157 81.7957C84.5157 81.7957 84.5159 81.7956 84.5162 81.7954C84.5165 81.7952 84.517 81.7948 84.5179 81.7945C84.5188 81.7941 84.5198 81.7938 84.5207 81.7936C84.5217 81.7934 84.522 81.7934 84.5212 81.7934V82.7934V83.7934C85.6215 83.7934 86.5134 82.9015 86.5134 81.8013H85.5134ZM84.5212 82.7934V81.7934C84.5205 81.7934 84.5207 81.7934 84.5217 81.7936C84.5227 81.7938 84.5237 81.7941 84.5246 81.7945C84.5254 81.7948 84.526 81.7952 84.5263 81.7954C84.5266 81.7956 84.5267 81.7957 84.5268 81.7957C84.5268 81.7958 84.5269 81.7959 84.5271 81.7962C84.5273 81.7965 84.5277 81.7971 84.528 81.7979C84.5284 81.7988 84.5287 81.7998 84.5289 81.8007C84.5291 81.8018 84.5291 81.802 84.5291 81.8013H83.5291H82.5291C82.5291 82.9015 83.421 83.7934 84.5212 83.7934V82.7934ZM83.5291 81.8013H84.5291C84.5291 81.8005 84.5291 81.8008 84.5289 81.8018C84.5287 81.8027 84.5284 81.8037 84.528 81.8046C84.5277 81.8055 84.5273 81.806 84.5271 81.8063C84.5269 81.8066 84.5268 81.8067 84.5268 81.8068C84.5267 81.8068 84.5266 81.807 84.5263 81.8072C84.526 81.8074 84.5254 81.8077 84.5246 81.8081C84.5237 81.8084 84.5227 81.8087 84.5217 81.8089C84.5207 81.8091 84.5205 81.8091 84.5212 81.8091V80.8091V79.8091C83.421 79.8091 82.5291 80.701 82.5291 81.8013H83.5291ZM84.5212 80.8091V81.8091C84.522 81.8091 84.5217 81.8091 84.5207 81.8089C84.5198 81.8087 84.5188 81.8084 84.5179 81.8081C84.517 81.8077 84.5165 81.8074 84.5162 81.8072C84.5159 81.807 84.5157 81.8068 84.5157 81.8068C84.5157 81.8067 84.5155 81.8066 84.5153 81.8063C84.5151 81.806 84.5148 81.8055 84.5144 81.8046C84.5141 81.8037 84.5137 81.8027 84.5136 81.8018C84.5134 81.8008 84.5134 81.8005 84.5134 81.8013H85.5134H86.5134C86.5134 80.701 85.6215 79.8091 84.5212 79.8091V80.8091Z" fill="#2EB59F" mask="url(#path-5-inside-1_8_173)"/>
<line x1="105.601" y1="71.4466" x2="105.601" y2="81.9972" stroke="#2EB59F" stroke-width="3"/>
<line x1="154.728" y1="141.871" x2="134.821" y2="141.871" stroke="#2EB59F" stroke-width="3"/>
<circle cx="135.02" cy="140.769" r="0.5" fill="#2EB59F" stroke="#2EB59F" stroke-width="0.990669"/>
<line x1="95.7235" y1="42" x2="95.7235" y2="51.9533" stroke="#2EB59F" stroke-width="3"/>
<circle cx="94.4225" cy="52.3515" r="0.5" fill="#2EB59F" stroke="#2EB59F" stroke-width="0.990669"/>
<line x1="83.2501" y1="151" x2="83.2501" y2="141.047" stroke="#FF3300" stroke-width="3"/>
<circle cx="84.352" cy="140.449" r="0.5" transform="rotate(-180 84.352 140.449)" fill="#FF3300" stroke="#FF3300" stroke-width="0.990669"/>
<line x1="93.3252" y1="121.291" x2="93.3252" y2="110.863" stroke="#FFFF00" stroke-width="3"/>
<line x1="105.796" y1="120.633" x2="105.796" y2="130.587" stroke="#FFFF00" stroke-width="3"/>
<circle cx="104.694" cy="131.184" r="0.5" fill="#FFFF00" stroke="#FFFF00" stroke-width="0.990669"/>
<line x1="113.462" y1="62.3302" x2="113.462" y2="52.775" stroke="#FFFF00" stroke-width="3"/>
<circle cx="114.564" cy="52.1778" r="0.5" transform="rotate(-180 114.564 52.1778)" fill="#FFFF00" stroke="#FFFF00" stroke-width="0.990669"/>
<line x1="113.4" y1="141.208" x2="113.4" y2="110.75" stroke="#FF3300" stroke-width="3"/>
<line x1="103.446" y1="111.149" x2="103.446" y2="101.195" stroke="#FF3300" stroke-width="3"/>
<circle cx="104.548" cy="100.598" r="0.5" transform="rotate(-180 104.548 100.598)" fill="#FF3300" stroke="#FF3300" stroke-width="0.990669"/>
<line x1="114.9" y1="112.22" x2="104.349" y2="112.22" stroke="#FF3300" stroke-width="3"/>
<line x1="65.4486" y1="110.689" x2="65.4486" y2="141.146" stroke="#2EB59F" stroke-width="3"/>
<line x1="64.5459" y1="112.189" x2="53.7963" y2="112.189" stroke="#2EB59F" stroke-width="3"/>
<circle cx="53.9953" cy="111.087" r="0.5" fill="#2EB59F" stroke="#2EB59F" stroke-width="0.990669"/>
<line x1="74.2159" y1="63.3689" x2="64.6058" y2="63.3689" stroke="#FF3300" stroke-width="3"/>
<mask id="path-27-inside-2_8_173" fill="white">
<ellipse cx="64.0291" cy="62.2533" rx="0.961012" ry="0.961013" transform="rotate(90 64.0291 62.2533)"/>
</mask>
<ellipse cx="64.0291" cy="62.2533" rx="0.961012" ry="0.961013" transform="rotate(90 64.0291 62.2533)" fill="#FF3300"/>
<path d="M64.0291 63.2144V62.2144C64.0506 62.2144 64.0681 62.2318 64.0681 62.2533H63.0681H62.0681C62.0681 63.3364 62.9461 64.2144 64.0291 64.2144V63.2144ZM63.0681 62.2533H64.0681C64.0681 62.2749 64.0506 62.2923 64.0291 62.2923V61.2923V60.2923C62.9461 60.2923 62.0681 61.1703 62.0681 62.2533H63.0681ZM64.0291 61.2923V62.2923C64.0076 62.2923 63.9901 62.2749 63.9901 62.2533H64.9901H65.9901C65.9901 61.1703 65.1121 60.2923 64.0291 60.2923V61.2923ZM64.9901 62.2533H63.9901C63.9901 62.2318 64.0076 62.2144 64.0291 62.2144V63.2144V64.2144C65.1121 64.2144 65.9901 63.3364 65.9901 62.2533H64.9901Z" fill="#FF3300" mask="url(#path-27-inside-2_8_173)"/>
<line x1="72.7159" y1="62.5039" x2="72.7159" y2="42" stroke="#FF3300" stroke-width="3"/>
<line x1="143.612" y1="72.1601" x2="143.612" y2="61.6096" stroke="#FF3300" stroke-width="3"/>
<line x1="145.112" y1="73.0252" x2="135.502" y2="73.0252" stroke="#FF3300" stroke-width="3"/>
<mask id="path-32-inside-3_8_173" fill="white">
<ellipse cx="134.926" cy="71.9096" rx="0.961012" ry="0.961013" transform="rotate(90 134.926 71.9096)"/>
</mask>
<ellipse cx="134.926" cy="71.9096" rx="0.961012" ry="0.961013" transform="rotate(90 134.926 71.9096)" fill="#FF3300"/>
<path d="M134.926 72.8706V71.8706C134.947 71.8706 134.965 71.888 134.965 71.9096H133.965H132.965C132.965 72.9926 133.843 73.8706 134.926 73.8706V72.8706ZM133.965 71.9096H134.965C134.965 71.9311 134.947 71.9486 134.926 71.9486V70.9486V69.9486C133.843 69.9486 132.965 70.8265 132.965 71.9096H133.965ZM134.926 70.9486V71.9486C134.904 71.9486 134.887 71.9311 134.887 71.9096H135.887H136.887C136.887 70.8265 136.009 69.9486 134.926 69.9486V70.9486ZM135.887 71.9096H134.887C134.887 71.888 134.904 71.8706 134.926 71.8706V72.8706V73.8706C136.009 73.8706 136.887 72.9926 136.887 71.9096H135.887Z" fill="#FF3300" mask="url(#path-32-inside-3_8_173)"/>
<line x1="154.551" y1="92.7037" x2="145.112" y2="92.7037" stroke="#FF3300" stroke-width="3"/>
<mask id="path-35-inside-4_8_173" fill="white">
<ellipse cx="144.546" cy="91.5812" rx="0.943851" ry="0.943852" transform="rotate(90 144.546 91.5812)"/>
</mask>
<ellipse cx="144.546" cy="91.5812" rx="0.943851" ry="0.943852" transform="rotate(90 144.546 91.5812)" fill="#FF3300"/>
<path d="M144.546 92.5251V91.5251C144.577 91.5251 144.602 91.5502 144.602 91.5812H143.602H142.602C142.602 92.6548 143.472 93.5251 144.546 93.5251V92.5251ZM143.602 91.5812H144.602C144.602 91.6122 144.577 91.6374 144.546 91.6374V90.6374V89.6374C143.472 89.6374 142.602 90.5077 142.602 91.5812H143.602ZM144.546 90.6374V91.6374C144.515 91.6374 144.49 91.6122 144.49 91.5812H145.49H146.49C146.49 90.5077 145.619 89.6374 144.546 89.6374V90.6374ZM145.49 91.5812H144.49C144.49 91.5502 144.515 91.5251 144.546 91.5251V92.5251V93.5251C145.619 93.5251 146.49 92.6548 146.49 91.5812H145.49Z" fill="#FF3300" mask="url(#path-35-inside-4_8_173)"/>
<line x1="144.952" y1="122.145" x2="135.513" y2="122.115" stroke="#FFFF00" stroke-width="3"/>
<line x1="154.39" y1="132.132" x2="144.355" y2="132.099" stroke="#FFFF00" stroke-width="3"/>
<line x1="143.457" y1="130.676" x2="143.489" y2="120.641" stroke="#FFFF00" stroke-width="3"/>
<mask id="path-40-inside-5_8_173" fill="white">
<ellipse cx="134.753" cy="120.992" rx="0.943852" ry="0.943852" transform="rotate(90 134.753 120.992)"/>
</mask>
<ellipse cx="134.753" cy="120.992" rx="0.943852" ry="0.943852" transform="rotate(90 134.753 120.992)" fill="#FFFF00"/>
<path d="M134.753 121.936V120.936C134.784 120.936 134.809 120.961 134.809 120.992H133.809H132.809C132.809 122.066 133.679 122.936 134.753 122.936V121.936ZM133.809 120.992H134.809C134.809 121.023 134.784 121.048 134.753 121.048V120.048V119.048C133.679 119.048 132.809 119.919 132.809 120.992H133.809ZM134.753 120.048V121.048C134.722 121.048 134.697 121.023 134.697 120.992H135.697H136.697C136.697 119.919 135.827 119.048 134.753 119.048V120.048ZM135.697 120.992H134.697C134.697 120.961 134.722 120.936 134.753 120.936V121.936V122.936C135.827 122.936 136.697 122.066 136.697 120.992H135.697Z" fill="#FFFF00" mask="url(#path-40-inside-5_8_173)"/>
<line x1="84.8634" y1="92.8001" x2="55.5181" y2="92.7692" stroke="#FFFF00" stroke-width="3"/>
<line x1="134.632" y1="62.94" x2="114.128" y2="62.94" stroke="#FFFF00" stroke-width="3"/>
<line x1="83.365" y1="101.846" x2="83.3959" y2="91.8927" stroke="#FFFF00" stroke-width="3"/>
<mask id="path-45-inside-6_8_173" fill="white">
<ellipse cx="54.7544" cy="91.6468" rx="0.943851" ry="0.943852" transform="rotate(90 54.7544 91.6468)"/>
</mask>
<ellipse cx="54.7544" cy="91.6468" rx="0.943851" ry="0.943852" transform="rotate(90 54.7544 91.6468)" fill="#FFFF00"/>
<path d="M54.7544 92.5906V91.5906C54.7854 91.5906 54.8105 91.6157 54.8105 91.6468H53.8105H52.8105C52.8105 92.7203 53.6808 93.5906 54.7544 93.5906V92.5906ZM53.8105 91.6468H54.8105C54.8105 91.6778 54.7854 91.7029 54.7544 91.7029V90.7029V89.7029C53.6808 89.7029 52.8105 90.5732 52.8105 91.6468H53.8105ZM54.7544 90.7029V91.7029C54.7234 91.7029 54.6982 91.6778 54.6982 91.6468H55.6982H56.6982C56.6982 90.5732 55.8279 89.7029 54.7544 89.7029V90.7029ZM55.6982 91.6468H54.6982C54.6982 91.6157 54.7234 91.5906 54.7544 91.5906V92.5906V93.5906C55.8279 93.5906 56.6982 92.7203 56.6982 91.6468H55.6982Z" fill="#FFFF00" mask="url(#path-45-inside-6_8_173)"/>
<line x1="104.896" y1="122.2" x2="94.624" y2="122.2" stroke="#FFFF00" stroke-width="3"/>
<rect width="16" height="16" transform="translate(34 86)" fill="#FFFF00"/>
<path d="M37.3334 100V96" stroke="black" stroke-width="2" stroke-linecap="round" stroke-linejoin="round"/>
<path d="M42 100V88" stroke="black" stroke-width="2" stroke-linecap="round" stroke-linejoin="round"/>
<path d="M46.6666 100V92" stroke="black" stroke-width="2" stroke-linecap="round" stroke-linejoin="round"/>
<path d="M41.9179 134.461L43.1834 125.284L44.1995 125.852L43.753 128.668L46.7489 130.342L48.9552 128.51L49.9713 129.077L42.7769 134.941L41.9179 134.461ZM42.8718 133.812C42.991 133.672 43.2224 133.43 43.5752 133.119C43.9338 132.797 44.7235 132.097 45.9756 131.037L43.6082 129.714C43.2686 131.724 43.0653 132.875 43.0073 133.2C42.9494 133.525 42.9023 133.732 42.8718 133.812ZM51.6371 132.339L51.5264 134.747L53.5529 133.41L55.3868 134.434L52.1944 136.4L52.2532 140.181L50.4342 139.165L50.4454 136.682L48.3622 138.007L46.5171 136.976L49.7727 135.046L49.792 131.308L51.6371 132.339ZM55.0605 137.816C55.5747 136.896 56.1713 136.119 56.8503 135.487C57.5307 134.851 58.3188 134.35 59.2145 133.981L60.9778 134.967C60.6422 135.101 60.2904 135.297 59.9225 135.553C59.5546 135.81 59.1903 136.113 58.8296 136.461C58.4714 136.811 58.1309 137.19 57.8081 137.599C57.4879 138.009 57.2044 138.434 56.9577 138.876C56.6306 139.461 56.3608 140.087 56.1484 140.752C55.9373 141.415 55.7951 142.06 55.7217 142.686C55.647 143.315 55.6521 143.868 55.737 144.345L53.9738 143.359C53.8181 142.403 53.8317 141.47 54.0148 140.561C54.1992 139.648 54.5478 138.733 55.0605 137.816ZM57.4741 143.099L61.7315 135.481L64.8786 137.239C65.449 137.558 65.8789 137.945 66.1683 138.4C66.4616 138.853 66.6102 139.341 66.6141 139.864C66.6194 140.385 66.4759 140.906 66.1835 141.43C65.8897 141.955 65.5173 142.351 65.0663 142.616C64.6191 142.881 64.1233 143.002 63.5786 142.981C63.034 142.96 62.4703 142.786 61.8875 142.461L59.9457 141.376L60.7564 139.925L62.356 140.819C62.6337 140.974 62.8926 141.055 63.1327 141.062C63.3752 141.071 63.5933 141.016 63.7871 140.896C63.9822 140.774 64.1449 140.596 64.2752 140.363C64.4068 140.128 64.4721 139.897 64.471 139.672C64.4713 139.444 64.4035 139.231 64.2677 139.031C64.1319 138.832 63.9264 138.655 63.6511 138.501L62.7434 137.994L59.3155 144.128L57.4741 143.099ZM66.3439 144.121C66.8581 143.201 67.4547 142.425 68.1337 141.792C68.8141 141.157 69.6022 140.655 70.4979 140.287L72.2612 141.272C71.9256 141.407 71.5738 141.603 71.2059 141.859C70.838 142.116 70.4737 142.418 70.113 142.767C69.7548 143.116 69.4143 143.496 69.0915 143.904C68.7713 144.314 68.4878 144.74 68.2411 145.182C67.914 145.767 67.6442 146.392 67.4318 147.058C67.2207 147.721 67.0785 148.366 67.0052 148.992C66.9305 149.62 66.9356 150.173 67.0204 150.65L65.2572 149.665C65.1015 148.709 65.1151 147.776 65.2982 146.866C65.4826 145.954 65.8312 145.039 66.3439 144.121ZM73.4981 144.556L73.3873 146.964L75.4138 145.626L77.2477 146.651L74.0554 148.616L74.1142 152.398L72.2951 151.382L72.3063 148.898L70.2231 150.224L68.3781 149.193L71.6337 147.263L71.653 143.525L73.4981 144.556ZM79.4957 151.471C78.9829 152.389 78.3863 153.165 77.7059 153.8C77.0269 154.433 76.2395 154.933 75.3437 155.302L73.5805 154.316C73.9186 154.183 74.2703 153.987 74.6358 153.729C75.0037 153.473 75.3667 153.17 75.7249 152.82C76.0856 152.472 76.4261 152.092 76.7464 151.682C77.0692 151.274 77.3532 150.85 77.5985 150.411C77.927 149.823 78.1967 149.198 78.4078 148.535C78.6203 147.869 78.7632 147.223 78.8365 146.597C78.9112 145.968 78.9061 145.415 78.8212 144.938L80.5845 145.924C80.7402 146.88 80.7258 147.814 80.5414 148.726C80.3584 149.636 80.0098 150.551 79.4957 151.471ZM83.9456 153.958C83.4328 154.875 82.8362 155.652 82.1558 156.287C81.4768 156.92 80.6895 157.42 79.7937 157.788L78.0304 156.803C78.3685 156.67 78.7203 156.474 79.0857 156.216C79.4536 155.96 79.8167 155.657 80.1749 155.307C80.5356 154.958 80.8761 154.579 81.1963 154.169C81.5191 153.76 81.8031 153.337 82.0484 152.898C82.3769 152.31 82.6467 151.684 82.8578 151.021C83.0703 150.356 83.2131 149.71 83.2865 149.084C83.3612 148.455 83.3561 147.902 83.2712 147.425L85.0344 148.411C85.1901 149.366 85.1758 150.301 84.9914 151.213C84.8084 152.123 84.4598 153.038 83.9456 153.958Z" fill="#FF3300"/>
<path d="M121.53 125.586L121.05 124.755L125.093 122.421L123.587 119.812L119.845 121.972L119.365 121.141L123.107 118.981L121.763 116.653L117.803 118.939L117.323 118.108L122.145 115.324L126.435 122.754L121.53 125.586ZM129.87 123.605C129.654 123.73 129.44 123.831 129.228 123.907C129.017 123.986 128.828 124.038 128.659 124.064L128.301 122.524C128.512 122.48 128.692 122.422 128.84 122.35C128.991 122.276 129.102 122.181 129.173 122.065C129.247 121.949 129.272 121.805 129.248 121.632L129.22 121.422L123.813 116.71L125.702 115.619L129.082 119.061L129.141 119.027L127.865 114.371L129.766 113.274L131.215 120.718C131.29 121.088 131.302 121.445 131.249 121.791C131.199 122.138 131.065 122.465 130.845 122.772C130.628 123.077 130.303 123.355 129.87 123.605ZM132.371 115.361C131.844 114.449 131.482 113.539 131.287 112.631C131.09 111.722 131.062 110.788 131.205 109.83L132.954 108.82C132.898 109.177 132.885 109.579 132.917 110.027C132.949 110.474 133.023 110.942 133.137 111.43C133.254 111.917 133.406 112.404 133.591 112.89C133.78 113.375 134 113.837 134.253 114.275C134.588 114.855 134.987 115.407 135.45 115.931C135.912 116.452 136.393 116.904 136.893 117.287C137.395 117.673 137.872 117.952 138.325 118.124L136.576 119.133C135.675 118.778 134.881 118.288 134.193 117.665C133.504 117.04 132.896 116.272 132.371 115.361ZM139.466 111.609L140.943 110.757L142.032 111.196L143.401 111.665L145.568 112.495L143.914 113.45L142.417 112.902L141.459 112.452L139.466 111.609ZM143.097 108.096C143.577 108.928 143.824 109.725 143.838 110.488C143.852 111.251 143.672 111.94 143.299 112.555C142.929 113.169 142.406 113.672 141.729 114.062C141.05 114.454 140.351 114.656 139.633 114.667C138.914 114.679 138.229 114.489 137.577 114.098C136.926 113.703 136.361 113.091 135.882 112.262C135.402 111.43 135.154 110.633 135.137 109.872C135.123 109.109 135.301 108.421 135.672 107.807C136.042 107.193 136.567 106.69 137.246 106.298C137.923 105.907 138.619 105.705 139.336 105.691C140.056 105.676 140.742 105.865 141.396 106.258C142.05 106.652 142.617 107.264 143.097 108.096ZM141.229 109.174C140.945 108.682 140.635 108.307 140.299 108.048C139.965 107.788 139.617 107.646 139.256 107.622C138.896 107.597 138.535 107.689 138.171 107.899C137.809 108.108 137.548 108.375 137.388 108.7C137.228 109.026 137.176 109.398 137.232 109.819C137.29 110.238 137.461 110.694 137.746 111.186C138.03 111.678 138.339 112.054 138.672 112.314C139.009 112.572 139.358 112.714 139.719 112.738C140.081 112.762 140.443 112.669 140.804 112.461C141.168 112.25 141.429 111.983 141.587 111.659C141.747 111.334 141.797 110.962 141.739 110.543C141.683 110.123 141.513 109.666 141.229 109.174ZM144.996 108.072C144.469 107.16 144.108 106.25 143.912 105.342C143.715 104.433 143.687 103.499 143.83 102.541L145.579 101.531C145.523 101.888 145.51 102.29 145.542 102.738C145.574 103.185 145.648 103.653 145.762 104.141C145.879 104.628 146.031 105.115 146.216 105.601C146.405 106.086 146.625 106.548 146.878 106.986C147.213 107.566 147.612 108.118 148.075 108.642C148.537 109.162 149.018 109.615 149.518 109.998C150.02 110.384 150.497 110.663 150.95 110.834L149.201 111.844C148.3 111.489 147.506 110.999 146.818 110.376C146.129 109.751 145.521 108.983 144.996 108.072ZM153.101 110.193C152.884 110.318 152.67 110.419 152.458 110.495C152.248 110.574 152.058 110.626 151.889 110.652L151.531 109.111C151.743 109.068 151.922 109.01 152.071 108.938C152.222 108.864 152.332 108.769 152.403 108.652C152.477 108.537 152.503 108.393 152.478 108.22L152.45 108.01L147.043 103.298L148.933 102.207L152.312 105.649L152.371 105.615L151.095 100.959L152.996 99.8614L154.445 107.306C154.521 107.676 154.532 108.033 154.479 108.379C154.43 108.726 154.295 109.052 154.076 109.36C153.859 109.665 153.534 109.943 153.101 110.193ZM158.155 100.475C158.681 101.385 159.042 102.295 159.239 103.205C159.435 104.112 159.462 105.045 159.319 106.003L157.57 107.013C157.629 106.654 157.641 106.252 157.606 105.806C157.574 105.358 157.5 104.891 157.383 104.404C157.268 103.916 157.117 103.43 156.929 102.944C156.743 102.458 156.524 101.997 156.273 101.561C155.936 100.978 155.537 100.426 155.076 99.9055C154.613 99.3822 154.131 98.9287 153.631 98.5451C153.129 98.159 152.652 97.8803 152.199 97.7089L153.948 96.699C154.849 97.0548 155.644 97.5454 156.333 98.171C157.021 98.7941 157.628 99.562 158.155 100.475ZM162.57 97.926C163.095 98.8363 163.457 99.7463 163.654 100.656C163.85 101.563 163.876 102.496 163.734 103.454L161.985 104.464C162.043 104.105 162.056 103.703 162.021 103.257C161.989 102.809 161.915 102.342 161.798 101.856C161.683 101.367 161.532 100.881 161.343 100.396C161.158 99.9091 160.939 99.4481 160.688 99.0126C160.351 98.4295 159.952 97.8776 159.49 97.3567C159.028 96.8334 158.546 96.3799 158.046 95.9963C157.544 95.6102 157.066 95.3315 156.613 95.1601L158.363 94.1502C159.263 94.5059 160.058 94.9966 160.748 95.6222C161.435 96.2453 162.043 97.0132 162.57 97.926Z" fill="#2EB59F"/>
<rect width="79.3417" height="79.3417" transform="matrix(0.87321 0.487343 -0.87321 0.487343 99.2821 23)" stroke="white"/>
<rect width="79.3417" height="77.2623" transform="matrix(0.87321 0.487343 0 1 30 61.7377)" stroke="white"/>
<rect width="79.3417" height="77.3086" transform="matrix(0.87321 -0.487343 0 1 99.2821 100.358)" stroke="white"/>
<path d="M79.3864 75.5568V77.5682H69.6023V75.5568H79.3864ZM79.3864 76.4773V80.6023H77.0341V76.4773H79.3864Z" fill="#2482FD"/>
<path d="M104.816 46L109.312 36.72H110.112L114.608 46H113.28L109.712 38.352L106.144 46H104.816Z" fill="#2482FD"/>
<path d="M94.312 75L89.816 65.72H91.144L94.712 73.368L98.28 65.72H99.608L95.112 75H94.312Z" fill="#2482FD"/>
<path d="M84.802 52V43.838H80.714V42.844H89.87V43.838H85.796V52H84.802Z" fill="#2482FD"/>
<path d="M80.714 130V129.006H84.802V120.844H85.796V129.006H89.87V130H80.714Z" fill="#2482FD"/>
<path d="M131.95 101.689L130.76 101.379L132.307 95.6043L126.539 94.0668L126.859 92.8715L133.813 94.7349L131.95 101.689ZM124.675 102.294L124.05 101.211L132.819 96.1489L132.361 97.8564L124.675 102.294ZM123.323 99.9517L122.698 98.8692L130.384 94.4317L132.091 94.8892L123.323 99.9517Z" fill="#2482FD"/>
<path d="M122.303 157.598L121.114 157.288L122.661 151.513L116.892 149.976L117.212 148.781L124.167 150.644L122.303 157.598ZM115.277 161.655L108.322 159.792L110.186 152.837L111.381 153.158L109.828 158.922L115.603 160.47L115.277 161.655ZM111.752 160.095L110.044 159.637L123.143 152.075L122.685 153.783L111.752 160.095ZM109.317 158.378L109.774 156.67L120.708 150.358L122.416 150.815L109.317 158.378Z" fill="#2482FD"/>
<path d="M51.27 68.335C48.225 68.335 45.765 65.875 45.765 62.83C45.765 59.785 48.225 57.325 51.27 57.325C54.315 57.325 56.775 59.785 56.775 62.83C56.775 65.875 54.285 68.335 51.27 68.335ZM50.805 58.435C48.735 58.645 47.1 60.28 46.875 62.35H50.805V58.435ZM51.765 58.435V62.335H55.665C55.44 60.28 53.82 58.66 51.765 58.435ZM51.75 63.295V67.225C53.82 67 55.455 65.365 55.665 63.295H51.75ZM46.875 63.31C47.1 65.365 48.735 67.015 50.79 67.225V63.31H46.875Z" fill="#2482FD"/>
</g>
</svg>
